<svg width="16" height="21" viewBox="0 0 16 21" fill="none" xmlns="http://www.w3.org/2000/svg">
<path d="M12.7867 0H2.56181C1.88277 0.00129327 1.23192 0.271613 0.751765 0.751765C0.271613 1.23192 0.00129327 1.88277 0 2.56181V18.9886C0.0003506 19.4747 0.193588 19.9407 0.537276 20.2844C0.880963 20.6281 1.347 20.8213 1.83305 20.8217H14.2331C14.5287 20.8208 14.8119 20.703 15.0209 20.494C15.2299 20.285 15.3477 20.0018 15.3485 19.7062V2.56181C15.3479 1.88258 15.0778 1.23136 14.5975 0.751067C14.1172 0.270778 13.466 0.000661505 12.7867 0ZM2.15653 2.72169C2.15605 2.67273 2.16534 2.62416 2.18385 2.57883C2.20236 2.5335 2.22973 2.49232 2.26436 2.4577C2.29898 2.42308 2.34016 2.39571 2.38549 2.37719C2.43082 2.35868 2.47938 2.34939 2.52835 2.34987C2.65797 2.34922 2.78204 2.29718 2.87335 2.20518C2.96466 2.11317 3.01576 1.9887 3.01542 1.85908C3.01572 1.76056 3.05499 1.66615 3.12465 1.59649C3.19432 1.52682 3.28872 1.48756 3.38724 1.48726H11.9613C12.0598 1.48756 12.1542 1.52682 12.2239 1.59649C12.2936 1.66615 12.3328 1.76056 12.3331 1.85908C12.3328 1.9887 12.3839 2.11317 12.4752 2.20518C12.5665 2.29718 12.6906 2.34922 12.8202 2.34987C12.8692 2.34939 12.9177 2.35868 12.9631 2.37719C13.0084 2.39571 13.0496 2.42308 13.0842 2.4577C13.1188 2.49232 13.1462 2.5335 13.1647 2.57883C13.1832 2.62416 13.1925 2.67273 13.192 2.72169V15.1255C13.1925 15.1744 13.1832 15.223 13.1647 15.2683C13.1462 15.3136 13.1188 15.3548 13.0842 15.3894C13.0496 15.4241 13.0084 15.4514 12.9631 15.47C12.9177 15.4885 12.8692 15.4978 12.8202 15.4973C12.6906 15.4979 12.5665 15.55 12.4752 15.642C12.3839 15.734 12.3328 15.8584 12.3331 15.9881C12.3328 16.0866 12.2936 16.181 12.2239 16.2507C12.1542 16.3203 12.0598 16.3596 11.9613 16.3599H3.38724C3.28872 16.3596 3.19432 16.3203 3.12465 16.2507C3.05499 16.181 3.01572 16.0866 3.01542 15.9881C3.01576 15.8584 2.96467 15.734 2.87336 15.642C2.78205 15.55 2.65797 15.4979 2.52835 15.4973C2.47938 15.4978 2.43082 15.4885 2.38549 15.47C2.34016 15.4514 2.29898 15.4241 2.26436 15.3894C2.22973 15.3548 2.20236 15.3136 2.18385 15.2683C2.16534 15.223 2.15605 15.1744 2.15653 15.1255V2.72169ZM14.6049 19.7062C14.6046 19.8047 14.5654 19.8992 14.4957 19.9688C14.426 20.0385 14.3316 20.0778 14.2331 20.078H1.83305C1.54658 20.075 1.27287 19.9591 1.07136 19.7555C0.86985 19.5519 0.756823 19.2769 0.756829 18.9905C0.756835 18.704 0.869872 18.4291 1.07139 18.2254C1.27291 18.0218 1.54663 17.9059 1.8331 17.9029H14.2352C14.2839 17.903 14.3321 17.9126 14.3771 17.9313C14.4221 17.9501 14.4629 17.9775 14.4973 18.012C14.5316 18.0466 14.5588 18.0876 14.5773 18.1327C14.5958 18.1777 14.6052 18.226 14.6049 18.2747L14.6049 19.7062Z" fill="#756860"/>
<path d="M12.7867 0H2.56181C1.88277 0.00129327 1.23192 0.271613 0.751765 0.751765C0.271613 1.23192 0.00129327 1.88277 0 2.56181V18.9886C0.0003506 19.4747 0.193588 19.9407 0.537276 20.2844C0.880963 20.6281 1.347 20.8213 1.83305 20.8217H14.2331C14.5287 20.8208 14.8119 20.703 15.0209 20.494C15.2299 20.285 15.3477 20.0018 15.3485 19.7062V2.56181C15.3479 1.88258 15.0778 1.23136 14.5975 0.751067C14.1172 0.270778 13.466 0.000661505 12.7867 0ZM2.15653 2.72169C2.15605 2.67273 2.16534 2.62416 2.18385 2.57883C2.20236 2.5335 2.22973 2.49232 2.26436 2.4577C2.29898 2.42308 2.34016 2.39571 2.38549 2.37719C2.43082 2.35868 2.47938 2.34939 2.52835 2.34987C2.65797 2.34922 2.78204 2.29718 2.87335 2.20518C2.96466 2.11317 3.01576 1.9887 3.01542 1.85908C3.01572 1.76056 3.05499 1.66615 3.12465 1.59649C3.19432 1.52682 3.28872 1.48756 3.38724 1.48726H11.9613C12.0598 1.48756 12.1542 1.52682 12.2239 1.59649C12.2936 1.66615 12.3328 1.76056 12.3331 1.85908C12.3328 1.9887 12.3839 2.11317 12.4752 2.20518C12.5665 2.29718 12.6906 2.34922 12.8202 2.34987C12.8692 2.34939 12.9177 2.35868 12.9631 2.37719C13.0084 2.39571 13.0496 2.42308 13.0842 2.4577C13.1188 2.49232 13.1462 2.5335 13.1647 2.57883C13.1832 2.62416 13.1925 2.67273 13.192 2.72169V15.1255C13.1925 15.1744 13.1832 15.223 13.1647 15.2683C13.1462 15.3136 13.1188 15.3548 13.0842 15.3894C13.0496 15.4241 13.0084 15.4514 12.9631 15.47C12.9177 15.4885 12.8692 15.4978 12.8202 15.4973C12.6906 15.4979 12.5665 15.55 12.4752 15.642C12.3839 15.734 12.3328 15.8584 12.3331 15.9881C12.3328 16.0866 12.2936 16.181 12.2239 16.2507C12.1542 16.3203 12.0598 16.3596 11.9613 16.3599H3.38724C3.28872 16.3596 3.19432 16.3203 3.12465 16.2507C3.05499 16.181 3.01572 16.0866 3.01542 15.9881C3.01576 15.8584 2.96467 15.734 2.87336 15.642C2.78205 15.55 2.65797 15.4979 2.52835 15.4973C2.47938 15.4978 2.43082 15.4885 2.38549 15.47C2.34016 15.4514 2.29898 15.4241 2.26436 15.3894C2.22973 15.3548 2.20236 15.3136 2.18385 15.2683C2.16534 15.223 2.15605 15.1744 2.15653 15.1255V2.72169ZM14.6049 19.7062C14.6046 19.8047 14.5654 19.8992 14.4957 19.9688C14.426 20.0385 14.3316 20.0778 14.2331 20.078H1.83305C1.54658 20.075 1.27287 19.9591 1.07136 19.7555C0.86985 19.5519 0.756823 19.2769 0.756829 18.9905C0.756835 18.704 0.869872 18.4291 1.07139 18.2254C1.27291 18.0218 1.54663 17.9059 1.8331 17.9029H14.2352C14.2839 17.903 14.3321 17.9126 14.3771 17.9313C14.4221 17.9501 14.4629 17.9775 14.4973 18.012C14.5316 18.0466 14.5588 18.0876 14.5773 18.1327C14.5958 18.1777 14.6052 18.226 14.6049 18.2747L14.6049 19.7062Z" fill="black" fill-opacity="0.2"/>
<path d="M3.70351 15.6158H11.6455C11.7049 15.4272 11.8089 15.2558 11.9488 15.116C12.0886 14.9762 12.26 14.8721 12.4486 14.8127V3.03359C12.26 2.97417 12.0886 2.87014 11.9488 2.73033C11.8089 2.59052 11.7049 2.41905 11.6455 2.23047H3.70351C3.64409 2.41905 3.54006 2.59052 3.40025 2.73033C3.26044 2.87014 3.08897 2.97417 2.90039 3.03359V14.8127C3.08897 14.8721 3.26044 14.9762 3.40025 15.116C3.54006 15.2558 3.64409 15.4272 3.70351 15.6158ZM6.73753 3.30502C8.58819 1.97912 10.2832 4.89259 8.21735 5.84823C8.16929 5.86319 8.12704 5.89267 8.09641 5.93262C8.06578 5.97257 8.04828 6.02102 8.04632 6.07132C8.04487 6.16898 8.00505 6.26214 7.93548 6.33069C7.86591 6.39923 7.77216 6.43766 7.67449 6.43765C7.57682 6.43765 7.48308 6.39922 7.41351 6.33067C7.34394 6.26212 7.30413 6.16896 7.30269 6.0713C7.3043 5.8711 7.36666 5.6761 7.48152 5.51211C7.59638 5.34812 7.75833 5.22287 7.94593 5.15294C8.07173 5.1035 8.18167 5.02069 8.26391 4.91342C8.34615 4.80614 8.39758 4.67848 8.41266 4.54415C8.42774 4.40983 8.40591 4.27393 8.3495 4.15109C8.2931 4.02825 8.20426 3.92312 8.09256 3.84702C7.98085 3.77091 7.8505 3.72671 7.71555 3.71917C7.58059 3.71163 7.44613 3.74103 7.32664 3.80422C7.20715 3.86741 7.10716 3.96199 7.03742 4.07779C6.96768 4.19358 6.93085 4.32619 6.93087 4.46136C6.93058 4.55988 6.89131 4.65428 6.82164 4.72395C6.75198 4.79362 6.65758 4.83288 6.55906 4.83318C5.8009 4.72721 6.34471 3.57975 6.73753 3.30502ZM8.05375 7.67757C8.05181 7.77489 8.01177 7.86757 7.94225 7.93571C7.87274 8.00385 7.77927 8.04201 7.68193 8.04201C7.58458 8.04201 7.49112 8.00384 7.42161 7.93569C7.35209 7.86755 7.31207 7.77487 7.31012 7.67754C7.31207 7.58022 7.3521 7.48754 7.42162 7.4194C7.49114 7.35126 7.58461 7.3131 7.68195 7.3131C7.77929 7.3131 7.87275 7.35128 7.94227 7.41942C8.01178 7.48756 8.05181 7.58024 8.05375 7.67757ZM5.23911 11.7862C5.23911 11.7861 5.49566 12.3439 6.77471 12.3439C7.04606 12.3422 7.31694 12.3211 7.58527 12.2806C7.25899 11.866 7.06817 11.3611 7.0387 10.8343C7.0387 9.82294 7.50347 9.42138 7.77861 9.26894C8.95335 8.67617 10.3397 9.97174 10.0578 11.3511C9.99012 11.645 9.85278 11.9183 9.65736 12.148C9.46195 12.3777 9.21418 12.5571 8.93493 12.671C9.15827 12.8802 9.39554 13.074 9.6451 13.2511C9.70874 13.297 9.75632 13.3617 9.7811 13.4362C9.80587 13.5106 9.80658 13.591 9.78313 13.6659C9.75968 13.7407 9.71325 13.8063 9.65043 13.8533C9.58761 13.9004 9.51159 13.9264 9.43314 13.9278C9.35765 13.9292 9.28359 13.9071 9.22123 13.8646C8.83345 13.5877 8.47022 13.2779 8.13552 12.9388C5.46038 13.5223 4.57398 12.3106 4.53265 12.0278C4.50334 11.9348 4.51153 11.834 4.5555 11.747C4.59947 11.66 4.67571 11.5937 4.76795 11.5621C4.86019 11.5306 4.96111 11.5363 5.04914 11.5782C5.13718 11.6201 5.20536 11.6947 5.23911 11.7862Z" fill="#756860"/>
<path d="M3.70351 15.6158H11.6455C11.7049 15.4272 11.8089 15.2558 11.9488 15.116C12.0886 14.9762 12.26 14.8721 12.4486 14.8127V3.03359C12.26 2.97417 12.0886 2.87014 11.9488 2.73033C11.8089 2.59052 11.7049 2.41905 11.6455 2.23047H3.70351C3.64409 2.41905 3.54006 2.59052 3.40025 2.73033C3.26044 2.87014 3.08897 2.97417 2.90039 3.03359V14.8127C3.08897 14.8721 3.26044 14.9762 3.40025 15.116C3.54006 15.2558 3.64409 15.4272 3.70351 15.6158ZM6.73753 3.30502C8.58819 1.97912 10.2832 4.89259 8.21735 5.84823C8.16929 5.86319 8.12704 5.89267 8.09641 5.93262C8.06578 5.97257 8.04828 6.02102 8.04632 6.07132C8.04487 6.16898 8.00505 6.26214 7.93548 6.33069C7.86591 6.39923 7.77216 6.43766 7.67449 6.43765C7.57682 6.43765 7.48308 6.39922 7.41351 6.33067C7.34394 6.26212 7.30413 6.16896 7.30269 6.0713C7.3043 5.8711 7.36666 5.6761 7.48152 5.51211C7.59638 5.34812 7.75833 5.22287 7.94593 5.15294C8.07173 5.1035 8.18167 5.02069 8.26391 4.91342C8.34615 4.80614 8.39758 4.67848 8.41266 4.54415C8.42774 4.40983 8.40591 4.27393 8.3495 4.15109C8.2931 4.02825 8.20426 3.92312 8.09256 3.84702C7.98085 3.77091 7.8505 3.72671 7.71555 3.71917C7.58059 3.71163 7.44613 3.74103 7.32664 3.80422C7.20715 3.86741 7.10716 3.96199 7.03742 4.07779C6.96768 4.19358 6.93085 4.32619 6.93087 4.46136C6.93058 4.55988 6.89131 4.65428 6.82164 4.72395C6.75198 4.79362 6.65758 4.83288 6.55906 4.83318C5.8009 4.72721 6.34471 3.57975 6.73753 3.30502ZM8.05375 7.67757C8.05181 7.77489 8.01177 7.86757 7.94225 7.93571C7.87274 8.00385 7.77927 8.04201 7.68193 8.04201C7.58458 8.04201 7.49112 8.00384 7.42161 7.93569C7.35209 7.86755 7.31207 7.77487 7.31012 7.67754C7.31207 7.58022 7.3521 7.48754 7.42162 7.4194C7.49114 7.35126 7.58461 7.3131 7.68195 7.3131C7.77929 7.3131 7.87275 7.35128 7.94227 7.41942C8.01178 7.48756 8.05181 7.58024 8.05375 7.67757ZM5.23911 11.7862C5.23911 11.7861 5.49566 12.3439 6.77471 12.3439C7.04606 12.3422 7.31694 12.3211 7.58527 12.2806C7.25899 11.866 7.06817 11.3611 7.0387 10.8343C7.0387 9.82294 7.50347 9.42138 7.77861 9.26894C8.95335 8.67617 10.3397 9.97174 10.0578 11.3511C9.99012 11.645 9.85278 11.9183 9.65736 12.148C9.46195 12.3777 9.21418 12.5571 8.93493 12.671C9.15827 12.8802 9.39554 13.074 9.6451 13.2511C9.70874 13.297 9.75632 13.3617 9.7811 13.4362C9.80587 13.5106 9.80658 13.591 9.78313 13.6659C9.75968 13.7407 9.71325 13.8063 9.65043 13.8533C9.58761 13.9004 9.51159 13.9264 9.43314 13.9278C9.35765 13.9292 9.28359 13.9071 9.22123 13.8646C8.83345 13.5877 8.47022 13.2779 8.13552 12.9388C5.46038 13.5223 4.57398 12.3106 4.53265 12.0278C4.50334 11.9348 4.51153 11.834 4.5555 11.747C4.59947 11.66 4.67571 11.5937 4.76795 11.5621C4.86019 11.5306 4.96111 11.5363 5.04914 11.5782C5.13718 11.6201 5.20536 11.6947 5.23911 11.7862Z" fill="black" fill-opacity="0.2"/>
<path d="M9.32901 11.203C9.36311 11.0518 9.36484 10.895 9.33408 10.7431C9.30332 10.5911 9.24076 10.4474 9.15051 10.3213C9.06026 10.1953 8.94437 10.0897 8.81044 10.0116C8.67651 9.93351 8.52758 9.88462 8.37341 9.86816C7.9256 9.89308 7.80033 10.264 7.78223 10.8349C7.83813 11.3112 8.0499 11.7556 8.38457 12.0991C8.6074 12.0471 8.81236 11.9367 8.97836 11.7792C9.14435 11.6217 9.26538 11.4228 9.32901 11.203Z" fill="#756860"/>
<path d="M9.32901 11.203C9.36311 11.0518 9.36484 10.895 9.33408 10.7431C9.30332 10.5911 9.24076 10.4474 9.15051 10.3213C9.06026 10.1953 8.94437 10.0897 8.81044 10.0116C8.67651 9.93351 8.52758 9.88462 8.37341 9.86816C7.9256 9.89308 7.80033 10.264 7.78223 10.8349C7.83813 11.3112 8.0499 11.7556 8.38457 12.0991C8.6074 12.0471 8.81236 11.9367 8.97836 11.7792C9.14435 11.6217 9.26538 11.4228 9.32901 11.203Z" fill="black" fill-opacity="0.2"/>
<path d="M10.9688 2.78906H4.0902L3.9043 15.2449L10.7829 15.4308L10.9688 2.78906Z" fill="#756860"/>
<path d="M10.9688 2.78906H4.0902L3.9043 15.2449L10.7829 15.4308L10.9688 2.78906Z" fill="black" fill-opacity="0.2"/>
</svg>
