<svg width="22" height="22" viewBox="0 0 22 22" fill="none" xmlns="http://www.w3.org/2000/svg">
<path d="M11 19C15.4183 19 19 15.4183 19 11C19 6.58172 15.4183 3 11 3C6.58172 3 3 6.58172 3 11C3 15.4183 6.58172 19 11 19Z" stroke="#756860" stroke-width="1.5" stroke-linecap="round" stroke-linejoin="round"/>
<path d="M11 19C15.4183 19 19 15.4183 19 11C19 6.58172 15.4183 3 11 3C6.58172 3 3 6.58172 3 11C3 15.4183 6.58172 19 11 19Z" stroke="black" stroke-opacity="0.2" stroke-width="1.5" stroke-linecap="round" stroke-linejoin="round"/>
<path fill-rule="evenodd" clip-rule="evenodd" d="M11 12C11.5 12 12 11.5 12 11C12 10.5 11.5 10 11 10C10.5 10 10.001 10.5 10.001 11C10.001 11.5 10.5 12 11 12ZM6.99998 12C7.49998 12 7.99998 11.5 7.99998 11C7.99998 10.5 7.49998 10 6.99998 10C6.49998 10 6.00098 10.5 6.00098 11C6.00098 11.5 6.49998 12 6.99998 12ZM15 12C15.5 12 16 11.5 16 11C16 10.5 15.5 10 15 10C14.5 10 14.001 10.5 14.001 11C14.001 11.5 14.5 12 15 12Z" fill="#756860"/>
<path fill-rule="evenodd" clip-rule="evenodd" d="M11 12C11.5 12 12 11.5 12 11C12 10.5 11.5 10 11 10C10.5 10 10.001 10.5 10.001 11C10.001 11.5 10.5 12 11 12ZM6.99998 12C7.49998 12 7.99998 11.5 7.99998 11C7.99998 10.5 7.49998 10 6.99998 10C6.49998 10 6.00098 10.5 6.00098 11C6.00098 11.5 6.49998 12 6.99998 12ZM15 12C15.5 12 16 11.5 16 11C16 10.5 15.5 10 15 10C14.5 10 14.001 10.5 14.001 11C14.001 11.5 14.5 12 15 12Z" fill="black" fill-opacity="0.2"/>
</svg>
