<svg width="30" height="24" viewBox="0 0 30 24" fill="none" xmlns="http://www.w3.org/2000/svg">
<path d="M4.28864 2.93262H5.46151L14.8445 3.51905L25.9867 2.93262L27.1596 3.51905L27.746 4.69192V5.86479L28.3325 8.79697L29.5053 13.4884V14.6613L28.3325 15.8342L27.1596 16.4206H25.9867L20.1224 17.5935L20.7088 18.1799L21.8817 19.9392L23.641 21.6985L24.2274 22.8714L21.8817 23.4578L20.1224 22.8714L19.5359 21.6985L17.7766 18.1799L15.4309 18.7664L12.4987 18.1799L11.3259 20.5257L9.56655 22.8714L7.80725 23.4578L5.46151 22.8714L6.63438 21.6985L8.39368 19.3528L9.56655 18.1799V17.5935L4.28864 16.4206L1.9429 15.8342L0.770029 15.2478L0.183594 14.0749L0.770029 11.7291L1.35646 9.96984L2.52933 4.10549L3.11577 2.93262H4.28864Z" fill="#F2EBE6"/>
<path d="M12.4992 2.34574L14.8449 3.51861L16.0178 2.93218L18.3635 1.75931L22.4685 0.586435L23.055 0L23.6414 0.586435L24.2279 1.17287L25.4007 9.38296L25.9872 12.9016L25.4007 13.488H24.2279H21.2957L17.7771 14.6609L16.0178 15.2473L14.8449 15.8337L14.2585 15.2473L13.0856 14.6609L10.7398 14.0744L8.98054 13.488H6.04837H4.8755L4.28906 12.9016V12.3151V11.7287V11.1423L6.04837 1.17287V0.586435L6.6348 0L7.80767 0.586435L9.56698 1.17287L12.4992 2.34574Z" fill="#FBF8F7"/>
<path d="M6.81115 0.00156018C6.29472 0.0289656 5.84269 0.413933 5.74673 0.954746L5.46548 2.54098H4.70402C3.43667 2.54067 2.34094 3.43544 2.08231 4.68067L0.592841 11.8757C0.586768 11.9055 0.586631 11.9362 0.592436 11.9661C0.59824 11.9959 0.609874 12.0244 0.626672 12.0497C0.64347 12.0751 0.665102 12.0969 0.690332 12.1139C0.715562 12.1309 0.743895 12.1428 0.773711 12.1488C0.803521 12.1549 0.834236 12.155 0.8641 12.1492C0.893963 12.1434 0.92239 12.1318 0.947754 12.115C0.973119 12.0982 0.994924 12.0765 1.01192 12.0513C1.02892 12.0261 1.04078 11.9977 1.04682 11.9679L2.53719 4.77291C2.75196 3.73889 3.65408 3.00194 4.70402 3.0022H5.38319L4.02756 10.6485C3.96954 10.9755 4.05016 11.2817 4.25636 11.4787C4.27664 11.498 4.29851 11.516 4.32057 11.5329L4.02756 12.6236C3.93807 12.9544 4.02406 13.279 4.23918 13.4755C4.4543 13.672 4.76523 13.7429 5.09018 13.6934C7.10325 13.3869 9.29532 13.7808 11.0996 14.3292C12.9038 14.8776 14.3295 15.5829 14.7839 15.8539C14.7851 15.8552 14.7863 15.8564 14.7875 15.8576L14.8834 15.9119C14.9191 15.933 14.9599 15.9442 15.0014 15.9442C15.0429 15.9442 15.0837 15.933 15.1194 15.9119L15.2144 15.854C15.6681 15.5831 17.0942 14.8778 18.8996 14.3292C20.705 13.7806 22.8978 13.3861 24.9117 13.6934C25.2334 13.7425 25.5385 13.6746 25.7455 13.4782C25.9526 13.2818 26.0337 12.9754 25.978 12.648L25.9336 12.3884C25.923 12.3282 25.889 12.2746 25.839 12.2394C25.7891 12.2041 25.7272 12.1901 25.6669 12.2003C25.6066 12.2109 25.553 12.245 25.5178 12.2949C25.4825 12.3449 25.4685 12.4068 25.4788 12.4671L25.5204 12.7231C25.5572 12.9397 25.5099 13.0661 25.4281 13.1436C25.3464 13.2211 25.2026 13.2693 24.9832 13.2358C22.8621 12.9121 20.6114 13.3244 18.7658 13.8851C16.9333 14.4419 15.5253 15.1373 15.0028 15.447L15.0199 15.4578C15.0171 15.4561 15.0021 15.4487 14.9991 15.447C14.9958 15.4489 14.9789 15.4557 14.9756 15.4578L14.9928 15.447C14.4698 15.1371 13.0638 14.4418 11.2325 13.8851C9.38809 13.3245 7.13885 12.913 5.01873 13.2358C4.80089 13.269 4.63788 13.2136 4.55028 13.1336C4.46268 13.0536 4.41699 12.9494 4.4716 12.7475L4.75466 11.7039C4.86086 11.7175 4.9728 11.7168 5.08746 11.7011C8.37656 11.2512 12.1543 12.9343 13.9293 13.8752C14.4073 14.1286 14.8184 14.3772 14.8834 14.4151C14.9194 14.4357 14.9604 14.4463 15.0019 14.4456C15.0434 14.445 15.084 14.4332 15.1194 14.4115L15.2044 14.3599L15.2144 14.3572C17.8638 12.9281 21.6302 11.2504 24.9153 11.7011C25.2368 11.7452 25.54 11.676 25.7455 11.4787C25.951 11.2814 26.0297 10.9753 25.9716 10.6485L24.6124 3.0022H25.2943C26.3447 3.00199 27.2472 3.74173 27.4611 4.77653L29.3141 13.7278C29.5132 14.687 28.9067 15.6219 27.954 15.8232L20.1657 17.4637C20.1639 17.4636 20.1621 17.4636 20.1603 17.4637L17.6001 18.0036L16.9001 18.151C15.6478 18.4148 14.3514 18.4148 13.0991 18.151L12.3982 18.0036L9.83802 17.4637C9.83651 17.4636 9.83501 17.4636 9.8335 17.4637L2.04523 15.8232C1.09325 15.6221 0.48329 14.6865 0.681467 13.7278C0.693802 13.668 0.682 13.6057 0.64863 13.5545C0.61526 13.5034 0.563028 13.4675 0.50331 13.4547C0.4735 13.4486 0.442785 13.4485 0.412922 13.4543C0.383059 13.4601 0.354632 13.4717 0.329267 13.4885C0.303903 13.5053 0.282098 13.5269 0.265098 13.5522C0.248099 13.5774 0.236239 13.6057 0.230197 13.6355C-0.0183113 14.8377 0.751849 16.0215 1.94937 16.2744L9.36052 17.8372L5.48899 22.3671C5.29762 22.5155 5.23706 22.7646 5.29546 22.9666C5.35639 23.1774 5.55527 23.361 5.81185 23.37L8.30333 23.4559C9.00171 23.4802 9.67973 23.2105 10.1735 22.7143C10.1882 22.6989 10.2007 22.6816 10.2106 22.6628L12.4742 18.4937L13.0069 18.6059C14.322 18.8829 15.6771 18.8829 16.9923 18.6059L17.525 18.4937L19.7877 22.6628C19.7979 22.6816 19.8107 22.699 19.8257 22.7143C20.3195 23.2105 20.9966 23.4802 21.6949 23.4559L24.1873 23.37C24.4439 23.361 24.6419 23.1774 24.7028 22.9666C24.7612 22.7646 24.6983 22.5155 24.5066 22.3671L20.635 17.8381L28.0489 16.2744C29.2473 16.0213 30.0186 14.8349 29.769 13.6319L27.916 4.68429C27.6584 3.43813 26.5624 2.54073 25.2943 2.54098H24.531L24.2488 0.954746C24.138 0.330555 23.5565 -0.0859943 22.9457 0.0151256C22.9049 0.0218632 22.8644 0.0308232 22.8236 0.0422562C22.6133 0.101123 22.3752 0.169865 22.1155 0.247544C21.8558 0.325222 21.5739 0.412011 21.2771 0.507996C21.1288 0.555989 20.9767 0.606548 20.8214 0.659024C20.3554 0.816449 19.8614 0.993246 19.3608 1.18988C19.194 1.25542 19.0265 1.32358 18.8589 1.39336C18.3562 1.60268 17.8537 1.83079 17.3722 2.07705C17.2919 2.11809 17.2124 2.1598 17.1334 2.20184C16.8964 2.32797 16.6655 2.45846 16.4434 2.59343C16.3694 2.63842 16.2965 2.68403 16.2245 2.72998C16.0086 2.86785 15.8019 3.00951 15.6078 3.15593C15.5856 3.17265 15.5632 3.18833 15.5399 3.20296C15.4934 3.23223 15.4445 3.2571 15.3944 3.27802C15.3442 3.29894 15.2922 3.31609 15.2397 3.32866C15.2135 3.33495 15.1876 3.33985 15.161 3.34403C15.1344 3.34823 15.1074 3.35187 15.0805 3.35397C14.8389 3.37293 14.5906 3.30684 14.3905 3.15593C12.3192 1.59371 8.85743 0.512665 7.17561 0.0422559C7.05317 0.00800901 6.93033 -0.00476424 6.81115 0.00156018ZM6.82743 0.459162C6.89878 0.456537 6.97333 0.465129 7.049 0.486292C8.71021 0.950938 12.1608 2.05193 14.1138 3.52491C14.3095 3.67254 14.535 3.76597 14.7667 3.80345V13.8146C14.6113 13.7235 14.4148 13.6115 14.1445 13.4682C12.3337 12.5084 8.51285 10.7666 5.02597 11.2435C4.80419 11.2739 4.65627 11.222 4.5747 11.1441C4.56449 11.1343 4.55474 11.1236 4.54576 11.1124C4.53678 11.1013 4.52801 11.0899 4.52044 11.0771C4.47497 11.0006 4.45637 10.8931 4.48517 10.7308L6.20524 1.03704C6.26595 0.694868 6.51824 0.470568 6.82743 0.459162ZM23.1681 0.459162C23.4785 0.470502 23.7332 0.695046 23.7939 1.03704L25.5131 10.7308C25.5516 10.9474 25.5056 11.0662 25.4245 11.1441C25.3434 11.2219 25.1975 11.2738 24.9768 11.2435C21.5937 10.7793 17.8938 12.4076 15.2316 13.8246V3.80435C15.2702 3.7983 15.3101 3.79088 15.3482 3.78175C15.5388 3.73607 15.7215 3.65148 15.8845 3.52853C17.8366 2.05584 21.2849 0.95146 22.9466 0.486292C23.0224 0.465056 23.0965 0.456544 23.1681 0.459162ZM8.27258 4.687C8.24203 4.68735 8.21184 4.69375 8.18377 4.70583C8.1557 4.7179 8.13029 4.73542 8.10902 4.75736C8.08775 4.7793 8.07103 4.80524 8.05984 4.83368C8.04864 4.86211 8.04319 4.89248 8.04378 4.92304C8.04414 4.95359 8.05054 4.98378 8.06261 5.01185C8.07469 5.03993 8.0922 5.06533 8.11415 5.0866C8.13609 5.10787 8.16202 5.12459 8.19046 5.13578C8.21889 5.14698 8.24927 5.15243 8.27982 5.15184C10.5449 5.12517 12.6921 6.59427 12.6921 6.59427C12.7425 6.62895 12.8045 6.64233 12.8646 6.63149C12.9247 6.62064 12.9781 6.58646 13.0132 6.5364C13.0479 6.48608 13.0612 6.42409 13.0504 6.36395C13.0396 6.30381 13.0054 6.25039 12.9553 6.21535C12.9553 6.21535 10.7384 4.65796 8.27258 4.687ZM21.6108 4.687C19.1917 4.70645 17.043 6.21535 17.043 6.21535C16.9929 6.25039 16.9587 6.30381 16.9479 6.36395C16.937 6.42409 16.9504 6.48608 16.9851 6.5364C17.0025 6.56169 17.0247 6.58328 17.0505 6.59991C17.0763 6.61654 17.1051 6.62788 17.1353 6.63327C17.1655 6.63865 17.1965 6.63798 17.2265 6.63129C17.2564 6.62459 17.2847 6.61201 17.3098 6.59427C17.3098 6.59427 19.4543 5.12516 21.7194 5.15184C21.7499 5.15243 21.7803 5.14698 21.8087 5.13578C21.8372 5.12459 21.8631 5.10787 21.885 5.0866C21.907 5.06533 21.9245 5.03993 21.9366 5.01185C21.9487 4.98378 21.9551 4.95359 21.9554 4.92304C21.956 4.89241 21.9505 4.86196 21.9393 4.83347C21.928 4.80497 21.9112 4.779 21.8899 4.75704C21.8685 4.73509 21.843 4.71759 21.8148 4.70557C21.7866 4.69354 21.7563 4.68723 21.7257 4.687C21.6872 4.68655 21.6492 4.68669 21.6108 4.687ZM7.99585 8.05028C7.93523 8.05003 7.87692 8.07357 7.83346 8.11584C7.79 8.15812 7.76486 8.21575 7.76344 8.27637C7.76222 8.33747 7.78521 8.39657 7.82739 8.44078C7.86958 8.485 7.92753 8.51074 7.98862 8.5124C10.1824 8.54824 12.4326 9.72875 12.4326 9.72875C12.4866 9.75694 12.5496 9.76268 12.6078 9.74473C12.6661 9.72679 12.7149 9.6866 12.7437 9.63289C12.7581 9.60601 12.767 9.57655 12.77 9.5462C12.7729 9.51586 12.7699 9.48523 12.761 9.45607C12.752 9.42692 12.7375 9.3998 12.7181 9.3763C12.6986 9.35279 12.6748 9.33334 12.6478 9.31908C12.6478 9.31908 10.3482 8.08871 7.99585 8.05028ZM22.0033 8.05028C19.651 8.08871 17.3514 9.31908 17.3514 9.31908C17.3244 9.33334 17.3005 9.35279 17.2811 9.3763C17.2617 9.3998 17.2471 9.42692 17.2382 9.45607C17.2293 9.48523 17.2263 9.51586 17.2292 9.5462C17.2322 9.57655 17.2411 9.60601 17.2555 9.63289C17.2698 9.65984 17.2892 9.68371 17.3127 9.70312C17.3362 9.72253 17.3633 9.73711 17.3925 9.74602C17.4216 9.75492 17.4523 9.75798 17.4826 9.75502C17.513 9.75206 17.5424 9.74313 17.5693 9.72875C17.5693 9.72875 19.8159 8.54824 22.0097 8.5124C22.0402 8.51205 22.0704 8.50565 22.0985 8.49358C22.1266 8.4815 22.152 8.46398 22.1732 8.44204C22.1945 8.4201 22.2112 8.39416 22.2224 8.36573C22.2336 8.33729 22.2391 8.30692 22.2385 8.27637C22.237 8.21528 22.2115 8.15723 22.1675 8.11488C22.1234 8.07253 22.0644 8.04931 22.0033 8.05028ZM9.876 17.9457L10.6709 18.113L11.9985 18.3933L9.82807 22.396C9.42591 22.7926 8.88021 23.0143 8.3169 22.9947L5.82903 22.9051C5.77034 22.903 5.75234 22.8786 5.7404 22.8373C5.72847 22.796 5.72864 22.7614 5.77748 22.7279C5.79379 22.7171 5.80868 22.7044 5.82179 22.6899L9.876 17.9457ZM20.1205 17.9466L24.1729 22.6899C24.1871 22.7046 24.2032 22.7174 24.2208 22.7279C24.2696 22.7614 24.2707 22.796 24.2588 22.8373C24.2469 22.8786 24.2289 22.9031 24.1702 22.9051L21.6778 22.9947C21.1145 23.0143 20.5733 22.7926 20.1711 22.396L17.9971 18.3942L20.1205 17.9466Z" fill="#594F4A"/>
</svg>
