<svg width="40" height="40" viewBox="0 0 40 40" fill="none" xmlns="http://www.w3.org/2000/svg">
<path d="M19.8135 1.33203C19.9128 1.22121 20.0872 1.22121 20.1865 1.33203L24.7842 6.46875C25.1386 6.86467 25.654 7.07807 26.1846 7.04883L33.0684 6.66797C33.217 6.65986 33.3401 6.78302 33.332 6.93164L32.9512 13.8154C32.9219 14.346 33.1353 14.8614 33.5312 15.2158L38.668 19.8135C38.7788 19.9128 38.7788 20.0872 38.668 20.1865L33.5312 24.7842C33.1353 25.1386 32.9219 25.654 32.9512 26.1846L33.332 33.0684C33.3401 33.217 33.217 33.3401 33.0684 33.332L26.1846 32.9512C25.654 32.9219 25.1386 33.1353 24.7842 33.5312L20.1865 38.668C20.0872 38.7788 19.9128 38.7788 19.8135 38.668L15.2158 33.5312C14.8614 33.1353 14.346 32.9219 13.8154 32.9512L6.93164 33.332C6.78302 33.3401 6.65986 33.217 6.66797 33.0684L7.04883 26.1846C7.07807 25.654 6.86467 25.1386 6.46875 24.7842L1.33203 20.1865C1.22121 20.0872 1.22121 19.9128 1.33203 19.8135L6.46875 15.2158C6.86467 14.8614 7.07807 14.346 7.04883 13.8154L6.66797 6.93164C6.65986 6.78303 6.78303 6.65986 6.93164 6.66797L13.8154 7.04883C14.346 7.07807 14.8614 6.86467 15.2158 6.46875L19.8135 1.33203Z" stroke="#97867C" stroke-width="1.5"/>
</svg>
