<svg width="25" height="25" viewBox="0 0 25 25" fill="none" xmlns="http://www.w3.org/2000/svg">
<path d="M7.94436 15.825L6.83936 15L7.00936 15.825H7.94436Z" fill="#594F4A"/>
<path d="M2.10001 24.9997H12.095C13.25 24.9997 14.195 24.0547 14.195 22.8997V15.1897H12.905C11.2 15.1897 9.81003 13.7997 9.81003 12.0897V10.8047H2.10001C0.940003 10.8047 0 11.7447 0 12.9047V22.8997C0 24.0547 0.940003 24.9997 2.10001 24.9997ZM3.33501 15.8247H5.99002L5.76002 14.7147C5.75002 14.6797 5.74502 14.6447 5.74502 14.6097C5.74502 14.2797 5.93502 13.9847 6.23502 13.8497C6.54002 13.7097 6.88502 13.7597 7.13502 13.9747L9.61503 15.8247H10.86C11.135 15.8247 11.36 16.0447 11.36 16.3247C11.36 16.5997 11.135 16.8247 10.86 16.8247H9.75503V21.5347C9.75503 21.8097 9.53003 22.0347 9.25503 22.0347C8.98002 22.0347 8.75502 21.8097 8.75502 21.5347V16.8247H6.28002V17.9597C6.28002 18.2347 6.05502 18.4597 5.78002 18.4597C5.07001 18.4597 4.49001 19.0347 4.49001 19.7447C4.49001 20.4547 5.07001 21.0347 5.78002 21.0347C6.49002 21.0347 7.06502 20.4547 7.06502 19.7447C7.06502 19.4697 7.29002 19.2447 7.56502 19.2447C7.84002 19.2447 8.06502 19.4697 8.06502 19.7447C8.06502 21.0047 7.04002 22.0347 5.78002 22.0347C4.51501 22.0347 3.49001 21.0047 3.49001 19.7447C3.49001 18.6547 4.25501 17.7397 5.28001 17.5147V16.8247H3.33501C3.06001 16.8247 2.83501 16.5997 2.83501 16.3247C2.83501 16.0447 3.06001 15.8247 3.33501 15.8247Z" fill="#594F4A"/>
<path d="M22.9001 0H12.9051C11.7501 0 10.8101 0.940002 10.8101 2.09501V12.09C10.8101 13.25 11.7501 14.19 12.9051 14.19H22.9001C24.0601 14.19 25.0001 13.25 25.0001 12.09V2.09501C25.0001 0.940002 24.0601 0 22.9001 0ZM20.7751 4.59001H18.4051V10.1C18.4051 10.375 18.1801 10.6 17.9051 10.6C17.6301 10.6 17.4051 10.375 17.4051 10.1V4.59001H15.0351C14.7601 4.59001 14.5351 4.36501 14.5351 4.09001C14.5351 3.81001 14.7601 3.59001 15.0351 3.59001H20.7751C21.0501 3.59001 21.2751 3.81001 21.2751 4.09001C21.2751 4.36501 21.0501 4.59001 20.7751 4.59001Z" fill="#594F4A"/>
<path d="M3.10522 9.71495C3.38022 9.71495 3.60522 9.48995 3.60522 9.21495V9.16495C3.60522 7.21494 4.92022 5.56994 6.70523 5.05993L6.61523 5.16993C6.44523 5.38493 6.48023 5.69994 6.69523 5.87494C6.78523 5.94994 6.89523 5.98494 7.00523 5.98494C7.15023 5.98494 7.30023 5.91994 7.39523 5.79494L8.26023 4.70493C8.27523 4.68993 8.28023 4.66493 8.29023 4.64493C8.30523 4.61493 8.32523 4.58993 8.33523 4.55493C8.34523 4.52493 8.35023 4.48993 8.35523 4.45993C8.36023 4.43493 8.37023 4.41493 8.37023 4.39493C8.37023 4.38493 8.36523 4.37493 8.36523 4.36493C8.36523 4.35493 8.37023 4.34493 8.36523 4.33493C8.36023 4.30993 8.35023 4.28993 8.34523 4.26493C8.33523 4.23493 8.33023 4.19993 8.31523 4.16993C8.30023 4.13993 8.28023 4.11993 8.26523 4.09493C8.24523 4.06993 8.22523 4.03993 8.20023 4.01993C8.19523 4.01493 8.19023 4.00493 8.18023 3.99993L7.09023 3.13493C6.87523 2.96493 6.56023 2.99993 6.38523 3.21493C6.21523 3.42993 6.25023 3.74493 6.46523 3.91993L6.62523 4.04493C4.31522 4.60493 2.59521 6.68494 2.59521 9.15995V9.20995C2.60521 9.49495 2.82522 9.71495 3.10522 9.71495Z" fill="#594F4A"/>
<path d="M18.305 19.12C18.09 18.95 17.775 18.985 17.6 19.2L16.735 20.2901C16.72 20.3051 16.715 20.3301 16.705 20.3501C16.69 20.3801 16.67 20.4051 16.66 20.4401C16.65 20.4701 16.645 20.5051 16.64 20.5401C16.635 20.5651 16.625 20.5851 16.625 20.6051C16.625 20.6151 16.63 20.6251 16.63 20.6351C16.63 20.6451 16.625 20.6551 16.63 20.6651C16.635 20.6901 16.645 20.7101 16.65 20.7351C16.66 20.7651 16.665 20.8001 16.68 20.8301C16.695 20.8601 16.715 20.8801 16.73 20.9051C16.75 20.9301 16.77 20.9601 16.795 20.9801C16.8 20.9851 16.805 20.9951 16.815 21.0001L17.905 21.8651C17.995 21.9401 18.105 21.9751 18.215 21.9751C18.36 21.9751 18.51 21.9101 18.605 21.7851C18.775 21.5701 18.74 21.2551 18.525 21.0801L18.365 20.9551C20.675 20.3951 22.395 18.315 22.395 15.84V15.79C22.395 15.515 22.17 15.29 21.895 15.29C21.62 15.29 21.395 15.515 21.395 15.79V15.84C21.395 17.79 20.08 19.435 18.295 19.9451L18.385 19.835C18.555 19.605 18.52 19.2951 18.305 19.12Z" fill="#594F4A"/>
</svg>
