<svg width="40" height="40" viewBox="0 0 40 40" fill="none" xmlns="http://www.w3.org/2000/svg">
<path d="M19.8135 1.33203C19.9128 1.22121 20.0872 1.22121 20.1865 1.33203L24.7842 6.46875C25.1386 6.86467 25.654 7.07807 26.1846 7.04883L33.0684 6.66797C33.217 6.65986 33.3401 6.78302 33.332 6.93164L32.9512 13.8154C32.9219 14.346 33.1353 14.8614 33.5312 15.2158L38.668 19.8135C38.7788 19.9128 38.7788 20.0872 38.668 20.1865L33.5312 24.7842C33.1353 25.1386 32.9219 25.654 32.9512 26.1846L33.332 33.0684C33.3401 33.217 33.217 33.3401 33.0684 33.332L26.1846 32.9512C25.654 32.9219 25.1386 33.1353 24.7842 33.5312L20.1865 38.668C20.0872 38.7788 19.9128 38.7788 19.8135 38.668L15.2158 33.5312C14.8614 33.1353 14.346 32.9219 13.8154 32.9512L6.93164 33.332C6.78302 33.3401 6.65986 33.217 6.66797 33.0684L7.04883 26.1846C7.07807 25.654 6.86467 25.1386 6.46875 24.7842L1.33203 20.1865C1.22121 20.0872 1.22121 19.9128 1.33203 19.8135L6.46875 15.2158C6.86467 14.8614 7.07807 14.346 7.04883 13.8154L6.66797 6.93164C6.65986 6.78303 6.78303 6.65986 6.93164 6.66797L13.8154 7.04883C14.346 7.07807 14.8614 6.86467 15.2158 6.46875L19.8135 1.33203Z" stroke="#2A6C50" stroke-width="1.5"/>
<path d="M15.604 25.144C15.292 25.144 15.024 25.124 14.8 25.084C14.576 25.052 14.368 25.004 14.176 24.94V23.5H14.284C14.444 23.564 14.624 23.624 14.824 23.68C15.024 23.728 15.28 23.752 15.592 23.752C16.088 23.752 16.504 23.68 16.84 23.536C17.176 23.384 17.444 23.168 17.644 22.888C17.844 22.608 17.988 22.276 18.076 21.892C18.164 21.508 18.208 21.084 18.208 20.62C18.208 19.948 18.16 19.384 18.064 18.928C17.976 18.472 17.812 18.128 17.572 17.896C17.34 17.656 17 17.536 16.552 17.536C16.2 17.536 15.916 17.612 15.7 17.764C15.492 17.908 15.336 18.104 15.232 18.352C15.136 18.6 15.088 18.872 15.088 19.168C15.088 19.632 15.208 20.004 15.448 20.284C15.696 20.564 16.084 20.704 16.612 20.704C17.02 20.704 17.356 20.632 17.62 20.488C17.892 20.336 18.116 20.152 18.292 19.936H18.82V21.28H18.28C18.104 21.44 17.856 21.6 17.536 21.76C17.216 21.92 16.8 22 16.288 22C15.696 22 15.192 21.888 14.776 21.664C14.36 21.432 14.044 21.108 13.828 20.692C13.612 20.268 13.504 19.772 13.504 19.204C13.504 18.604 13.628 18.08 13.876 17.632C14.124 17.176 14.476 16.828 14.932 16.588C15.396 16.34 15.944 16.216 16.576 16.216C17.216 16.216 17.744 16.324 18.16 16.54C18.584 16.756 18.92 17.06 19.168 17.452C19.416 17.836 19.592 18.288 19.696 18.808C19.8 19.328 19.852 19.896 19.852 20.512C19.852 21.184 19.768 21.804 19.6 22.372C19.44 22.94 19.188 23.432 18.844 23.848C18.5 24.256 18.06 24.576 17.524 24.808C16.988 25.032 16.348 25.144 15.604 25.144ZM22.9985 25.144C22.6865 25.144 22.4185 25.124 22.1945 25.084C21.9705 25.052 21.7625 25.004 21.5705 24.94V23.5H21.6785C21.8385 23.564 22.0185 23.624 22.2185 23.68C22.4185 23.728 22.6745 23.752 22.9865 23.752C23.4825 23.752 23.8985 23.68 24.2345 23.536C24.5705 23.384 24.8385 23.168 25.0385 22.888C25.2385 22.608 25.3825 22.276 25.4705 21.892C25.5585 21.508 25.6025 21.084 25.6025 20.62C25.6025 19.948 25.5545 19.384 25.4585 18.928C25.3705 18.472 25.2065 18.128 24.9665 17.896C24.7345 17.656 24.3945 17.536 23.9465 17.536C23.5945 17.536 23.3105 17.612 23.0945 17.764C22.8865 17.908 22.7305 18.104 22.6265 18.352C22.5305 18.6 22.4825 18.872 22.4825 19.168C22.4825 19.632 22.6025 20.004 22.8425 20.284C23.0905 20.564 23.4785 20.704 24.0065 20.704C24.4145 20.704 24.7505 20.632 25.0145 20.488C25.2865 20.336 25.5105 20.152 25.6865 19.936H26.2145V21.28H25.6745C25.4985 21.44 25.2505 21.6 24.9305 21.76C24.6105 21.92 24.1945 22 23.6825 22C23.0905 22 22.5865 21.888 22.1705 21.664C21.7545 21.432 21.4385 21.108 21.2225 20.692C21.0065 20.268 20.8985 19.772 20.8985 19.204C20.8985 18.604 21.0225 18.08 21.2705 17.632C21.5185 17.176 21.8705 16.828 22.3265 16.588C22.7905 16.34 23.3385 16.216 23.9705 16.216C24.6105 16.216 25.1385 16.324 25.5545 16.54C25.9785 16.756 26.3145 17.06 26.5625 17.452C26.8105 17.836 26.9865 18.288 27.0905 18.808C27.1945 19.328 27.2465 19.896 27.2465 20.512C27.2465 21.184 27.1625 21.804 26.9945 22.372C26.8345 22.94 26.5825 23.432 26.2385 23.848C25.8945 24.256 25.4545 24.576 24.9185 24.808C24.3825 25.032 23.7425 25.144 22.9985 25.144Z" fill="#20533D"/>
</svg>
