<svg width="41" height="48" viewBox="0 0 41 48" fill="none" xmlns="http://www.w3.org/2000/svg">
<path d="M39.5264 20.978C39.8816 20.9782 40.1885 21.2859 40.1885 21.6411V43.4849C40.1885 45.6073 38.4682 47.3299 36.3711 47.3306V47.3315L36.3701 47.3306V47.3315H24.21C23.8546 47.3315 23.5479 47.0238 23.5479 46.6685C23.5479 46.2978 23.8707 46.0337 24.21 46.0337H36.3701C37.7548 46.0337 38.8916 44.8994 38.8916 43.4849V22.3032H24.1123V30.8081C24.1122 31.1633 23.8327 31.4427 23.4775 31.4429C23.1383 31.4429 22.8145 31.1787 22.8145 30.8081V21.6411C22.8145 21.2858 23.1222 20.978 23.4775 20.978H39.5264Z" fill="#2A6C50" stroke="#2A6C50" stroke-width="0.4"/>
<path d="M23.4849 25.957C25.7436 26.0397 27.9751 26.5907 30.1206 27.6641L30.4585 27.8232C33.9523 29.4187 37.4398 29.5009 39.3989 29.0371L39.4019 29.0361C39.7275 28.9638 39.9988 29.1505 40.1313 29.4082L40.1792 29.5225L40.1851 29.542C40.2645 29.8995 40.027 30.2479 39.6792 30.3252C38.9298 30.4917 38.0173 30.6016 36.9966 30.6016C34.8465 30.6016 32.2061 30.1337 29.5376 28.8408L29.5347 28.8389C27.5747 27.8454 25.535 27.3354 23.4429 27.2549V27.2539C23.0762 27.2495 22.8151 26.9297 22.8149 26.5928C22.8149 26.2221 23.1387 25.957 23.478 25.957H23.4849Z" fill="#2A6C50" stroke="#2A6C50" stroke-width="0.4"/>
<path d="M31.7729 30.7168C32.6995 30.717 33.4419 31.4601 33.4419 32.3867C33.4417 33.3156 32.724 34.0282 31.7729 34.0283C30.8736 34.0283 30.1306 33.286 30.1304 32.3867C30.1304 31.4921 30.8686 30.7168 31.7729 30.7168ZM31.7729 32.0146C31.7024 32.0146 31.6155 32.0524 31.5425 32.1279C31.4703 32.2025 31.4282 32.2974 31.4282 32.3867C31.4285 32.5754 31.5842 32.7305 31.7729 32.7305C31.9951 32.7303 32.1438 32.569 32.144 32.3867C32.144 32.1708 31.9888 32.0148 31.7729 32.0146Z" fill="#2A6C50" stroke="#2A6C50" stroke-width="0.4"/>
<path d="M36.2896 33.9277C37.2161 33.9279 37.9585 34.671 37.9585 35.5977C37.9582 36.524 37.216 37.2664 36.2896 37.2666C35.3878 37.2666 34.6472 36.5217 34.647 35.5977C34.647 34.6734 35.3876 33.9277 36.2896 33.9277ZM36.2896 35.2256C36.1131 35.2256 35.9448 35.396 35.9448 35.5977C35.945 35.6869 35.987 35.782 36.0591 35.8564C36.1321 35.9317 36.2191 35.9688 36.2896 35.9688C36.5053 35.9686 36.6604 35.8134 36.6606 35.5977C36.6606 35.3817 36.5054 35.2257 36.2896 35.2256Z" fill="#2A6C50" stroke="#2A6C50" stroke-width="0.4"/>
<path d="M34.7935 38.7163C35.7151 38.7165 36.4624 39.4274 36.4624 40.3589C36.4622 41.2853 35.7199 42.0277 34.7935 42.0278C33.8917 42.0278 33.1511 41.283 33.1509 40.3589C33.1509 39.4594 33.8939 38.7163 34.7935 38.7163ZM34.7935 40.0142C34.6046 40.0142 34.4487 40.17 34.4487 40.3589C34.4489 40.5812 34.611 40.73 34.7935 40.73C35.0092 40.7298 35.1644 40.5747 35.1646 40.3589C35.1646 40.1765 35.0158 40.0143 34.7935 40.0142Z" fill="#2A6C50" stroke="#2A6C50" stroke-width="0.4"/>
<path d="M30.3579 38.2793C31.6382 38.2793 32.6801 39.3213 32.6802 40.6016C32.6802 41.9075 31.6399 42.9512 30.3579 42.9512H2.80127C1.51929 42.9511 0.479004 41.9074 0.479004 40.6016C0.479087 39.3213 1.521 38.2794 2.80127 38.2793H30.3579ZM2.80127 39.5771C2.23167 39.5772 1.77694 40.032 1.77686 40.6016C1.77686 41.2013 2.23448 41.6532 2.80127 41.6533H30.3579C30.922 41.6533 31.3823 41.177 31.3823 40.6016C31.3822 40.0319 30.9276 39.5772 30.3579 39.5771H2.80127Z" fill="#2A6C50" stroke="#2A6C50" stroke-width="0.4"/>
<path d="M4.62451 41.6978C4.9568 41.5501 5.35373 41.6857 5.48584 42.0161H5.48682L6.46631 44.1919L6.46729 44.1929C6.7416 44.8101 6.96272 45.2748 7.21533 45.5874C7.45713 45.8866 7.71632 46.0336 8.07959 46.0337H25.0815C25.4393 46.0336 25.7062 45.8718 25.9517 45.562C26.2051 45.2421 26.4198 44.7831 26.6665 44.2212L27.6187 42.0444L27.6196 42.0435C27.767 41.7123 28.1493 41.539 28.481 41.6987L28.4819 41.6978C28.4831 41.6983 28.4837 41.7002 28.4849 41.7007C28.4863 41.7014 28.4883 41.7009 28.4897 41.7017L28.4888 41.7026C28.8148 41.8522 28.9854 42.2291 28.8276 42.5581L28.8286 42.5591L27.8765 44.7358L27.8755 44.7368C27.6468 45.248 27.3642 45.8941 26.939 46.4087C26.5073 46.9309 25.918 47.3315 25.0815 47.3315H8.07959C7.24525 47.3314 6.66267 46.9463 6.23291 46.4292C5.81086 45.9213 5.52747 45.2752 5.28564 44.7378L4.30615 42.561L4.30811 42.5601C4.1497 42.233 4.31527 41.8525 4.6167 41.7017L4.62451 41.6968V41.6978Z" fill="#2A6C50" stroke="#2A6C50" stroke-width="0.4"/>
<path d="M6.81055 34.8081C6.81052 34.9371 6.7803 35.1181 6.69531 35.2456L6.68945 35.2544L6.5293 35.1343L6.68848 35.2544C6.56935 35.4131 6.41054 35.4871 6.24121 35.521L6.23242 35.5229C5.74317 35.5963 5.3648 35.8355 5.12598 36.2651L5.12305 36.27C4.88421 36.6762 4.8586 37.1558 5.02832 37.5923H5.02637C5.10087 37.752 5.0958 37.9063 5.06543 38.0581L5.05957 38.0845L5.04785 38.1079C4.97173 38.2601 4.85282 38.376 4.6709 38.4487C4.31229 38.5923 4.05254 38.8538 3.91016 39.186L3.90527 39.1968L3.9043 39.1958C3.79066 39.423 3.56132 39.5786 3.29102 39.5786C3.24289 39.5786 3.14648 39.5808 3.04688 39.5337V39.5347C3.04563 39.5341 3.04421 39.5333 3.04297 39.5327C3.04147 39.532 3.03958 39.5315 3.03809 39.5308V39.5298C2.7097 39.3784 2.53876 38.9943 2.7041 38.6636C2.8953 38.2072 3.23139 37.8043 3.66602 37.5161C3.53714 36.8785 3.6346 36.1777 3.99219 35.6001C4.32126 35.0279 4.85329 34.5865 5.49219 34.3638C5.52942 33.7079 5.81467 33.0899 6.27441 32.603L6.27832 32.5991C6.76853 32.1089 7.39065 31.8219 8.07031 31.7856C8.29182 31.1467 8.73259 30.5875 9.31348 30.2808C9.8857 29.9538 10.5611 29.832 11.2217 29.9595C11.5524 29.4467 12.0526 29.0502 12.668 28.8628V28.8218L12.8291 28.7896C13.4962 28.6561 14.174 28.7217 14.7441 29.0171C15.2723 28.5583 15.8814 28.3228 16.5684 28.3228C17.2551 28.3228 17.8865 28.5817 18.3936 29.0181C18.9878 28.7217 19.6898 28.6548 20.3369 28.7896L20.4961 28.8228V28.8647C21.0896 29.052 21.6064 29.446 21.9404 29.9585C22.4944 29.8486 23.0742 29.9265 23.6045 30.1597L23.8477 30.2788L23.8506 30.2808C24.426 30.6096 24.8692 31.1442 25.0928 31.7856C25.7482 31.8228 26.3665 32.109 26.8545 32.5952L27.042 32.7915C27.42 33.2337 27.6191 33.7802 27.667 34.3618C28.3108 34.5848 28.8471 35.03 29.1768 35.6069C29.5035 36.179 29.6244 36.8538 29.4971 37.5142C29.8567 37.7501 30.1388 38.0839 30.3584 38.4536L30.458 38.6323L30.4648 38.644L30.2852 38.7241L30.2812 38.7261L30.4639 38.645C30.6197 38.9958 30.4583 39.3509 30.1533 39.5034L30.1455 39.5073C29.8203 39.6519 29.4235 39.5526 29.2588 39.2231L29.2568 39.2183C29.1033 38.8894 28.8809 38.6354 28.6162 38.5015L28.4932 38.4487C28.3113 38.376 28.1923 38.2601 28.1162 38.1079L28.1064 38.0884L28.1016 38.0669C28.0875 38.0105 28.07 37.9341 28.0654 37.853C28.0611 37.7749 28.0682 37.6801 28.1113 37.5874C28.3069 37.1228 28.2774 36.6474 28.0439 36.2739L28.0391 36.2651C27.8003 35.8354 27.4219 35.5964 26.9326 35.5229L26.9229 35.521C26.7561 35.4876 26.6089 35.4179 26.4941 35.3032L26.4717 35.2798L26.457 35.2515C26.3887 35.1147 26.3545 34.9749 26.3545 34.8081V34.7935L26.3564 34.7778C26.4278 34.3012 26.2618 33.8453 25.9463 33.5044C25.6115 33.1718 25.1348 33.0304 24.71 33.1011L24.709 33.0991C24.5327 33.1327 24.3237 33.1053 24.1816 32.9634V32.9624C24.0417 32.8483 23.9717 32.7038 23.9385 32.5708L23.9346 32.5571L23.9336 32.5425C23.8855 32.0615 23.5949 31.6306 23.2178 31.4185V31.4175C22.7797 31.1747 22.2769 31.1555 21.8779 31.3433L21.8672 31.3481C21.7817 31.3823 21.6949 31.4028 21.6025 31.4028C21.5103 31.4028 21.4233 31.3823 21.3379 31.3481L21.3301 31.3442L21.3223 31.3413C21.1701 31.2652 21.0542 31.1462 20.9814 30.9644L20.9766 30.9536V30.9526C20.8353 30.5297 20.482 30.1975 20.0303 30.0776L19.8477 30.0435C19.4223 29.9899 18.9945 30.1139 18.6797 30.3657C18.5462 30.4873 18.3557 30.5211 18.2002 30.4888C17.9965 30.4782 17.848 30.3573 17.7607 30.27L17.7471 30.2563L17.7373 30.2417C17.4749 29.86 17.0187 29.6206 16.5684 29.6206C16.1186 29.6207 15.686 29.8327 15.3672 30.2495L15.3594 30.2603L15.3496 30.27C15.3021 30.3175 15.2415 30.3698 15.1719 30.4116C15.1093 30.4491 15.0286 30.4828 14.9365 30.4888C14.7215 30.5274 14.5571 30.4334 14.4355 30.3423L14.4316 30.3394C14.0988 30.078 13.6181 29.9569 13.1348 30.0776L13.1338 30.0767C12.6846 30.1959 12.3269 30.5283 12.1582 30.9858L12.1543 30.9966L12.1494 31.0063C12.0754 31.1544 11.9606 31.2672 11.7871 31.3403C11.7841 31.3418 11.7813 31.3438 11.7783 31.3452C11.7764 31.346 11.7744 31.3474 11.7725 31.3481L11.7715 31.3472C11.6109 31.4214 11.4188 31.421 11.2598 31.3433L11.1045 31.2817C10.734 31.1627 10.3105 31.2079 9.98145 31.4136L9.93262 31.4438H9.90332C9.52747 31.6596 9.27844 32.0481 9.23145 32.5415L9.22949 32.5562L9.22559 32.5708C9.19059 32.7108 9.11708 32.8655 8.96191 32.9819C8.81157 33.0947 8.64771 33.1352 8.45703 33.0991V33.1011C8.00303 33.0294 7.55025 33.172 7.21484 33.5073C6.8811 33.8411 6.73553 34.3204 6.80762 34.7769L6.81055 34.7925V34.8081Z" fill="#2A6C50" stroke="#2A6C50" stroke-width="0.4"/>
<path d="M12.9126 31.1616C13.1624 30.8798 13.5925 30.8982 13.8521 31.1577C14.0988 31.4045 14.0838 31.7962 13.8618 32.0552L13.855 32.064L13.2837 32.6616C13.1446 32.8305 12.9377 32.8599 12.812 32.8599C12.6725 32.8598 12.5038 32.825 12.3716 32.6929C12.1049 32.4262 12.1053 32.0354 12.3345 31.7681L12.3413 31.7603L12.9126 31.1616Z" fill="#2A6C50" stroke="#2A6C50" stroke-width="0.4"/>
<path d="M9.66895 33.2627C9.90958 32.9819 10.3462 32.9798 10.5908 33.2549H10.5918L11.1865 33.877C11.4676 34.1581 11.4119 34.5513 11.1973 34.8018L11.1836 34.8184L11.166 34.832C11.0185 34.9427 10.8655 34.9805 10.7188 34.9805C10.5576 34.9804 10.3704 34.9056 10.251 34.7861L10.248 34.7832L10.3926 34.6445L10.248 34.7822L9.64941 34.1572L9.6416 34.1494L9.64258 34.1484C9.425 33.8946 9.40656 33.5102 9.6709 33.2627H9.66895Z" fill="#2A6C50" stroke="#2A6C50" stroke-width="0.4"/>
<path d="M16.4766 35.7314C16.7191 35.4576 17.1477 35.4595 17.3887 35.7002C17.6553 35.9668 17.6557 36.3577 17.4268 36.625L17.4199 36.6328L17.2744 36.4951L17.4189 36.6328L16.8477 37.2314L16.8447 37.2354C16.7253 37.3547 16.5381 37.4296 16.377 37.4297C16.2254 37.4297 16.062 37.388 15.9092 37.2354C15.6624 36.9886 15.6766 36.5969 15.8984 36.3379L15.9053 36.3291H15.9062L16.4766 35.7314Z" fill="#2A6C50" stroke="#2A6C50" stroke-width="0.4"/>
<path d="M20.9702 33.1113C21.0899 33.1184 21.212 33.1573 21.3159 33.2266L21.4136 33.3057L21.4194 33.3125L21.9907 33.9385L21.9946 33.9434C22.2145 34.1999 22.2321 34.6181 21.9565 34.8662L21.9575 34.8672C21.8253 34.9994 21.6566 35.0351 21.5171 35.0352C21.3204 35.0352 21.1689 34.9542 21.0425 34.8594L21.0259 34.8467L21.0122 34.8301L20.478 34.2139C20.2041 33.9399 20.2427 33.5168 20.5054 33.2803L20.5044 33.2783C20.6345 33.1483 20.8104 33.102 20.9702 33.1113Z" fill="#2A6C50" stroke="#2A6C50" stroke-width="0.4"/>
<path d="M18.1729 20.8691C19.3716 20.8692 20.3584 21.857 20.3584 23.0557C20.3583 24.2579 19.3679 25.2147 18.1729 25.2148H14.0918C13.7525 25.2148 13.4287 24.9498 13.4287 24.5791C13.4288 24.2238 13.7365 23.917 14.0918 23.917H18.1729C18.6609 23.9169 19.0341 23.5437 19.0342 23.0557C19.0342 22.5676 18.6609 22.1944 18.1729 22.1943H14.0918C13.7366 22.1943 13.4289 21.8874 13.4287 21.5322C13.4287 21.1769 13.7365 20.8691 14.0918 20.8691H18.1729Z" fill="#2A6C50" stroke="#2A6C50" stroke-width="0.4"/>
<path d="M14.0913 23.917C14.4466 23.9171 14.7534 24.2248 14.7534 24.5801C14.7532 24.9505 14.4304 25.2147 14.0913 25.2148H13.0298C12.8196 25.215 12.6315 25.3917 12.6313 25.6406V27.1641C12.6313 27.5346 12.3084 27.7996 11.9692 27.7998C11.6299 27.7998 11.3062 27.5348 11.3062 27.1641V25.6406C11.3063 24.6869 12.076 23.9171 13.0298 23.917H14.0913Z" fill="#2A6C50" stroke="#2A6C50" stroke-width="0.4"/>
<path d="M18.1724 17.7964C18.5277 17.7964 18.8345 18.1041 18.8345 18.4595C18.8343 18.8147 18.5276 19.1216 18.1724 19.1216H14.0913C13.6097 19.1216 13.23 19.5154 13.23 20.0103C13.2301 20.4983 13.6033 20.8716 14.0913 20.8716C14.4466 20.8717 14.7534 21.1784 14.7534 21.5337C14.7534 21.889 14.4465 22.1957 14.0913 22.1958C12.8926 22.1958 11.9049 21.2089 11.9048 20.0103C11.9048 18.7861 12.8908 17.7964 14.0913 17.7964H18.1724Z" fill="#2A6C50" stroke="#2A6C50" stroke-width="0.4"/>
<path d="M21.1357 17.7964C21.5064 17.7964 21.7715 18.1202 21.7715 18.4595C21.7713 18.7986 21.5063 19.1216 21.1357 19.1216H20.293C19.9378 19.1216 19.6301 18.8146 19.6299 18.4595C19.6299 18.1041 19.9376 17.7964 20.293 17.7964H21.1357Z" fill="#2A6C50" stroke="#2A6C50" stroke-width="0.4"/>
<path d="M31.5278 0.550293C31.7703 0.550293 32.0007 0.550567 32.2329 0.57959H32.2368C32.5047 0.618041 32.7478 0.816102 32.7876 1.13428H32.7866C32.8219 1.39138 32.7131 1.66871 32.439 1.79541L32.4399 1.79639C30.2185 3.01295 28.8442 5.34045 28.8442 7.8501C28.8443 11.3596 31.5 14.3224 34.9331 14.7446L35.2681 14.7778L35.2817 14.7788L35.3813 14.8003C35.5754 14.8581 35.7376 15.0003 35.8208 15.2026L35.856 15.3091L35.8579 15.3188L35.8599 15.3296C35.8982 15.5987 35.7796 15.8703 35.5161 16.021L35.5122 16.0229C34.3402 16.6647 32.9477 17.0255 31.5278 17.0259H31.5269L31.5259 17.0269L31.5249 17.0259C27.0076 17.0243 23.3032 13.3171 23.3032 8.7749C23.3032 4.22908 27.0121 0.550315 31.5278 0.550293ZM29.9849 2.02393C26.9031 2.74205 24.6011 5.49519 24.6011 8.7749C24.6011 12.609 27.7216 15.7015 31.5278 15.7017C32.0088 15.7017 32.4626 15.6641 32.9067 15.5776C29.7668 14.3988 27.5483 11.3441 27.5483 7.8501C27.5484 5.6335 28.437 3.55472 29.9849 2.02393Z" fill="#2A6C50" stroke="#2A6C50" stroke-width="0.4"/>
<path d="M34.2759 3.75928C34.5461 3.75928 34.7765 3.91487 34.8901 4.14209L34.894 4.14893H34.8931L35.6899 5.896L37.5923 6.12842H37.5962C37.821 6.16054 38.0061 6.28304 38.103 6.47607L38.1392 6.56299L38.1421 6.5708H38.1411C38.218 6.83986 38.1352 7.07671 37.9546 7.25732L37.9478 7.26416L37.9468 7.26318L36.5347 8.54834L36.9204 10.4224L36.9224 10.4292C36.9629 10.6725 36.8448 10.9322 36.6597 11.0806C36.4474 11.2504 36.1691 11.2371 35.9556 11.1304L35.9438 11.1245L34.2759 10.1489L32.6089 11.1245L32.5903 11.1353L32.5708 11.1421C32.496 11.167 32.3829 11.2064 32.2632 11.2065C32.1347 11.2065 32.0145 11.1631 31.9067 11.0913C31.6654 10.9303 31.5929 10.6538 31.6304 10.4292L31.6313 10.4194H31.6323L32.0415 8.54639L30.606 7.26514L30.5972 7.25732L30.5981 7.25635C30.5052 7.16341 30.4431 7.05513 30.4175 6.93213C30.3923 6.81103 30.4043 6.68856 30.438 6.5708L30.4399 6.56299H30.4409C30.5219 6.31997 30.7261 6.16511 30.9829 6.12842H30.9868L32.8882 5.896L33.686 4.14893L33.689 4.14209L33.7358 4.06201C33.8567 3.88312 34.0577 3.75938 34.2759 3.75928ZM33.9419 6.76123L33.938 6.77002C33.8231 6.99967 33.6259 7.11402 33.4106 7.1499L33.4038 7.15088L32.5601 7.2583L33.2114 7.83643L33.2202 7.84424V7.84521C33.3751 8.00016 33.4503 8.22829 33.4126 8.45459L33.4106 8.46533L33.2349 9.25244L33.9604 8.84619V8.84717C34.0921 8.76471 34.2213 8.76611 34.2759 8.76611C34.351 8.76611 34.4842 8.76322 34.6177 8.84619H34.6187L35.3433 9.25244L35.1694 8.46533L35.1665 8.45459V8.45361C35.1292 8.22771 35.2043 7.99993 35.3589 7.84521L35.3677 7.83643L36.0171 7.2583L35.1489 7.15088L35.1421 7.1499L35.1343 7.14893C34.9459 7.11114 34.7537 6.99518 34.6411 6.77002L34.6392 6.76514L34.2808 5.99463L33.9419 6.76123Z" fill="#2A6C50" stroke="#2A6C50" stroke-width="0.4"/>
</svg>
