<svg width="42" height="42" viewBox="0 0 42 42" fill="none" xmlns="http://www.w3.org/2000/svg">
<mask id="path-1-outside-1_512_3392" maskUnits="userSpaceOnUse" x="0" y="0" width="42" height="42" fill="black">
<rect fill="white" width="42" height="42"/>
<path d="M36.3333 26.3333H33.6667V24.1368C35.5918 23.5614 37 21.7764 37 19.6667V15.6667C37 13.0934 34.9066 11 32.3333 11H31.6667V5C31.6667 4.6888 31.4512 4.41895 31.1478 4.34993L16.4811 1.0166C16.3835 0.994467 16.2832 0.994467 16.1855 1.0166L1.51888 4.34993C1.21549 4.41895 1 4.6888 1 5V33.6667C1 34.0348 1.2985 34.3333 1.66667 34.3333H21V40.3333C21 40.7015 21.2985 41 21.6667 41H40.3333C40.7015 41 41 40.7015 41 40.3333V31C41 28.4268 38.9066 26.3333 36.3333 26.3333ZM9.66667 33H5V16.9261L9.66667 15.8656V33ZM15.6667 17.1345L13.6667 17.5889V14.9564L15.6667 14.5018V17.1345ZM15.6667 13.1345L12.8522 13.7741C12.5488 13.8431 12.3333 14.113 12.3333 14.4242V18.4242C12.3333 18.627 12.4258 18.8187 12.584 18.9453C12.7428 19.0716 12.9482 19.1191 13.1478 19.0742L15.6667 18.5018V33H11V15.0303C11 14.8275 10.9076 14.6357 10.7493 14.5091C10.5905 14.3828 10.3825 14.3353 10.1855 14.3802L4.18555 15.7438C3.88216 15.8128 3.66667 16.0827 3.66667 16.3939V33H2.33333V13.5321L15.6667 10.5018V13.1345ZM15.6667 9.13452L2.33333 12.1647V9.53223L15.6667 6.50179V9.13452ZM15.6667 5.13452L2.33333 8.16483V5.53223L15.6667 2.50179V5.13452ZM35.6667 19.6667C35.6667 21.5046 34.1712 23 32.3333 23H29.6667C27.8288 23 26.3333 21.5046 26.3333 19.6667V16.9308C27.0525 16.7846 27.6993 16.406 28.1813 15.8421C29.8584 16.4795 32.1416 16.4795 33.8187 15.8421C34.3006 16.4059 34.9476 16.7829 35.6667 16.9288L35.6667 19.6667ZM35.6527 15.5287C35.2305 15.3733 34.8621 15.0872 34.6195 14.6777C34.4417 14.3779 34.0628 14.265 33.751 14.4196C32.2334 15.1683 29.7666 15.1683 28.249 14.4196C27.9368 14.2659 27.5579 14.3783 27.3805 14.6777C27.1378 15.0874 26.7692 15.3739 26.3471 15.5303C26.4205 13.7568 27.8755 12.3333 29.6667 12.3333H32.3333C34.124 12.3333 35.5785 13.7559 35.6527 15.5287ZM17 2.50179L30.3333 5.53223V8.16483L17 5.13452V2.50179ZM17 6.50179L30.3333 9.53215V11H29.6667C28.8936 11 28.1655 11.1919 27.5228 11.526L17 9.13452V6.50179ZM17 10.5018L26.1705 12.586C25.5913 13.2426 25.1956 14.0613 25.0585 14.9659L17 13.1345V10.5018ZM17 14.5018L25 16.3199V18.9526L17 17.1345V14.5018ZM17 33V18.5018L25.0553 20.3325C25.3162 22.144 26.6151 23.6233 28.3333 24.1368V26.3333H25.6667C23.0934 26.3333 21 28.4268 21 31V33H17ZM25.6667 31.6667C25.2985 31.6667 25 31.9652 25 32.3333V39.6667H22.3333V31C22.3333 29.1621 23.8288 27.6667 25.6667 27.6667H29C29.3682 27.6667 29.6667 27.3682 29.6667 27V24.3333H32.3333V27C32.3333 27.3682 32.6318 27.6667 33 27.6667H36.3228C33.3972 31.028 29.4762 32.9515 26.3333 34.0237V32.3333C26.3333 31.9652 26.0348 31.6667 25.6667 31.6667ZM39.6667 33.2797C37.8977 35.5988 35.3631 37.0721 35.3356 37.0882C35.0163 37.2712 34.9056 37.6784 35.0882 37.9977C35.2113 38.2129 35.4362 38.3333 35.6673 38.3333C35.7796 38.3333 35.8932 38.305 35.9974 38.2454C36.099 38.1874 37.9403 37.1185 39.6667 35.3209V39.6667H26.3333V38.7825C29.6714 37.9658 32.5051 36.6498 34.7497 34.8539C35.0374 34.624 35.084 34.2044 34.8538 33.917C34.6234 33.6286 34.2031 33.5827 33.917 33.8128C31.8961 35.4296 29.3423 36.631 26.3333 37.4052V35.4184C31.1915 33.8388 35.1117 31.2873 37.7638 28.002C38.8848 28.5396 39.6667 29.6761 39.6667 31L39.6667 33.2797Z"/>
</mask>
<path d="M36.3333 26.3333H33.6667V24.1368C35.5918 23.5614 37 21.7764 37 19.6667V15.6667C37 13.0934 34.9066 11 32.3333 11H31.6667V5C31.6667 4.6888 31.4512 4.41895 31.1478 4.34993L16.4811 1.0166C16.3835 0.994467 16.2832 0.994467 16.1855 1.0166L1.51888 4.34993C1.21549 4.41895 1 4.6888 1 5V33.6667C1 34.0348 1.2985 34.3333 1.66667 34.3333H21V40.3333C21 40.7015 21.2985 41 21.6667 41H40.3333C40.7015 41 41 40.7015 41 40.3333V31C41 28.4268 38.9066 26.3333 36.3333 26.3333ZM9.66667 33H5V16.9261L9.66667 15.8656V33ZM15.6667 17.1345L13.6667 17.5889V14.9564L15.6667 14.5018V17.1345ZM15.6667 13.1345L12.8522 13.7741C12.5488 13.8431 12.3333 14.113 12.3333 14.4242V18.4242C12.3333 18.627 12.4258 18.8187 12.584 18.9453C12.7428 19.0716 12.9482 19.1191 13.1478 19.0742L15.6667 18.5018V33H11V15.0303C11 14.8275 10.9076 14.6357 10.7493 14.5091C10.5905 14.3828 10.3825 14.3353 10.1855 14.3802L4.18555 15.7438C3.88216 15.8128 3.66667 16.0827 3.66667 16.3939V33H2.33333V13.5321L15.6667 10.5018V13.1345ZM15.6667 9.13452L2.33333 12.1647V9.53223L15.6667 6.50179V9.13452ZM15.6667 5.13452L2.33333 8.16483V5.53223L15.6667 2.50179V5.13452ZM35.6667 19.6667C35.6667 21.5046 34.1712 23 32.3333 23H29.6667C27.8288 23 26.3333 21.5046 26.3333 19.6667V16.9308C27.0525 16.7846 27.6993 16.406 28.1813 15.8421C29.8584 16.4795 32.1416 16.4795 33.8187 15.8421C34.3006 16.4059 34.9476 16.7829 35.6667 16.9288L35.6667 19.6667ZM35.6527 15.5287C35.2305 15.3733 34.8621 15.0872 34.6195 14.6777C34.4417 14.3779 34.0628 14.265 33.751 14.4196C32.2334 15.1683 29.7666 15.1683 28.249 14.4196C27.9368 14.2659 27.5579 14.3783 27.3805 14.6777C27.1378 15.0874 26.7692 15.3739 26.3471 15.5303C26.4205 13.7568 27.8755 12.3333 29.6667 12.3333H32.3333C34.124 12.3333 35.5785 13.7559 35.6527 15.5287ZM17 2.50179L30.3333 5.53223V8.16483L17 5.13452V2.50179ZM17 6.50179L30.3333 9.53215V11H29.6667C28.8936 11 28.1655 11.1919 27.5228 11.526L17 9.13452V6.50179ZM17 10.5018L26.1705 12.586C25.5913 13.2426 25.1956 14.0613 25.0585 14.9659L17 13.1345V10.5018ZM17 14.5018L25 16.3199V18.9526L17 17.1345V14.5018ZM17 33V18.5018L25.0553 20.3325C25.3162 22.144 26.6151 23.6233 28.3333 24.1368V26.3333H25.6667C23.0934 26.3333 21 28.4268 21 31V33H17ZM25.6667 31.6667C25.2985 31.6667 25 31.9652 25 32.3333V39.6667H22.3333V31C22.3333 29.1621 23.8288 27.6667 25.6667 27.6667H29C29.3682 27.6667 29.6667 27.3682 29.6667 27V24.3333H32.3333V27C32.3333 27.3682 32.6318 27.6667 33 27.6667H36.3228C33.3972 31.028 29.4762 32.9515 26.3333 34.0237V32.3333C26.3333 31.9652 26.0348 31.6667 25.6667 31.6667ZM39.6667 33.2797C37.8977 35.5988 35.3631 37.0721 35.3356 37.0882C35.0163 37.2712 34.9056 37.6784 35.0882 37.9977C35.2113 38.2129 35.4362 38.3333 35.6673 38.3333C35.7796 38.3333 35.8932 38.305 35.9974 38.2454C36.099 38.1874 37.9403 37.1185 39.6667 35.3209V39.6667H26.3333V38.7825C29.6714 37.9658 32.5051 36.6498 34.7497 34.8539C35.0374 34.624 35.084 34.2044 34.8538 33.917C34.6234 33.6286 34.2031 33.5827 33.917 33.8128C31.8961 35.4296 29.3423 36.631 26.3333 37.4052V35.4184C31.1915 33.8388 35.1117 31.2873 37.7638 28.002C38.8848 28.5396 39.6667 29.6761 39.6667 31L39.6667 33.2797Z" fill="#2A6C50"/>
<path d="M36.3333 26.3333H33.6667V24.1368C35.5918 23.5614 37 21.7764 37 19.6667V15.6667C37 13.0934 34.9066 11 32.3333 11H31.6667V5C31.6667 4.6888 31.4512 4.41895 31.1478 4.34993L16.4811 1.0166C16.3835 0.994467 16.2832 0.994467 16.1855 1.0166L1.51888 4.34993C1.21549 4.41895 1 4.6888 1 5V33.6667C1 34.0348 1.2985 34.3333 1.66667 34.3333H21V40.3333C21 40.7015 21.2985 41 21.6667 41H40.3333C40.7015 41 41 40.7015 41 40.3333V31C41 28.4268 38.9066 26.3333 36.3333 26.3333ZM9.66667 33H5V16.9261L9.66667 15.8656V33ZM15.6667 17.1345L13.6667 17.5889V14.9564L15.6667 14.5018V17.1345ZM15.6667 13.1345L12.8522 13.7741C12.5488 13.8431 12.3333 14.113 12.3333 14.4242V18.4242C12.3333 18.627 12.4258 18.8187 12.584 18.9453C12.7428 19.0716 12.9482 19.1191 13.1478 19.0742L15.6667 18.5018V33H11V15.0303C11 14.8275 10.9076 14.6357 10.7493 14.5091C10.5905 14.3828 10.3825 14.3353 10.1855 14.3802L4.18555 15.7438C3.88216 15.8128 3.66667 16.0827 3.66667 16.3939V33H2.33333V13.5321L15.6667 10.5018V13.1345ZM15.6667 9.13452L2.33333 12.1647V9.53223L15.6667 6.50179V9.13452ZM15.6667 5.13452L2.33333 8.16483V5.53223L15.6667 2.50179V5.13452ZM35.6667 19.6667C35.6667 21.5046 34.1712 23 32.3333 23H29.6667C27.8288 23 26.3333 21.5046 26.3333 19.6667V16.9308C27.0525 16.7846 27.6993 16.406 28.1813 15.8421C29.8584 16.4795 32.1416 16.4795 33.8187 15.8421C34.3006 16.4059 34.9476 16.7829 35.6667 16.9288L35.6667 19.6667ZM35.6527 15.5287C35.2305 15.3733 34.8621 15.0872 34.6195 14.6777C34.4417 14.3779 34.0628 14.265 33.751 14.4196C32.2334 15.1683 29.7666 15.1683 28.249 14.4196C27.9368 14.2659 27.5579 14.3783 27.3805 14.6777C27.1378 15.0874 26.7692 15.3739 26.3471 15.5303C26.4205 13.7568 27.8755 12.3333 29.6667 12.3333H32.3333C34.124 12.3333 35.5785 13.7559 35.6527 15.5287ZM17 2.50179L30.3333 5.53223V8.16483L17 5.13452V2.50179ZM17 6.50179L30.3333 9.53215V11H29.6667C28.8936 11 28.1655 11.1919 27.5228 11.526L17 9.13452V6.50179ZM17 10.5018L26.1705 12.586C25.5913 13.2426 25.1956 14.0613 25.0585 14.9659L17 13.1345V10.5018ZM17 14.5018L25 16.3199V18.9526L17 17.1345V14.5018ZM17 33V18.5018L25.0553 20.3325C25.3162 22.144 26.6151 23.6233 28.3333 24.1368V26.3333H25.6667C23.0934 26.3333 21 28.4268 21 31V33H17ZM25.6667 31.6667C25.2985 31.6667 25 31.9652 25 32.3333V39.6667H22.3333V31C22.3333 29.1621 23.8288 27.6667 25.6667 27.6667H29C29.3682 27.6667 29.6667 27.3682 29.6667 27V24.3333H32.3333V27C32.3333 27.3682 32.6318 27.6667 33 27.6667H36.3228C33.3972 31.028 29.4762 32.9515 26.3333 34.0237V32.3333C26.3333 31.9652 26.0348 31.6667 25.6667 31.6667ZM39.6667 33.2797C37.8977 35.5988 35.3631 37.0721 35.3356 37.0882C35.0163 37.2712 34.9056 37.6784 35.0882 37.9977C35.2113 38.2129 35.4362 38.3333 35.6673 38.3333C35.7796 38.3333 35.8932 38.305 35.9974 38.2454C36.099 38.1874 37.9403 37.1185 39.6667 35.3209V39.6667H26.3333V38.7825C29.6714 37.9658 32.5051 36.6498 34.7497 34.8539C35.0374 34.624 35.084 34.2044 34.8538 33.917C34.6234 33.6286 34.2031 33.5827 33.917 33.8128C31.8961 35.4296 29.3423 36.631 26.3333 37.4052V35.4184C31.1915 33.8388 35.1117 31.2873 37.7638 28.002C38.8848 28.5396 39.6667 29.6761 39.6667 31L39.6667 33.2797Z" stroke="#2A6C50" stroke-width="0.6" mask="url(#path-1-outside-1_512_3392)"/>
</svg>
