<svg width="40" height="40" viewBox="0 0 40 40" fill="none" xmlns="http://www.w3.org/2000/svg">
<path d="M19.8135 1.33203C19.9128 1.22121 20.0872 1.22121 20.1865 1.33203L24.7842 6.46875C25.1386 6.86467 25.654 7.07807 26.1846 7.04883L33.0684 6.66797C33.217 6.65986 33.3401 6.78302 33.332 6.93164L32.9512 13.8154C32.9219 14.346 33.1353 14.8614 33.5312 15.2158L38.668 19.8135C38.7788 19.9128 38.7788 20.0872 38.668 20.1865L33.5312 24.7842C33.1353 25.1386 32.9219 25.654 32.9512 26.1846L33.332 33.0684C33.3401 33.217 33.217 33.3401 33.0684 33.332L26.1846 32.9512C25.654 32.9219 25.1386 33.1353 24.7842 33.5312L20.1865 38.668C20.0872 38.7788 19.9128 38.7788 19.8135 38.668L15.2158 33.5312C14.8614 33.1353 14.346 32.9219 13.8154 32.9512L6.93164 33.332C6.78302 33.3401 6.65986 33.217 6.66797 33.0684L7.04883 26.1846C7.07807 25.654 6.86467 25.1386 6.46875 24.7842L1.33203 20.1865C1.22121 20.0872 1.22121 19.9128 1.33203 19.8135L6.46875 15.2158C6.86467 14.8614 7.07807 14.346 7.04883 13.8154L6.66797 6.93164C6.65986 6.78303 6.78303 6.65986 6.93164 6.66797L13.8154 7.04883C14.346 7.07807 14.8614 6.86467 15.2158 6.46875L19.8135 1.33203Z" stroke="#2A6C50" stroke-width="1.5"/>
<path d="M20.816 25.144C20.184 25.144 19.656 25.036 19.232 24.82C18.808 24.604 18.472 24.304 18.224 23.92C17.976 23.528 17.8 23.072 17.696 22.552C17.592 22.024 17.54 21.456 17.54 20.848C17.54 20.168 17.62 19.548 17.78 18.988C17.948 18.42 18.204 17.932 18.548 17.524C18.892 17.108 19.332 16.788 19.868 16.564C20.412 16.332 21.052 16.216 21.788 16.216C22.1 16.216 22.368 16.236 22.592 16.276C22.816 16.308 23.024 16.356 23.216 16.42V17.86H23.108C22.956 17.796 22.776 17.74 22.568 17.692C22.368 17.636 22.112 17.608 21.8 17.608C21.304 17.608 20.888 17.684 20.552 17.836C20.216 17.98 19.948 18.192 19.748 18.472C19.548 18.752 19.404 19.084 19.316 19.468C19.228 19.844 19.184 20.268 19.184 20.74C19.184 21.412 19.228 21.976 19.316 22.432C19.412 22.888 19.576 23.236 19.808 23.476C20.048 23.708 20.392 23.824 20.84 23.824C21.192 23.824 21.472 23.752 21.68 23.608C21.896 23.456 22.052 23.256 22.148 23.008C22.252 22.76 22.304 22.488 22.304 22.192C22.304 21.728 22.18 21.356 21.932 21.076C21.692 20.796 21.308 20.656 20.78 20.656C20.372 20.656 20.032 20.732 19.76 20.884C19.496 21.028 19.276 21.208 19.1 21.424H18.572V20.08H19.112C19.288 19.912 19.536 19.752 19.856 19.6C20.176 19.44 20.592 19.36 21.104 19.36C21.696 19.36 22.2 19.476 22.616 19.708C23.032 19.932 23.348 20.256 23.564 20.68C23.78 21.096 23.888 21.588 23.888 22.156C23.888 22.756 23.764 23.284 23.516 23.74C23.268 24.188 22.912 24.536 22.448 24.784C21.992 25.024 21.448 25.144 20.816 25.144Z" fill="#20533D"/>
</svg>
