<svg width="41" height="41" viewBox="0 0 41 41" fill="none" xmlns="http://www.w3.org/2000/svg">
<path d="M40.3818 39.7575H26.8708C27.5117 39.2167 28.0157 38.5355 28.3425 37.7683C28.6694 37.001 28.8101 36.169 28.7534 35.3386C28.759 34.035 28.2702 32.7765 27.3833 31.8108C26.4964 30.845 25.2755 30.2417 23.9607 30.1198L17.8387 29.5404V27.2617C18.4185 27.0002 18.9473 26.6404 19.4012 26.1985L24.7648 20.8945C24.8266 20.832 24.8745 20.7574 24.9056 20.6756C24.9367 20.5939 24.9503 20.5066 24.9454 20.4193C24.9406 20.3321 24.9175 20.2468 24.8775 20.1689C24.8376 20.0909 24.7817 20.022 24.7134 19.9665L26.0676 18.5077C27.4788 17.145 26.6637 14.266 24.617 14.1989C24.4365 14.1969 24.2574 14.2304 24.0902 14.2975C23.923 14.3646 23.7709 14.4639 23.643 14.5896L21.449 16.7555C21.3307 16.6427 21.1724 16.5802 21.008 16.5813C20.8437 16.5825 20.6863 16.6473 20.5697 16.7617L17.5063 19.7784C16.9409 17.9157 15.6496 16.3507 13.9162 15.4271L14.4339 13.3286C16.3568 12.8328 17.7652 11.1683 17.7432 9.15453C17.7266 7.7544 17.8961 4.30047 17.3118 3.51353C14.5413 -2.55128 6.15052 -0.221358 6.44447 6.35936C6.44281 6.35867 6.44447 7.60818 6.44447 7.60844C6.43695 9.66069 7.65467 11.3891 9.94671 12.6445L9.42839 14.6848C7.72421 14.9477 6.17194 15.8049 5.05322 17.101C3.93451 18.397 3.32347 20.046 3.33098 21.7488V28.8381C3.33196 30.0886 3.64798 31.3192 4.25059 32.4192C4.85319 33.5191 5.72346 34.4538 6.78303 35.1391H3.86189C3.23902 35.137 2.6314 35.3292 2.12579 35.6883C1.62017 36.0474 1.24242 36.5551 1.04646 37.1387L0.0217105 40.1828C-0.0974643 40.6963 0.298095 41.0063 0.620645 40.9999H5.51521C14.2089 40.9994 31.7088 40.9999 40.3818 40.9999C41.1771 40.9937 41.2345 39.7735 40.3818 39.7575ZM24.5387 15.462C24.5515 15.4489 24.6035 15.4459 24.6272 15.4407C25.5673 15.6099 25.8066 17.0328 25.1396 17.6677L23.8185 19.091L22.3402 17.6323L24.5387 15.462ZM12.6781 15.1944C11.9944 15.2644 11.304 15.161 10.672 14.8942L11.1024 13.2C11.7374 13.4343 12.4126 13.5443 13.0902 13.5238L12.6781 15.1944ZM11.2519 1.36081C12.728 1.0297 14.7423 1.42667 15.8981 3.4834L7.70617 5.55939C7.86495 3.18311 9.52859 1.74742 11.2519 1.36081ZM7.70267 6.84316L16.3666 4.64755C16.5983 5.86503 16.4453 7.92047 16.4852 9.18034C16.5343 11.8781 13.1204 13.0406 10.9787 11.7901C6.9467 9.83271 7.82264 7.26318 7.70267 6.84316ZM4.58918 28.8381V21.7488C4.58201 20.31 5.10883 18.9185 6.07011 17.8371C7.03139 16.7557 8.36057 16.0592 9.80655 15.8793C10.8215 16.4027 11.9809 16.5874 13.1112 16.4058C14.8496 17.2281 16.0985 18.8891 16.4573 20.819L15.6467 21.6189L12.0542 18.1615C11.4573 17.5869 10.5798 18.4782 11.1754 19.0506L15.2129 22.9362C15.3314 23.0503 15.4907 23.1136 15.6562 23.1126C15.8217 23.1115 15.9801 23.0462 16.0972 22.9307C16.1132 22.8679 20.9499 18.1414 21.0134 18.079L23.3935 20.4282C23.3986 20.4333 23.4204 20.4549 23.4258 20.4598L18.5152 25.3164C17.7561 26.0654 16.7268 26.4861 15.6535 26.4861C14.5802 26.4861 13.5509 26.0654 12.7918 25.3164L8.20735 20.7908C8.08811 20.6804 7.93007 20.6202 7.76666 20.6228C7.60324 20.6254 7.44726 20.6907 7.3317 20.8048C7.21613 20.9189 7.15004 21.0728 7.14739 21.2342C7.14475 21.3955 7.20576 21.5515 7.31752 21.6692L11.9019 26.1949C12.507 26.7891 13.2478 27.2309 14.062 27.4831C14.8762 27.7353 15.74 27.7906 16.5804 27.6443V30.1051C16.5804 30.2596 16.6388 30.4086 16.744 30.5229C16.8493 30.6373 16.9939 30.7088 17.1497 30.7236L23.8401 31.3568C25.9237 31.5553 27.4949 33.2671 27.4965 35.3847C27.7151 37.6479 25.7681 39.8251 23.4462 39.7575H6.39018L7.52981 36.3821H21.8895C22.707 36.3794 22.7165 35.1434 21.8895 35.1397C21.8895 35.1397 10.9736 35.1397 10.9735 35.1397C9.28094 35.138 7.65821 34.4735 6.46132 33.2922C5.26443 32.1108 4.59114 30.5089 4.58918 28.8381ZM2.24109 37.5301C2.35708 37.1963 2.57545 36.9064 2.86589 36.7007C3.15633 36.495 3.50443 36.3836 3.86189 36.3821H6.20306L5.06351 39.7575H1.49089L2.24109 37.5301Z" fill="#2A6C50"/>
</svg>
