<svg width="63" height="34" viewBox="0 0 63 34" fill="none" xmlns="http://www.w3.org/2000/svg">
<path d="M17.9238 3.83887C21.4105 0.810243 26.9665 -0.000329778 32.7637 1.61426H32.7656C45.8082 5.36331 50.9942 13.1404 49.7861 19.5898L54.1074 20.0596C54.2399 19.7436 54.5429 19.5098 54.918 19.5098C55.0089 19.5098 55.8319 19.5178 56.8506 19.7842C57.8687 20.0505 59.1033 20.5806 59.9902 21.6406H59.9912C62.0191 24.0756 61.8023 28.0324 59.5166 30.1318C58.8987 30.6972 58.1459 31.0579 57.4092 31.29H61.1064V31.291C61.3921 31.2974 61.6187 31.4085 61.7705 31.585C61.919 31.7578 61.9848 31.9798 61.9805 32.1934C61.9718 32.619 61.6735 33.0723 61.1016 33.0723H1.67578C1.39133 33.068 1.16491 32.9577 1.0127 32.7822C0.86388 32.6105 0.796578 32.3893 0.799805 32.1758C0.806269 31.7494 1.10331 31.2945 1.67773 31.29H3.07812C2.22975 30.6954 1.71185 29.6795 1.80469 28.5713L2.28125 23.0156C2.44976 21.02 4.20428 19.5288 6.21484 19.7041H6.21777L9.17871 20C9.20455 19.8114 9.27605 19.6322 9.39355 19.4873C9.56234 19.2793 9.81813 19.151 10.1309 19.1641H10.1357V19.165L17.0391 19.6289C16.4548 17.7321 15.3984 14.0188 14.9756 10.7949V10.7939C14.6478 8.27729 15.7336 5.74038 17.9238 3.83887ZM8.72559 26.4014C8.16086 26.4571 7.66431 26.893 7.5625 27.4824L7.05176 30.4873L7.04102 30.5508L7.02832 30.5625C6.96865 30.843 6.84198 31.0919 6.66699 31.2979H19.4053C14.7855 30.5524 9.57796 29.4055 9.27637 29.3359C8.85201 29.2387 8.54713 28.8479 8.58301 28.3994L8.72559 26.4014ZM39.29 24.5107C39.6365 25.0159 39.9649 25.4857 40.2275 25.8545C40.5601 26.3214 40.7924 26.6393 40.8018 26.6533H40.8008C40.9542 26.8745 40.9896 27.1355 40.9336 27.373C40.9507 27.3825 40.9701 27.3945 40.9951 27.4043C41.071 27.4341 41.1692 27.4582 41.2852 27.4766C41.4527 27.5031 41.6327 27.5152 41.8105 27.5283V27.5264L42.0215 27.5391C43.1619 27.6051 44.2441 28.268 44.9365 29.0664C45.2838 29.4668 45.5429 29.9114 45.6602 30.3477C45.7464 30.6688 45.7563 30.9936 45.6611 31.29H53.6094C53.5719 31.2302 53.5422 31.1659 53.5205 31.0977C51.1591 31.2351 48.893 30.9539 46.1289 28.958L46.125 28.9551C45.4943 28.4755 45.1873 27.7844 45.0752 27.0156C44.9793 26.3581 45.0242 25.6327 45.1338 24.9082C44.3675 25.1685 43.3558 25.1795 42.3203 25.0732C41.3017 24.9687 40.2308 24.7456 39.29 24.5107ZM36.5068 31.126C36.4224 31.1904 36.331 31.2466 36.2344 31.29H36.6768C36.6187 31.2382 36.5618 31.1838 36.5068 31.126ZM30.2275 25.043C30.0352 26.7142 29.7689 28.0913 29.2285 29.1729C28.7674 30.0958 28.1102 30.797 27.1523 31.29H35.4502C35.3584 31.2421 35.2699 31.1759 35.1885 31.0869L34.8818 30.752H34.9043C34.0853 29.8105 32.0138 27.3915 30.2275 25.043ZM37.9062 30.0049C38.2548 30.2787 38.6745 30.2812 38.749 30.2812L43.5166 30.1533C43.1669 29.753 42.6183 29.3803 41.8662 29.3125C41.3788 29.2816 40.9162 29.2467 40.5186 29.1377C40.1793 29.0447 39.8766 28.8946 39.6367 28.6406L37.9062 30.0049ZM32.2832 3.32617C27.0158 1.85844 22.0908 2.56966 19.0908 5.17773C17.4431 6.6101 16.5968 8.424 16.7051 10.2012L16.7402 10.5557L16.8594 11.3721C17.1683 13.2996 17.6782 15.3642 18.1377 17.0264C18.4 17.975 18.6452 18.7909 18.8262 19.373C18.9167 19.6641 18.9916 19.8973 19.0439 20.0586C19.07 20.139 19.0901 20.2018 19.1045 20.2451C19.1185 20.2874 19.1252 20.3073 19.126 20.3096L19.127 20.3115C19.3301 20.8703 18.9101 21.4575 18.3428 21.4922L18.2275 21.4912L10.9014 21L10.4102 27.7588C12.8267 28.2786 20.4184 29.8543 24.2178 30.1094H24.2168C25.1612 30.156 25.8823 29.9984 26.4395 29.6816C26.9958 29.3653 27.4073 28.8791 27.7129 28.2354C28.325 26.9453 28.498 25.0589 28.5752 22.7559C28.2366 22.2457 27.9405 21.7671 27.71 21.3408C27.4726 20.9019 27.2979 20.507 27.2227 20.1836C27.0479 19.4367 27.2946 18.718 27.7451 18.0713C28.195 17.4255 28.8614 16.831 29.5693 16.3145C30.9863 15.2806 32.616 14.5291 33.1621 14.2891L33.1641 14.2881C33.4228 14.179 33.6729 14.1891 33.8818 14.2871C34.0863 14.3831 34.2381 14.5566 34.3232 14.752C34.4084 14.9475 34.4317 15.1774 34.3633 15.3926C34.2934 15.6122 34.1328 15.8032 33.8779 15.9189L33.875 15.9199C32.7908 16.3953 31.4774 17.1183 30.4727 17.8643C29.9694 18.2378 29.5523 18.6114 29.2793 18.9551C29 19.3068 28.9075 19.5826 28.9521 19.7803C28.9894 19.9368 29.0811 20.1579 29.2285 20.4375C29.3745 20.7143 29.5699 21.0383 29.8047 21.4004C30.2743 22.1245 30.8985 22.9909 31.6006 23.9141C32.9569 25.6974 34.5971 27.6841 35.9541 29.2539C35.9822 29.2194 36.0177 29.1753 36.0459 29.1436C36.134 29.0444 36.2547 28.9375 36.4414 28.9023L38.8232 27.0254C38.8285 27.0057 38.8336 26.9865 38.8398 26.9688C38.1739 26.0115 37.4565 25.0419 36.8877 24.1543C36.3041 23.2436 35.8475 22.3755 35.7656 21.6445C35.7239 21.2717 35.7784 20.9196 35.9746 20.6172C36.17 20.3163 36.4905 20.0878 36.9355 19.9287C37.816 19.6141 39.2457 19.5483 41.3965 19.7793H41.3975C41.6756 19.8017 42.0692 19.8106 42.375 19.9209C42.5347 19.9785 42.6905 20.0693 42.8018 20.2197C42.9146 20.3724 42.9662 20.565 42.9561 20.7959V20.8096L42.7568 20.7871L42.9551 20.8096C42.9286 21.0439 42.8459 21.2302 42.708 21.3652C42.5722 21.4981 42.4014 21.5638 42.2314 21.5947C41.9041 21.6542 41.5102 21.5921 41.2275 21.5596V21.5586C40.7817 21.5137 39.8878 21.431 39.0664 21.4199C38.654 21.4144 38.2672 21.4277 37.9678 21.4707C37.8177 21.4923 37.6965 21.5203 37.6084 21.5537C37.5638 21.5706 37.5336 21.5866 37.5137 21.5996C37.532 21.6563 37.5632 21.7342 37.6025 21.8213C37.6761 21.984 37.7668 22.1484 37.8271 22.2412C39.2958 22.702 40.8848 23.0764 42.1855 23.2617C42.8466 23.3559 43.427 23.4002 43.876 23.3848C44.1004 23.377 44.2859 23.3544 44.4297 23.3184C44.5766 23.2815 44.6609 23.2354 44.7031 23.1943C45.1437 22.6652 45.6641 22.1582 46.1553 21.6807C46.6589 21.1909 47.1159 20.7461 47.4678 20.2969C47.8183 19.8493 48.0521 19.4119 48.1211 18.9414V18.9404C48.8794 13.8245 44.3417 6.67996 32.2832 3.32617ZM6.05371 21.4766C5.57028 21.4337 5.09081 21.589 4.70898 21.9082C4.37654 22.1862 4.15875 22.5644 4.08008 22.9854L4.05469 23.168L3.59668 28.5059H3.60352L3.58496 28.7236C3.52578 29.3998 4.0296 29.9996 4.70605 30.0605C4.79072 30.0615 4.88278 30.0715 4.9668 30.0811C5.06016 30.0917 5.14319 30.1018 5.21875 30.1074C5.25564 30.1102 5.28491 30.1106 5.30762 30.1104L5.80664 27.1807L5.86914 26.8945C6.22699 25.5566 7.46247 24.6113 8.85156 24.6123L9.05859 21.7754L6.05371 21.4775V21.4766ZM55.3018 29.8848C55.7033 29.8522 56.1962 29.7857 56.6924 29.6475C57.2863 29.482 57.872 29.2205 58.3135 28.8145L58.4561 28.6758C59.1497 27.9616 59.536 26.9479 59.5898 25.8955C59.6473 24.7734 59.3249 23.6281 58.6191 22.7812L58.5361 22.6826C57.7649 21.8408 56.5785 21.5018 55.7607 21.3701L55.3018 29.8848ZM49.1338 21.3096C49.0689 21.2981 49.0088 21.2944 48.9473 21.293C48.5006 21.8767 47.9449 22.4178 47.3936 22.9561C47.1716 23.8007 46.92 24.7962 46.832 25.668C46.7872 26.1127 46.7866 26.5136 46.8486 26.8398C46.9031 27.1259 47.002 27.337 47.1455 27.4756L47.21 27.5303V27.5312C49.607 29.3501 52.1099 29.4497 53.5449 29.3105L53.9473 21.8359L49.1396 21.3115L49.1416 21.2598L49.1338 21.3096Z" fill="#2A6C50" stroke="#2A6C50" stroke-width="0.4"/>
</svg>
