<svg width="44" height="40" viewBox="0 0 44 40" fill="none" xmlns="http://www.w3.org/2000/svg">
<path d="M32.3822 21.0457C33.7807 22.4457 33.7741 24.7057 32.3822 26.0957L24.2484 34.2309C23.0674 35.4114 21.5036 36.1437 19.8436 36.2928L9.36031 37.0728L7.39032 39.4766C6.89175 40.0847 5.99318 40.178 5.37985 39.6761C4.76937 39.1766 4.68033 38.2771 5.18032 37.6656L7.53794 34.7876C7.78555 34.4847 8.14698 34.298 8.53698 34.2685L19.6089 33.4452C20.5817 33.3571 21.5203 32.918 22.2279 32.2104L30.3622 24.0757C30.6426 23.7952 30.6383 23.3414 30.3617 23.0657C30.0836 22.7866 29.6298 22.7866 29.3517 23.0657L23.2941 29.1233C22.7631 29.6542 21.9841 30.0509 21.1736 30.1404L13.6651 31.4085C12.847 31.5366 12.1455 30.9852 12.0189 30.2366C11.8879 29.4595 12.4122 28.7214 13.1908 28.5904L20.7803 27.3109C21.215 27.2609 21.4822 26.9623 21.4822 26.6052C21.4822 26.1223 21.0741 25.7138 20.5912 25.7138H10.6722C9.14507 25.7138 7.71032 26.3081 6.63222 27.3881L3.00985 31.0095C2.45176 31.5676 1.54795 31.5676 0.989859 31.0095C0.431766 30.4514 0.431766 29.5476 0.989859 28.9895L4.61128 25.3681C6.22937 23.7481 8.38174 22.8566 10.6717 22.8566H20.5908C21.9269 22.8566 23.0931 23.5647 23.7569 24.62L27.3307 21.0462C28.7231 19.6533 30.9893 19.6533 32.3822 21.0457Z" fill="#2A6C50"/>
<path d="M43.009 8.98981C43.5671 9.54791 43.5671 10.4517 43.009 11.0098L39.3876 14.6312C37.769 16.2512 35.6167 17.1427 33.3267 17.1427H23.4077C22.0715 17.1427 20.9053 16.4346 20.2415 15.3793L16.6677 18.9531C15.2724 20.3484 13.0082 20.3445 11.6167 18.9531C10.2182 17.5531 10.2248 15.2931 11.6167 13.9031L19.751 5.7684C20.932 4.58792 22.4958 3.85554 24.1558 3.7065L34.6391 2.9265L36.609 0.522697C37.11 -0.0868253 38.0105 -0.176349 38.6195 0.323174C39.23 0.822696 39.319 1.72222 38.819 2.33364L36.4614 5.21173C36.2138 5.51459 35.8524 5.70125 35.4624 5.73078L24.3896 6.55411C23.4167 6.6422 22.4781 7.08125 21.7705 7.78887L13.6363 15.9231C13.3558 16.2036 13.3601 16.6574 13.6367 16.9331C13.9148 17.2122 14.3686 17.2122 14.6467 16.9331L20.7043 10.876C21.2353 10.345 22.0143 9.94838 22.8248 9.85886L30.3334 8.59077C31.1095 8.46363 31.8476 8.9841 31.9795 9.76267C32.1105 10.5398 31.5862 11.2779 30.8076 11.4089L23.2181 12.6884C22.7834 12.7384 22.5162 13.0369 22.5162 13.3941C22.5162 13.8769 22.9243 14.2855 23.4072 14.2855H33.3262C34.8533 14.2855 36.2881 13.6912 37.3662 12.6112L40.9886 8.98981C41.5471 8.43172 42.4509 8.43172 43.009 8.98981Z" fill="#2A6C50"/>
</svg>
