<svg width="41" height="39" viewBox="0 0 41 39" fill="none" xmlns="http://www.w3.org/2000/svg">
<path d="M23.7785 0.908102C26.914 0.592091 35.5231 0 39.6 0C40.2074 0 40.7 0.492496 40.7 1.10001C40.7 1.70752 40.2074 2.20002 39.6 2.20002C35.6514 2.20002 27.1507 2.77942 23.9992 3.09703C23.1025 3.18741 22.2854 3.65304 21.7378 4.38325L20.8998 5.50049H39.6C40.2074 5.50049 40.7 5.99298 40.7 6.60049C40.7 7.20801 40.2074 7.7005 39.6 7.7005H20.8998C19.0868 7.7005 18.0521 5.63079 19.1398 4.18047L19.9778 3.06324C20.8875 1.85011 22.2583 1.06129 23.7785 0.908102Z" fill="#2A6C50"/>
<path d="M35.3855 22.1506C35.9153 21.6842 36.7177 21.715 37.2098 22.2208C37.7006 22.7253 37.7112 23.5252 37.2338 24.0424L29.7632 32.1354C27.3124 34.7904 23.8636 36.3005 20.2505 36.3005H1.10001C0.492496 36.3005 0 36.7929 0 37.4005C0 38.0079 0.492496 38.5005 1.10001 38.5005H20.2505C24.4776 38.5005 28.5125 36.7339 31.3797 33.6277L38.8503 25.5345C40.1206 24.1584 40.0927 22.029 38.7868 20.6867C37.4767 19.3403 35.3409 19.2581 33.9313 20.5L27.5942 26.0827C27.5588 26.114 27.5229 26.1446 27.4868 26.1749C27.4956 26.068 27.5002 25.9598 27.5002 25.8506C27.5002 23.7243 25.7765 22.0006 23.6502 22.0006H17.6001C15.2035 22.0006 12.8745 22.8848 11.0734 24.4567C9.64618 25.7021 7.80085 26.4006 5.91255 26.4006H1.10001C0.492496 26.4006 0 26.8932 0 27.5006C0 28.1081 0.492496 28.6007 1.10001 28.6007H5.91255C8.33871 28.6007 10.6965 27.7057 12.52 26.1142C13.9249 24.8881 15.7414 24.2006 17.6001 24.2006H23.6502C24.5614 24.2006 25.3002 24.9394 25.3002 25.8506C25.3002 26.752 24.5775 27.4846 23.6799 27.5004H18.1948L18.1704 27.5006H17.3251C16.7177 27.5006 16.2251 27.9932 16.2251 28.6007C16.2251 29.2081 16.7177 29.7007 17.3251 29.7007H23.6502L23.6955 29.7004H23.8401C25.7576 29.7004 27.6096 29.0011 29.0484 27.7334L35.3855 22.1506Z" fill="#2A6C50"/>
<path d="M23.2369 8.80841C23.8397 8.88379 24.2674 9.43355 24.1919 10.0364L23.0919 18.8365C23.0166 19.4393 22.4669 19.8668 21.8641 19.7915C21.2612 19.7161 20.8336 19.1663 20.909 18.5635L22.009 9.76351C22.0843 9.16068 22.6341 8.73306 23.2369 8.80841Z" fill="#2A6C50"/>
<path d="M27.5003 9.89981C27.5003 9.2923 27.0077 8.7998 26.4003 8.7998C25.7929 8.7998 25.3003 9.2923 25.3003 9.89981V15.3999C25.3003 16.0073 25.7929 16.4999 26.4003 16.4999C27.0077 16.4999 27.5003 16.0073 27.5003 15.3999V9.89981Z" fill="#2A6C50"/>
<path d="M30.7916 9.76351C30.7163 9.16068 30.1666 8.73306 29.5638 8.80841C28.961 8.88379 28.5333 9.43355 28.6087 10.0364L29.7087 18.8365C29.784 19.4393 30.3338 19.8668 30.9366 19.7915C31.5394 19.7161 31.9671 19.1663 31.8916 18.5635L30.7916 9.76351Z" fill="#2A6C50"/>
<path d="M26.4003 17.6006C27.0077 17.6006 27.5003 18.0932 27.5003 18.7006V19.8006C27.5003 20.408 27.0077 20.9006 26.4003 20.9006C25.7929 20.9006 25.3003 20.408 25.3003 19.8006V18.7006C25.3003 18.0932 25.7929 17.6006 26.4003 17.6006Z" fill="#2A6C50"/>
</svg>
