<svg width="43" height="49" viewBox="0 0 43 49" fill="none" xmlns="http://www.w3.org/2000/svg">
<path d="M9.43555 6.4248C9.75197 6.10889 10.2618 6.10868 10.5781 6.4248L12.7871 8.63379H15.9102C16.3556 8.63379 16.7176 8.99598 16.7178 9.44141V12.5654L18.9277 14.7754C19.0768 14.9271 19.1631 15.1305 19.1631 15.3457C19.163 15.5598 19.0797 15.764 18.9268 15.917L16.7178 18.126V21.249C16.7178 21.6971 16.3554 22.0566 15.9102 22.0566H12.7871L10.5781 24.2656C10.4198 24.424 10.2128 24.5019 10.0068 24.502C9.79969 24.502 9.59282 24.4212 9.43555 24.2666V24.2656L7.22656 22.0566H4.10254C3.65704 22.0566 3.29492 21.6945 3.29492 21.249V18.126L1.08496 15.916C0.935996 15.7643 0.849658 15.5608 0.849609 15.3457C0.849609 15.1317 0.933144 14.9274 1.08594 14.7744L3.29492 12.5654V9.44141C3.29507 8.99601 3.65714 8.63387 4.10254 8.63379H7.22656L9.43555 6.4248ZM8.13281 10.0088C7.97984 10.1617 7.77557 10.2451 7.56152 10.2451H4.91016V12.8965C4.91004 13.1105 4.82672 13.3149 4.67383 13.4678L2.79785 15.3428L4.67383 17.2168L4.6748 17.2178C4.82387 17.3695 4.9101 17.5729 4.91016 17.7881V20.4395H7.56152C7.7744 20.4395 7.98055 20.5256 8.13281 20.6777L10.0059 22.5508L11.8799 20.6777L11.8809 20.6768C12.0325 20.5277 12.2361 20.4415 12.4512 20.4414H15.1025V17.79C15.1027 17.5757 15.1884 17.3692 15.3389 17.2188L17.2148 15.3428L15.3389 13.4678L15.3379 13.4668C15.1889 13.3151 15.1027 13.1116 15.1025 12.8965V10.2451H12.4512C12.2372 10.245 12.0328 10.1617 11.8799 10.0088L10.0059 8.13477L8.13281 10.0088Z" fill="#2A6C50" stroke="#2A6C50" stroke-width="0.3"/>
<path d="M12.3857 36.1406C13.1418 36.1406 13.7674 36.7307 13.7676 37.4707V37.9453C14.8517 37.3109 16.1754 36.8403 17.8711 36.9277H17.8701C17.8947 36.9283 17.9184 36.9316 17.9326 36.9336H17.9316C19.0103 37.0702 21.057 37.6109 22.8936 38.2402C23.8132 38.5554 24.6858 38.8942 25.3623 39.2188C25.7004 39.3809 25.9935 39.5418 26.2197 39.6953C26.3848 39.8074 26.5261 39.9232 26.6211 40.042L26.7002 40.1621L26.7031 40.1689C26.7812 40.3413 26.838 40.5056 26.8789 40.6621C28.7305 39.8384 30.4944 38.846 32.1641 37.8828C32.6993 37.5735 33.2316 37.4132 33.7461 37.4131C34.6239 37.4131 35.3678 37.9043 35.6777 38.6963L35.7412 38.8828C36.0164 39.8247 35.6432 40.9067 34.7969 41.6914L34.793 41.6943C34.7854 41.701 34.7537 41.7319 34.7236 41.752L34.7227 41.751C30.5856 44.8231 26.824 46.7959 23.2275 47.7764C20.0119 48.6545 16.6039 48.4108 13.7676 47.1113V47.1699C13.7676 47.91 13.1418 48.5 12.3857 48.5H8.5293C7.77319 48.5 7.14648 47.91 7.14648 47.1699V37.4707C7.14661 36.7307 7.77328 36.1406 8.5293 36.1406H12.3857ZM8.75977 46.8848H12.1523L12.1553 45.7812V37.7568H8.7627L8.75977 46.8848ZM17.7598 38.5391C16.3238 38.4693 15.1776 38.8522 13.7695 39.8848V45.3008C15.4245 46.2068 17.3352 46.6904 19.332 46.6904C20.4893 46.6904 21.6601 46.53 22.8057 46.2188L23.4424 46.0352C26.6355 45.0592 30.0082 43.2391 33.7314 40.4785C34.1758 40.0512 34.2529 39.6371 34.2051 39.3877L34.1768 39.291C34.117 39.1385 33.9883 39.0494 33.7852 39.0381C33.5744 39.0264 33.2918 39.1016 32.9736 39.2852C30.963 40.4458 28.7994 41.6548 26.4805 42.5879C25.9725 43.2475 25.1134 43.6771 24.1475 43.7617L24.1436 43.7627C24.074 43.767 23.9975 43.7715 23.918 43.7715C23.0945 43.7715 22.1019 43.409 21.0127 43.0127C20.4502 42.8077 19.876 42.6004 19.2949 42.4268L18.7119 42.2656C18.2795 42.158 18.0171 41.7185 18.124 41.2871C18.2316 40.8544 18.6719 40.592 19.1035 40.6992L19.7471 40.876C20.3859 41.0667 21.0052 41.2911 21.5635 41.4941L22.3037 41.7578C22.5423 41.8404 22.7707 41.9161 22.9844 41.9785C23.4162 42.1047 23.7658 42.1716 24.0049 42.1504C24.5647 42.1002 25.042 41.8543 25.2393 41.5547C25.2497 41.5386 25.264 41.5228 25.2744 41.5107C25.2781 41.5023 25.2837 41.4907 25.292 41.4785L25.3252 41.4209C25.3359 41.3978 25.3454 41.3699 25.3506 41.334C25.3605 41.2661 25.3547 41.1585 25.2969 40.9922C25.117 40.8721 24.7333 40.6844 24.2031 40.4639C23.6408 40.2299 22.9316 39.9624 22.1699 39.7021C20.6457 39.1814 18.9251 38.6908 17.7598 38.5391Z" fill="#2A6C50" stroke="#2A6C50" stroke-width="0.3"/>
<mask id="path-3-outside-1_512_3383" maskUnits="userSpaceOnUse" x="14.1899" y="0" width="29" height="38" fill="black">
<rect fill="white" x="14.1899" width="29" height="38"/>
<path d="M40.7472 7.50799H36.8907C36.2112 7.50799 35.6584 8.03676 35.6584 8.6879V9.14675C35.2826 8.85178 34.9111 8.55025 34.5484 8.25088C33.0844 7.05788 31.6729 5.90856 30.1282 5.37543C30.2724 5.12852 30.4188 4.89036 30.5564 4.6675C31.2228 3.59029 31.8521 2.57426 31.1136 1.78769C30.8208 1.44683 30.3182 1.28296 29.6627 1.3048C28.9919 1.33102 28.1791 1.55826 27.5433 1.9625C27.2876 1.59761 26.8681 1.2218 26.1383 1.02294C26.0269 0.992352 25.9089 0.992352 25.7953 1.02294C25.0655 1.21959 24.6459 1.59757 24.3903 1.9625C23.7545 1.55827 22.9394 1.33104 22.2708 1.3048C21.6131 1.28295 21.115 1.44683 20.82 1.78769C20.0814 2.57208 20.7107 3.59034 21.3771 4.6675C21.5651 4.97122 21.7661 5.30115 21.954 5.6442C21.2766 6.02876 20.8155 6.75638 20.8155 7.59106C20.8155 8.07613 20.9838 8.54153 21.2678 8.92172C20.691 9.32813 20.313 9.99676 20.313 10.7527C20.313 11.3689 20.5643 11.9283 20.9685 12.3325C20.5643 12.7389 20.313 13.2961 20.313 13.9122C20.313 14.7993 20.833 15.5684 21.5825 15.929C21.3836 16.2633 21.2678 16.6566 21.2678 17.074C21.2678 17.7994 21.6153 18.4418 22.1506 18.8504C21.7573 19.5365 20.8789 20.358 19.9503 21.2233C16.9546 24.0179 15.0012 26.5263 15.2044 29.6769C15.4513 33.5225 18.8752 37.4011 25.9699 37.4011C33.0648 37.4011 36.4887 33.5228 36.7353 29.6769C36.9364 26.5262 34.983 24.0201 31.9873 21.2233C31.1635 20.4564 30.3835 19.7222 29.9422 19.0907C30.5671 18.9596 31.1811 18.787 31.7776 18.6144C33.0121 18.2604 34.2925 17.8868 35.6668 17.9239V18.385C35.6668 19.0361 36.2197 19.5649 36.8992 19.5649H40.7557C41.4352 19.5649 41.988 19.0361 41.988 18.385V8.68565C41.9793 8.03668 41.4268 7.50799 40.7472 7.50799ZM24.0514 3.40457C24.1869 3.60122 24.4229 3.71048 24.6588 3.68425C24.897 3.66022 25.1046 3.50945 25.1985 3.28658C25.2182 3.2407 25.2379 3.19044 25.2597 3.13363C25.3733 2.83428 25.4913 2.52622 25.9611 2.34706C26.4309 2.52622 26.5489 2.83431 26.6625 3.13363C26.6843 3.19044 26.704 3.2407 26.7237 3.28658C26.8176 3.50727 27.023 3.65803 27.2634 3.68207C27.5015 3.70392 27.7353 3.59903 27.8708 3.40239C28.299 2.78401 29.7586 2.48252 30.1213 2.6595C30.0995 2.90203 29.704 3.54441 29.4352 3.97489C29.2254 4.31357 28.996 4.685 28.7797 5.08489C28.5065 5.06085 28.2291 5.05648 27.9428 5.08052C27.5255 5.11766 27.1584 5.21599 26.8197 5.35146H23.2822C23.0288 4.8511 22.7469 4.39003 22.489 3.97493C22.2225 3.54448 21.8248 2.90208 21.8029 2.65954C22.1635 2.48474 23.6254 2.78623 24.0514 3.40457ZM23.4964 17.9983C22.9961 17.9983 22.5744 17.5744 22.5744 17.0762C22.5744 16.5671 22.9874 16.1542 23.4964 16.1542H28.5329C29.0332 16.1542 29.4549 16.5781 29.4549 17.0762C29.4549 17.5854 29.042 17.9983 28.5329 17.9983H23.4964ZM22.5438 11.6747C22.0434 11.6747 21.6217 11.2508 21.6217 10.7527C21.6217 10.2436 22.0347 9.83062 22.5438 9.83062H22.5744C22.6203 10.1868 22.7623 10.5146 23.0005 10.7921C23.5685 11.4519 24.6239 11.7709 25.83 11.6508C26.5948 11.5721 27.3726 11.2356 27.9211 10.9341C28.0544 11.1614 28.2226 11.417 28.4149 11.677H22.5439L22.5438 11.6747ZM22.9524 8.51305V8.50868C22.8868 8.50212 22.8213 8.48683 22.7557 8.46498C22.3887 8.34043 22.1221 7.97335 22.1221 7.59098C22.1221 7.08187 22.5351 6.66893 23.0441 6.66893H24.9845C24.8293 6.82188 24.672 6.98138 24.5169 7.14089C24.0733 7.59755 23.6101 8.0673 23.0442 8.5196V8.51523H22.9524L22.9524 8.51305ZM21.6195 13.9143C21.6195 13.4052 22.0325 12.9923 22.5416 12.9923H28.5374C29.0356 12.9945 29.4551 13.4184 29.4551 13.9143C29.4551 14.4235 29.0421 14.8364 28.533 14.8364H22.5439C22.0436 14.8364 21.6195 14.4125 21.6195 13.9143ZM31.0806 22.1867C33.8796 24.8 35.5817 26.95 35.4113 29.5938C35.219 32.5895 32.6275 36.0874 25.9592 36.0874C19.2905 36.0874 16.699 32.5892 16.5071 29.5938C16.3367 26.9499 18.0388 24.7999 20.8378 22.1867C21.9587 21.1423 22.9267 20.2312 23.3855 19.3069C23.4226 19.3091 23.4576 19.3135 23.4947 19.3135H28.5312H28.5334C28.9944 20.2333 29.9618 21.1423 31.0806 22.1867ZM31.4039 17.3513C31.1723 17.4169 30.9451 17.4824 30.72 17.5436C30.7528 17.3929 30.7703 17.2355 30.7703 17.0739C30.7703 16.4577 30.519 15.8983 30.1148 15.4941C30.519 15.0877 30.7703 14.5305 30.7703 13.9144C30.7703 13.7723 30.755 13.6325 30.7309 13.497C30.9844 13.556 31.2379 13.5757 31.4935 13.556C31.8562 13.5276 32.1272 13.213 32.1009 12.8503C32.0725 12.4876 31.7557 12.2144 31.3952 12.245C31.1527 12.2625 30.9079 12.2079 30.6545 12.0768C29.6953 11.4825 28.8999 10.0469 28.8147 9.81094C28.7557 9.60336 28.5962 9.43512 28.3908 9.36738C28.1854 9.29746 27.9582 9.33461 27.7856 9.46571C27.4687 9.70606 26.4986 10.2589 25.6945 10.3397C24.9516 10.4162 24.2699 10.2501 23.9946 9.93111C23.9334 9.859 23.8613 9.74757 23.87 9.54874C24.5037 9.044 25.0106 8.52181 25.4629 8.05418C26.3478 7.14304 26.9881 6.48316 28.0499 6.38919C29.9946 6.23624 31.7207 7.64121 33.7157 9.26682C34.3384 9.77374 34.9852 10.2938 35.6582 10.7832L35.656 16.6084C34.0981 16.5822 32.7303 16.9712 31.4039 17.3513ZM40.6642 18.2494H36.9715V8.82305H40.6642V18.2494Z"/>
</mask>
<path d="M40.7472 7.50799H36.8907C36.2112 7.50799 35.6584 8.03676 35.6584 8.6879V9.14675C35.2826 8.85178 34.9111 8.55025 34.5484 8.25088C33.0844 7.05788 31.6729 5.90856 30.1282 5.37543C30.2724 5.12852 30.4188 4.89036 30.5564 4.6675C31.2228 3.59029 31.8521 2.57426 31.1136 1.78769C30.8208 1.44683 30.3182 1.28296 29.6627 1.3048C28.9919 1.33102 28.1791 1.55826 27.5433 1.9625C27.2876 1.59761 26.8681 1.2218 26.1383 1.02294C26.0269 0.992352 25.9089 0.992352 25.7953 1.02294C25.0655 1.21959 24.6459 1.59757 24.3903 1.9625C23.7545 1.55827 22.9394 1.33104 22.2708 1.3048C21.6131 1.28295 21.115 1.44683 20.82 1.78769C20.0814 2.57208 20.7107 3.59034 21.3771 4.6675C21.5651 4.97122 21.7661 5.30115 21.954 5.6442C21.2766 6.02876 20.8155 6.75638 20.8155 7.59106C20.8155 8.07613 20.9838 8.54153 21.2678 8.92172C20.691 9.32813 20.313 9.99676 20.313 10.7527C20.313 11.3689 20.5643 11.9283 20.9685 12.3325C20.5643 12.7389 20.313 13.2961 20.313 13.9122C20.313 14.7993 20.833 15.5684 21.5825 15.929C21.3836 16.2633 21.2678 16.6566 21.2678 17.074C21.2678 17.7994 21.6153 18.4418 22.1506 18.8504C21.7573 19.5365 20.8789 20.358 19.9503 21.2233C16.9546 24.0179 15.0012 26.5263 15.2044 29.6769C15.4513 33.5225 18.8752 37.4011 25.9699 37.4011C33.0648 37.4011 36.4887 33.5228 36.7353 29.6769C36.9364 26.5262 34.983 24.0201 31.9873 21.2233C31.1635 20.4564 30.3835 19.7222 29.9422 19.0907C30.5671 18.9596 31.1811 18.787 31.7776 18.6144C33.0121 18.2604 34.2925 17.8868 35.6668 17.9239V18.385C35.6668 19.0361 36.2197 19.5649 36.8992 19.5649H40.7557C41.4352 19.5649 41.988 19.0361 41.988 18.385V8.68565C41.9793 8.03668 41.4268 7.50799 40.7472 7.50799ZM24.0514 3.40457C24.1869 3.60122 24.4229 3.71048 24.6588 3.68425C24.897 3.66022 25.1046 3.50945 25.1985 3.28658C25.2182 3.2407 25.2379 3.19044 25.2597 3.13363C25.3733 2.83428 25.4913 2.52622 25.9611 2.34706C26.4309 2.52622 26.5489 2.83431 26.6625 3.13363C26.6843 3.19044 26.704 3.2407 26.7237 3.28658C26.8176 3.50727 27.023 3.65803 27.2634 3.68207C27.5015 3.70392 27.7353 3.59903 27.8708 3.40239C28.299 2.78401 29.7586 2.48252 30.1213 2.6595C30.0995 2.90203 29.704 3.54441 29.4352 3.97489C29.2254 4.31357 28.996 4.685 28.7797 5.08489C28.5065 5.06085 28.2291 5.05648 27.9428 5.08052C27.5255 5.11766 27.1584 5.21599 26.8197 5.35146H23.2822C23.0288 4.8511 22.7469 4.39003 22.489 3.97493C22.2225 3.54448 21.8248 2.90208 21.8029 2.65954C22.1635 2.48474 23.6254 2.78623 24.0514 3.40457ZM23.4964 17.9983C22.9961 17.9983 22.5744 17.5744 22.5744 17.0762C22.5744 16.5671 22.9874 16.1542 23.4964 16.1542H28.5329C29.0332 16.1542 29.4549 16.5781 29.4549 17.0762C29.4549 17.5854 29.042 17.9983 28.5329 17.9983H23.4964ZM22.5438 11.6747C22.0434 11.6747 21.6217 11.2508 21.6217 10.7527C21.6217 10.2436 22.0347 9.83062 22.5438 9.83062H22.5744C22.6203 10.1868 22.7623 10.5146 23.0005 10.7921C23.5685 11.4519 24.6239 11.7709 25.83 11.6508C26.5948 11.5721 27.3726 11.2356 27.9211 10.9341C28.0544 11.1614 28.2226 11.417 28.4149 11.677H22.5439L22.5438 11.6747ZM22.9524 8.51305V8.50868C22.8868 8.50212 22.8213 8.48683 22.7557 8.46498C22.3887 8.34043 22.1221 7.97335 22.1221 7.59098C22.1221 7.08187 22.5351 6.66893 23.0441 6.66893H24.9845C24.8293 6.82188 24.672 6.98138 24.5169 7.14089C24.0733 7.59755 23.6101 8.0673 23.0442 8.5196V8.51523H22.9524L22.9524 8.51305ZM21.6195 13.9143C21.6195 13.4052 22.0325 12.9923 22.5416 12.9923H28.5374C29.0356 12.9945 29.4551 13.4184 29.4551 13.9143C29.4551 14.4235 29.0421 14.8364 28.533 14.8364H22.5439C22.0436 14.8364 21.6195 14.4125 21.6195 13.9143ZM31.0806 22.1867C33.8796 24.8 35.5817 26.95 35.4113 29.5938C35.219 32.5895 32.6275 36.0874 25.9592 36.0874C19.2905 36.0874 16.699 32.5892 16.5071 29.5938C16.3367 26.9499 18.0388 24.7999 20.8378 22.1867C21.9587 21.1423 22.9267 20.2312 23.3855 19.3069C23.4226 19.3091 23.4576 19.3135 23.4947 19.3135H28.5312H28.5334C28.9944 20.2333 29.9618 21.1423 31.0806 22.1867ZM31.4039 17.3513C31.1723 17.4169 30.9451 17.4824 30.72 17.5436C30.7528 17.3929 30.7703 17.2355 30.7703 17.0739C30.7703 16.4577 30.519 15.8983 30.1148 15.4941C30.519 15.0877 30.7703 14.5305 30.7703 13.9144C30.7703 13.7723 30.755 13.6325 30.7309 13.497C30.9844 13.556 31.2379 13.5757 31.4935 13.556C31.8562 13.5276 32.1272 13.213 32.1009 12.8503C32.0725 12.4876 31.7557 12.2144 31.3952 12.245C31.1527 12.2625 30.9079 12.2079 30.6545 12.0768C29.6953 11.4825 28.8999 10.0469 28.8147 9.81094C28.7557 9.60336 28.5962 9.43512 28.3908 9.36738C28.1854 9.29746 27.9582 9.33461 27.7856 9.46571C27.4687 9.70606 26.4986 10.2589 25.6945 10.3397C24.9516 10.4162 24.2699 10.2501 23.9946 9.93111C23.9334 9.859 23.8613 9.74757 23.87 9.54874C24.5037 9.044 25.0106 8.52181 25.4629 8.05418C26.3478 7.14304 26.9881 6.48316 28.0499 6.38919C29.9946 6.23624 31.7207 7.64121 33.7157 9.26682C34.3384 9.77374 34.9852 10.2938 35.6582 10.7832L35.656 16.6084C34.0981 16.5822 32.7303 16.9712 31.4039 17.3513ZM40.6642 18.2494H36.9715V8.82305H40.6642V18.2494Z" fill="#2A6C50"/>
<path d="M40.7472 7.50799H36.8907C36.2112 7.50799 35.6584 8.03676 35.6584 8.6879V9.14675C35.2826 8.85178 34.9111 8.55025 34.5484 8.25088C33.0844 7.05788 31.6729 5.90856 30.1282 5.37543C30.2724 5.12852 30.4188 4.89036 30.5564 4.6675C31.2228 3.59029 31.8521 2.57426 31.1136 1.78769C30.8208 1.44683 30.3182 1.28296 29.6627 1.3048C28.9919 1.33102 28.1791 1.55826 27.5433 1.9625C27.2876 1.59761 26.8681 1.2218 26.1383 1.02294C26.0269 0.992352 25.9089 0.992352 25.7953 1.02294C25.0655 1.21959 24.6459 1.59757 24.3903 1.9625C23.7545 1.55827 22.9394 1.33104 22.2708 1.3048C21.6131 1.28295 21.115 1.44683 20.82 1.78769C20.0814 2.57208 20.7107 3.59034 21.3771 4.6675C21.5651 4.97122 21.7661 5.30115 21.954 5.6442C21.2766 6.02876 20.8155 6.75638 20.8155 7.59106C20.8155 8.07613 20.9838 8.54153 21.2678 8.92172C20.691 9.32813 20.313 9.99676 20.313 10.7527C20.313 11.3689 20.5643 11.9283 20.9685 12.3325C20.5643 12.7389 20.313 13.2961 20.313 13.9122C20.313 14.7993 20.833 15.5684 21.5825 15.929C21.3836 16.2633 21.2678 16.6566 21.2678 17.074C21.2678 17.7994 21.6153 18.4418 22.1506 18.8504C21.7573 19.5365 20.8789 20.358 19.9503 21.2233C16.9546 24.0179 15.0012 26.5263 15.2044 29.6769C15.4513 33.5225 18.8752 37.4011 25.9699 37.4011C33.0648 37.4011 36.4887 33.5228 36.7353 29.6769C36.9364 26.5262 34.983 24.0201 31.9873 21.2233C31.1635 20.4564 30.3835 19.7222 29.9422 19.0907C30.5671 18.9596 31.1811 18.787 31.7776 18.6144C33.0121 18.2604 34.2925 17.8868 35.6668 17.9239V18.385C35.6668 19.0361 36.2197 19.5649 36.8992 19.5649H40.7557C41.4352 19.5649 41.988 19.0361 41.988 18.385V8.68565C41.9793 8.03668 41.4268 7.50799 40.7472 7.50799ZM24.0514 3.40457C24.1869 3.60122 24.4229 3.71048 24.6588 3.68425C24.897 3.66022 25.1046 3.50945 25.1985 3.28658C25.2182 3.2407 25.2379 3.19044 25.2597 3.13363C25.3733 2.83428 25.4913 2.52622 25.9611 2.34706C26.4309 2.52622 26.5489 2.83431 26.6625 3.13363C26.6843 3.19044 26.704 3.2407 26.7237 3.28658C26.8176 3.50727 27.023 3.65803 27.2634 3.68207C27.5015 3.70392 27.7353 3.59903 27.8708 3.40239C28.299 2.78401 29.7586 2.48252 30.1213 2.6595C30.0995 2.90203 29.704 3.54441 29.4352 3.97489C29.2254 4.31357 28.996 4.685 28.7797 5.08489C28.5065 5.06085 28.2291 5.05648 27.9428 5.08052C27.5255 5.11766 27.1584 5.21599 26.8197 5.35146H23.2822C23.0288 4.8511 22.7469 4.39003 22.489 3.97493C22.2225 3.54448 21.8248 2.90208 21.8029 2.65954C22.1635 2.48474 23.6254 2.78623 24.0514 3.40457ZM23.4964 17.9983C22.9961 17.9983 22.5744 17.5744 22.5744 17.0762C22.5744 16.5671 22.9874 16.1542 23.4964 16.1542H28.5329C29.0332 16.1542 29.4549 16.5781 29.4549 17.0762C29.4549 17.5854 29.042 17.9983 28.5329 17.9983H23.4964ZM22.5438 11.6747C22.0434 11.6747 21.6217 11.2508 21.6217 10.7527C21.6217 10.2436 22.0347 9.83062 22.5438 9.83062H22.5744C22.6203 10.1868 22.7623 10.5146 23.0005 10.7921C23.5685 11.4519 24.6239 11.7709 25.83 11.6508C26.5948 11.5721 27.3726 11.2356 27.9211 10.9341C28.0544 11.1614 28.2226 11.417 28.4149 11.677H22.5439L22.5438 11.6747ZM22.9524 8.51305V8.50868C22.8868 8.50212 22.8213 8.48683 22.7557 8.46498C22.3887 8.34043 22.1221 7.97335 22.1221 7.59098C22.1221 7.08187 22.5351 6.66893 23.0441 6.66893H24.9845C24.8293 6.82188 24.672 6.98138 24.5169 7.14089C24.0733 7.59755 23.6101 8.0673 23.0442 8.5196V8.51523H22.9524L22.9524 8.51305ZM21.6195 13.9143C21.6195 13.4052 22.0325 12.9923 22.5416 12.9923H28.5374C29.0356 12.9945 29.4551 13.4184 29.4551 13.9143C29.4551 14.4235 29.0421 14.8364 28.533 14.8364H22.5439C22.0436 14.8364 21.6195 14.4125 21.6195 13.9143ZM31.0806 22.1867C33.8796 24.8 35.5817 26.95 35.4113 29.5938C35.219 32.5895 32.6275 36.0874 25.9592 36.0874C19.2905 36.0874 16.699 32.5892 16.5071 29.5938C16.3367 26.9499 18.0388 24.7999 20.8378 22.1867C21.9587 21.1423 22.9267 20.2312 23.3855 19.3069C23.4226 19.3091 23.4576 19.3135 23.4947 19.3135H28.5312H28.5334C28.9944 20.2333 29.9618 21.1423 31.0806 22.1867ZM31.4039 17.3513C31.1723 17.4169 30.9451 17.4824 30.72 17.5436C30.7528 17.3929 30.7703 17.2355 30.7703 17.0739C30.7703 16.4577 30.519 15.8983 30.1148 15.4941C30.519 15.0877 30.7703 14.5305 30.7703 13.9144C30.7703 13.7723 30.755 13.6325 30.7309 13.497C30.9844 13.556 31.2379 13.5757 31.4935 13.556C31.8562 13.5276 32.1272 13.213 32.1009 12.8503C32.0725 12.4876 31.7557 12.2144 31.3952 12.245C31.1527 12.2625 30.9079 12.2079 30.6545 12.0768C29.6953 11.4825 28.8999 10.0469 28.8147 9.81094C28.7557 9.60336 28.5962 9.43512 28.3908 9.36738C28.1854 9.29746 27.9582 9.33461 27.7856 9.46571C27.4687 9.70606 26.4986 10.2589 25.6945 10.3397C24.9516 10.4162 24.2699 10.2501 23.9946 9.93111C23.9334 9.859 23.8613 9.74757 23.87 9.54874C24.5037 9.044 25.0106 8.52181 25.4629 8.05418C26.3478 7.14304 26.9881 6.48316 28.0499 6.38919C29.9946 6.23624 31.7207 7.64121 33.7157 9.26682C34.3384 9.77374 34.9852 10.2938 35.6582 10.7832L35.656 16.6084C34.0981 16.5822 32.7303 16.9712 31.4039 17.3513ZM40.6642 18.2494H36.9715V8.82305H40.6642V18.2494Z" stroke="#2A6C50" stroke-width="0.6" mask="url(#path-3-outside-1_512_3383)"/>
</svg>
