<svg width="19" height="18" viewBox="0 0 19 18" fill="none" xmlns="http://www.w3.org/2000/svg">
<g clip-path="url(#clip0_398_9671)">
<path d="M9.50009 4.64844C7.10668 4.64844 5.14844 6.60668 5.14844 9.00009C5.14844 11.3935 7.10668 13.3517 9.50009 13.3517C11.8935 13.3517 13.8517 11.3935 13.8517 9.00009C13.8517 6.60668 11.8935 4.64844 9.50009 4.64844ZM9.50009 11.7693C7.97701 11.7693 6.73086 10.5232 6.73086 9.00009C6.73086 7.47701 7.97701 6.23086 9.50009 6.23086C11.0232 6.23086 12.2693 7.47701 12.2693 9.00009C12.2693 10.5232 11.0232 11.7693 9.50009 11.7693Z" fill="#2A6C50"/>
<path d="M9.50019 3.20415C9.93536 3.20415 10.2914 2.8481 10.2914 2.41294V0.81074C10.2914 0.375575 9.93536 0.0195312 9.50019 0.0195312C9.06503 0.0195312 8.70898 0.375575 8.70898 0.81074V2.41294C8.70898 2.86788 9.06503 3.20415 9.50019 3.20415Z" fill="#2A6C50"/>
<path d="M17.6883 8.20898H16.0861C15.651 8.20898 15.2949 8.56503 15.2949 9.00019C15.2949 9.43536 15.651 9.7914 16.0861 9.7914H17.6883C18.1235 9.7914 18.4795 9.43536 18.4795 9.00019C18.4795 8.56503 18.1235 8.20898 17.6883 8.20898Z" fill="#2A6C50"/>
<path d="M9.50019 14.7949C9.06503 14.7949 8.70898 15.151 8.70898 15.5861V17.1883C8.70898 17.6235 9.06503 17.9795 9.50019 17.9795C9.93536 17.9795 10.2914 17.6235 10.2914 17.1883V15.5861C10.2914 15.1312 9.93536 14.7949 9.50019 14.7949Z" fill="#2A6C50"/>
<path d="M3.70415 9.00019C3.70415 8.56503 3.3481 8.20898 2.91294 8.20898H1.31074C0.875575 8.20898 0.519531 8.56503 0.519531 9.00019C0.519531 9.43536 0.875575 9.7914 1.31074 9.7914H2.91294C3.36788 9.7914 3.70415 9.43536 3.70415 9.00019Z" fill="#2A6C50"/>
<path d="M14.1489 5.14203C14.3467 5.14203 14.5445 5.06291 14.7027 4.90467L15.85 3.75741C16.1665 3.44093 16.1665 2.94642 15.85 2.62994C15.5335 2.31346 15.039 2.31346 14.7225 2.62994L13.5753 3.77719C13.2588 4.09368 13.2588 4.58818 13.5753 4.90467C13.7533 5.06291 13.9511 5.14203 14.1489 5.14203Z" fill="#2A6C50"/>
<path d="M14.7027 13.0948C14.3862 12.7783 13.8917 12.7783 13.5753 13.0948C13.2588 13.4113 13.2588 13.9058 13.5753 14.2223L14.7225 15.3695C14.8807 15.5278 15.0785 15.6069 15.2764 15.6069C15.4742 15.6069 15.672 15.5278 15.8302 15.3695C16.1467 15.053 16.1467 14.5585 15.8302 14.242L14.7027 13.0948Z" fill="#2A6C50"/>
<path d="M4.29672 13.0948L3.14947 14.242C2.83299 14.5585 2.83299 15.053 3.14947 15.3695C3.30771 15.5278 3.50552 15.6069 3.70332 15.6069C3.90112 15.6069 4.09892 15.5278 4.25716 15.3695L5.40442 14.2223C5.7209 13.9058 5.7209 13.4113 5.40442 13.0948C5.10771 12.7783 4.59343 12.7783 4.29672 13.0948Z" fill="#2A6C50"/>
<path d="M4.29697 4.90467C4.43544 5.06291 4.65302 5.14203 4.85082 5.14203C5.04862 5.14203 5.24642 5.06291 5.40467 4.90467C5.72115 4.58818 5.72115 4.09368 5.40467 3.77719L4.25741 2.62994C3.94093 2.31346 3.44642 2.31346 3.12994 2.62994C2.81346 2.94642 2.81346 3.44093 3.12994 3.75741L4.29697 4.90467Z" fill="#2A6C50"/>
<circle cx="9.5" cy="9" r="3" fill="#88D8B5"/>
</g>
<defs>
<clipPath id="clip0_398_9671">
<rect width="18" height="18" fill="white" transform="translate(0.5)"/>
</clipPath>
</defs>
</svg>
