<svg width="19" height="18" viewBox="0 0 19 18" fill="none" xmlns="http://www.w3.org/2000/svg">
<g clip-path="url(#clip0_398_9657)">
<path d="M3 10.5L4.5 8.5L6.5 7.5L9 8L10.5 10.5L13 11L13.5 13L12 14.5L5.5 15.5L2 14.5L1.5 12L3 10.5Z" fill="#88D8B5"/>
<path d="M10.6863 9.5537H10.4687C10.3896 9.23721 10.2709 8.88117 10.0731 8.50535C9.42038 7.27897 8.25335 6.60645 6.80939 6.60645C5.34566 6.60645 4.17862 7.27897 3.54566 8.50535C3.34785 8.90095 3.22917 9.29655 3.15005 9.61304C1.60719 9.88996 0.539062 11.1163 0.539062 12.7185C0.539062 14.3207 1.68632 15.5867 3.26873 15.8438C3.34785 15.8636 3.44675 15.8834 3.52588 15.8834H10.6863C12.5654 15.8834 13.9896 14.5185 13.9896 12.7185C13.9896 10.879 12.605 9.5537 10.6863 9.5537ZM10.6863 14.301H3.84236C2.65555 14.301 2.12148 13.49 2.12148 12.7185C2.12148 11.7691 2.81379 11.1361 3.84236 11.1361C4.25774 11.1361 4.61379 10.7999 4.63357 10.3647C4.63357 10.3647 4.65335 9.7515 4.96983 9.17787C5.32588 8.50535 5.93906 8.16908 6.78961 8.16908C7.65994 8.16908 8.27313 8.50535 8.64895 9.17787C8.96544 9.7515 9.005 10.3647 9.005 10.3647C9.02478 10.7801 9.38082 11.1163 9.79621 11.1163H10.6863C11.7149 11.1163 12.4072 11.7493 12.4072 12.6988C12.4072 13.4702 11.8731 14.301 10.6863 14.301Z" fill="#2A6C50"/>
<path d="M15.1969 8.4656C15.1969 6.7645 13.8123 5.37988 12.1112 5.37988C11.498 5.37988 10.8848 5.5579 10.3903 5.91395C10.1134 6.09197 10.054 6.46779 10.2321 6.74472C10.4101 7.02164 10.7859 7.08098 11.0628 6.90296C11.3793 6.68538 11.7551 6.58648 12.131 6.58648C13.1793 6.58648 14.0299 7.43703 14.0299 8.48538C14.0299 8.80186 13.9507 9.09856 13.8123 9.35571C13.654 9.65241 13.7727 10.0085 14.0694 10.1469C14.1485 10.1865 14.2474 10.2063 14.3464 10.2063C14.5639 10.2063 14.7617 10.0876 14.8804 9.88977C15.0782 9.45461 15.1969 8.9601 15.1969 8.4656Z" fill="#2A6C50"/>
<path d="M12.111 4.4305C12.4472 4.4305 12.7044 4.17335 12.7044 3.83709V2.70962C12.7044 2.37335 12.4472 2.11621 12.111 2.11621C11.7747 2.11621 11.5176 2.37335 11.5176 2.70962V3.83709C11.5176 4.17335 11.7945 4.4305 12.111 4.4305Z" fill="#2A6C50"/>
<path d="M17.8676 7.87207H16.7204C16.3841 7.87207 16.127 8.12921 16.127 8.46548C16.127 8.80174 16.3841 9.05888 16.7204 9.05888H17.8478C18.1841 9.05888 18.4412 8.80174 18.4412 8.46548C18.461 8.12921 18.1841 7.87207 17.8676 7.87207Z" fill="#2A6C50"/>
<path d="M15.3747 5.7954C15.5329 5.7954 15.6714 5.73606 15.79 5.61738L16.5813 4.82617C16.8186 4.58881 16.8186 4.21299 16.5813 3.9954C16.3439 3.75804 15.9681 3.75804 15.7505 3.9954L14.9593 4.78661C14.7219 5.02398 14.7219 5.3998 14.9593 5.61738C15.078 5.73606 15.2164 5.7954 15.3747 5.7954Z" fill="#2A6C50"/>
<path d="M15.79 11.3138C15.5527 11.0764 15.1769 11.0764 14.9593 11.3138C14.7219 11.5511 14.7219 11.927 14.9593 12.1445L15.7505 12.9357C15.8692 13.0544 16.0274 13.1138 16.1659 13.1138C16.3241 13.1138 16.4626 13.0544 16.5813 12.9357C16.8186 12.6984 16.8186 12.3226 16.5813 12.105L15.79 11.3138Z" fill="#2A6C50"/>
<path d="M8.43212 5.61738C8.5508 5.73606 8.70904 5.7954 8.84751 5.7954C9.00575 5.7954 9.14421 5.73606 9.26289 5.61738C9.50025 5.38002 9.50025 5.0042 9.26289 4.78661L8.47168 3.9954C8.23432 3.75804 7.8585 3.75804 7.64091 3.9954C7.40355 4.23277 7.40355 4.60859 7.64091 4.82617L8.43212 5.61738Z" fill="#2A6C50"/>
</g>
<defs>
<clipPath id="clip0_398_9657">
<rect width="18" height="18" fill="white" transform="translate(0.5)"/>
</clipPath>
</defs>
</svg>
