<svg width="19" height="18" viewBox="0 0 19 18" fill="none" xmlns="http://www.w3.org/2000/svg">
<path d="M11.4998 12.4999C6.69979 12.4999 6.49979 7.16661 6.99979 4.49995C3.39926 3.69995 2.83335 8.16661 3.00045 10.4999C3.40045 13.2999 7.50045 14.3333 9.50045 14.4999L11.4998 12.4999Z" fill="#88D8B5"/>
<path d="M12.3886 11.2353C11.9732 11.3738 11.538 11.4331 11.1029 11.4331C9.61934 11.4331 8.25451 10.6419 7.52264 9.37599C6.55341 7.69467 6.90945 5.53863 8.35341 4.23313C8.61055 4.01555 8.68967 3.63973 8.55121 3.34302C8.41275 3.02654 8.09627 2.82874 7.76 2.8683C6.83033 2.92764 5.94022 3.20456 5.12923 3.67929C2.22154 5.38039 1.21275 9.13863 2.91385 12.0661C4.00176 13.9452 6.03912 15.132 8.21495 15.132C9.28308 15.132 10.3512 14.8551 11.2809 14.3013C12.0919 13.8265 12.7644 13.2134 13.2985 12.4221C13.4963 12.1452 13.4765 11.7694 13.2787 11.4925C13.0611 11.2353 12.7051 11.1364 12.3886 11.2353ZM8.21495 13.5496C6.59297 13.5496 5.08967 12.6793 4.27868 11.2749C3.03253 9.13863 3.74462 6.38918 5.8611 5.10346C5.16879 6.72544 5.24792 8.60456 6.1578 10.187C7.04791 11.7298 8.63033 12.7782 10.4106 12.9958C9.73802 13.3518 8.98638 13.5496 8.21495 13.5496Z" fill="#2A6C50"/>
<path d="M10.7858 8.24881C10.9638 8.24881 11.1419 8.16969 11.2803 8.05101C11.4188 7.93233 11.4781 7.75431 11.4781 7.5565C11.4781 7.37848 11.399 7.20046 11.2803 7.062C11.0232 6.80485 10.5682 6.80485 10.3111 7.062C10.1726 7.18068 10.1133 7.37848 10.1133 7.5565C10.1133 7.73453 10.1924 7.91255 10.3111 8.05101C10.4298 8.16969 10.6078 8.24881 10.7858 8.24881Z" fill="#2A6C50"/>
<path d="M13.5561 3.10547C13.3188 3.10547 13.1012 3.20437 12.9232 3.36261C12.7649 3.52085 12.666 3.75822 12.666 3.99558C12.666 4.23294 12.7649 4.45052 12.9232 4.62855C13.0814 4.78679 13.3188 4.88569 13.5561 4.88569C13.7935 4.88569 14.0111 4.78679 14.1891 4.62855C14.3473 4.4703 14.4462 4.23294 14.4462 3.99558C14.4462 3.75822 14.3473 3.54063 14.1891 3.36261C14.0111 3.20437 13.7935 3.10547 13.5561 3.10547Z" fill="#2A6C50"/>
<path d="M16.681 8.18951C16.5425 8.05105 16.3249 7.95215 16.1271 7.95215C15.9293 7.95215 15.7118 8.03127 15.5733 8.18951C15.4348 8.32797 15.3359 8.54556 15.3359 8.74336C15.3359 8.94116 15.4151 9.15874 15.5733 9.2972C15.7315 9.43566 15.9293 9.53457 16.1271 9.53457C16.3249 9.53457 16.5425 9.45545 16.681 9.2972C16.8392 9.13896 16.9184 8.94116 16.9184 8.74336C16.9184 8.54556 16.8392 8.32797 16.681 8.18951Z" fill="#2A6C50"/>
</svg>
