<svg width="19" height="18" viewBox="0 0 19 18" fill="none" xmlns="http://www.w3.org/2000/svg">
<g clip-path="url(#clip0_398_9701)">
<path d="M12.5 11C12.5 12.6569 12.5 13 9 13C7.34315 13 6.5 12.6569 6.5 11C6.5 9.34315 7.84315 8 9.5 8C11.1569 8 12.5 9.34315 12.5 11Z" fill="#88D8B5"/>
<path d="M9.50019 5.20219C9.93536 5.20219 10.2914 4.84615 10.2914 4.41098V2.80879C10.2914 2.37362 9.93536 2.01758 9.50019 2.01758C9.06503 2.01758 8.70898 2.37362 8.70898 2.80879V4.41098C8.70898 4.84615 9.06503 5.20219 9.50019 5.20219Z" fill="#2A6C50"/>
<path d="M15.2949 10.9982C15.2949 11.4334 15.651 11.7894 16.0861 11.7894H17.6883C18.1235 11.7894 18.4795 11.4334 18.4795 10.9982C18.4795 10.5631 18.1235 10.207 17.6883 10.207H16.0861C15.6312 10.207 15.2949 10.5631 15.2949 10.9982Z" fill="#2A6C50"/>
<path d="M1.31074 11.7894H2.91294C3.3481 11.7894 3.70415 11.4334 3.70415 10.9982C3.70415 10.5631 3.3481 10.207 2.91294 10.207H1.31074C0.875575 10.207 0.519531 10.5631 0.519531 10.9982C0.519531 11.4334 0.875575 11.7894 1.31074 11.7894Z" fill="#2A6C50"/>
<path d="M14.1489 7.14008C14.3467 7.14008 14.5445 7.06095 14.7027 6.90271L15.85 5.75546C16.1665 5.43898 16.1665 4.94447 15.85 4.62799C15.5335 4.3115 15.039 4.3115 14.7225 4.62799L13.5753 5.77524C13.2588 6.09172 13.2588 6.58623 13.5753 6.90271C13.7533 7.06095 13.9511 7.14008 14.1489 7.14008Z" fill="#2A6C50"/>
<path d="M4.29697 6.90271C4.45522 7.06095 4.65302 7.14008 4.85082 7.14008C5.04862 7.14008 5.24642 7.06095 5.40467 6.90271C5.72115 6.58623 5.72115 6.09172 5.40467 5.77524L4.25741 4.62799C3.94093 4.3115 3.44642 4.3115 3.12994 4.62799C2.81346 4.94447 2.81346 5.43898 3.12994 5.75546L4.29697 6.90271Z" fill="#2A6C50"/>
<path d="M5.54404 12.7979C5.72206 13.1935 6.19679 13.3715 6.59239 13.1935C6.988 13.0155 7.16602 12.5407 6.988 12.1451C6.82976 11.7891 6.73086 11.3935 6.73086 10.9979C6.73086 9.47481 7.97701 8.22865 9.50009 8.22865C11.0232 8.22865 12.2693 9.47481 12.2693 10.9979C12.2693 11.3935 12.1902 11.7891 12.0122 12.1451C11.8342 12.5407 12.0122 13.0155 12.4078 13.1935C12.5067 13.233 12.6254 13.2726 12.744 13.2726C13.0407 13.2726 13.3374 13.0946 13.4561 12.8177C13.7133 12.244 13.8517 11.6309 13.8517 11.0177C13.8517 8.62426 11.8935 6.66602 9.50009 6.66602C7.10668 6.66602 5.14844 8.62426 5.14844 11.0177C5.14844 11.6309 5.2869 12.2243 5.54404 12.7979Z" fill="#2A6C50"/>
<path d="M17.6888 14.4004H1.31074C0.875575 14.4004 0.519531 14.7564 0.519531 15.1916C0.519531 15.6268 0.875575 15.9828 1.31074 15.9828H17.6888C18.1239 15.9828 18.48 15.6268 18.48 15.1916C18.48 14.7564 18.1239 14.4004 17.6888 14.4004Z" fill="#2A6C50"/>
<path d="M10.2904 10.1868L9.49922 10.978L8.70801 10.1868C8.47065 9.94945 8.09482 9.94945 7.87724 10.1868C7.63988 10.4242 7.63988 10.8 7.87724 11.0176L9.08383 12.2242C9.20252 12.3429 9.36076 12.4022 9.49922 12.4022C9.63768 12.4022 9.79592 12.3429 9.9146 12.2242L11.1212 11.0176C11.3586 10.7802 11.3586 10.4044 11.1212 10.1868C10.9036 9.96923 10.5278 9.96923 10.2904 10.1868Z" fill="#2A6C50"/>
</g>
<defs>
<clipPath id="clip0_398_9701">
<rect width="18" height="18" fill="white" transform="translate(0.5)"/>
</clipPath>
</defs>
</svg>
