<svg width="359" height="44" viewBox="0 0 359 44" fill="none" xmlns="http://www.w3.org/2000/svg">
<path d="M281.728 31.7723C281.049 31.6748 280.46 31.9673 280.142 32.5526C279.826 33.1378 279.826 33.9182 280.142 34.4059C280.414 34.8448 280.867 34.9911 281.411 34.8936C281.909 34.7961 282.226 34.2108 282.135 33.6743C282.09 33.4792 282 33.2842 281.818 33.1867C281.637 33.0891 281.456 33.0403 281.275 33.0891C281.139 33.1378 281.049 33.2842 281.093 33.4305C281.139 33.5768 281.23 33.6743 281.365 33.6256C281.502 33.5768 281.637 33.6743 281.637 33.8206C281.683 34.0645 281.546 34.3572 281.275 34.4059C280.958 34.5034 280.686 34.4059 280.505 34.162C280.279 33.8206 280.324 33.2842 280.505 32.894C280.641 32.6501 280.958 32.26 281.637 32.3575C282.135 32.4551 282.543 32.7477 282.769 33.1867C283.041 33.6744 283.041 34.3084 282.815 34.8448C282.407 35.9178 281.139 36.4055 280.142 36.2104C279.554 36.1128 278.965 35.6739 278.558 34.9424C278.014 34.0158 277.833 32.7965 278.105 31.6748C278.149 31.5772 278.105 31.4309 278.014 31.3821C277.833 31.2846 277.833 31.2846 276.882 32.4063L272.488 37.6247C272.443 37.6735 272.443 37.7223 272.443 37.8199C272.443 37.8686 272.443 37.8686 272.443 37.9174C272.488 38.0149 272.579 38.0637 272.669 38.0637H280.052C280.188 38.0637 280.279 37.9661 280.279 37.8199C280.279 37.6735 280.233 37.576 280.097 37.5272C280.052 37.5272 277.198 36.6006 277.198 34.5522C277.198 34.4547 277.154 34.3572 277.063 34.3084C276.972 34.2596 276.882 34.3084 276.791 34.3572L275.024 36.308C274.934 36.4055 274.934 36.503 274.98 36.6006C275.024 36.6981 275.115 36.7469 275.206 36.7469H276.519C276.655 36.7469 276.745 36.6494 276.745 36.503C276.745 36.3567 276.655 36.2592 276.519 36.2592H275.794L276.791 35.1862C277.063 36.3567 278.014 37.0883 278.829 37.576H273.258C274.164 36.503 276.474 33.7231 277.561 32.4551C277.516 33.4305 277.742 34.4547 278.195 35.235C278.693 36.0641 279.372 36.6006 280.097 36.6981C281.23 36.8932 282.769 36.4055 283.313 35.04C283.585 34.3572 283.539 33.528 283.223 32.894C282.86 32.26 282.362 31.8698 281.728 31.7723Z" fill="#97867C"/>
<path d="M281.818 31.4798C281.909 31.4798 282 31.3823 282 31.2847C282 31.2847 282.044 31.0408 282.044 30.6994C282.044 30.163 281.909 29.7728 281.682 29.4802C281.139 28.8949 280.097 29.09 280.052 29.1388C279.961 29.1388 279.87 29.2363 279.87 29.3338C279.87 29.3338 279.826 29.5777 279.826 29.9191C279.826 30.4556 279.961 30.8457 280.188 31.1384C280.731 31.7237 281.773 31.4798 281.818 31.4798ZM280.323 29.6265C280.595 29.5777 281.093 29.5777 281.365 29.8704C281.546 30.0654 281.592 30.4556 281.592 30.6994C281.592 30.797 281.592 30.8946 281.592 30.9921C281.32 31.0408 280.821 31.0408 280.55 30.7482C280.369 30.5532 280.323 30.163 280.323 29.9191C280.323 29.7728 280.323 29.6752 280.323 29.6265Z" fill="#97867C"/>
<path d="M282.136 13.4345C282.091 13.8734 282.227 14.3123 282.453 14.6049C282.815 15.1414 283.54 15.1902 283.993 14.8C284.355 14.4586 284.401 13.8734 284.129 13.4832C284.038 13.3369 283.857 13.2393 283.676 13.2393C283.495 13.2393 283.314 13.2881 283.178 13.3856C283.087 13.4832 283.042 13.6295 283.133 13.7758C283.223 13.8734 283.359 13.9221 283.45 13.8246C283.495 13.7758 283.54 13.7758 283.585 13.7758C283.631 13.7758 283.676 13.8246 283.721 13.8246C283.857 13.9709 283.812 14.2148 283.676 14.3611C283.404 14.6049 283.042 14.5561 282.815 14.2635C282.634 14.0197 282.589 13.7758 282.589 13.4832C282.634 13.1906 282.725 12.9467 282.952 12.7517C283.585 12.1664 284.582 12.2639 285.08 12.9955C285.896 14.0684 285.714 15.6778 284.717 16.5558C283.268 17.8725 280.913 17.0922 279.917 15.9705L270.859 5.92374C270.768 5.8262 270.632 5.8262 270.496 5.92374C270.45 5.97251 270.406 6.02128 270.406 6.11883C270.406 6.16759 270.45 6.26513 270.496 6.31391L279.555 16.3606C280.687 17.6287 283.314 18.5066 284.989 16.9947C286.167 15.9217 286.349 13.9709 285.397 12.6541C284.717 11.6787 283.45 11.5324 282.589 12.3127C282.362 12.6541 282.181 13.0443 282.136 13.4345Z" fill="#97867C"/>
<path d="M285.08 26.9446C283.404 25.4327 280.777 26.3106 279.644 27.5787L270.586 37.6254C270.541 37.6742 270.496 37.7229 270.496 37.8205C270.496 37.918 270.541 37.9668 270.586 38.0156C270.677 38.1131 270.813 38.1131 270.948 38.0156L280.007 27.9688C281.004 26.8471 283.359 26.0668 284.808 27.3836C285.805 28.2615 285.94 29.8709 285.17 30.9439C284.627 31.6754 283.676 31.773 283.041 31.1877C282.815 30.9926 282.725 30.7487 282.679 30.4561C282.634 30.1635 282.725 29.8709 282.906 29.6758C283.132 29.3832 283.494 29.3344 283.766 29.5783C283.902 29.7245 283.947 29.9684 283.812 30.1147C283.766 30.1635 283.721 30.1635 283.676 30.1635C283.631 30.1635 283.585 30.1635 283.54 30.1147C283.45 30.0172 283.268 30.0172 283.222 30.1635C283.132 30.2611 283.178 30.4561 283.268 30.5537C283.404 30.6512 283.585 30.7487 283.766 30.7C283.947 30.7 284.083 30.6025 284.219 30.4561C284.491 30.0659 284.445 29.4807 284.083 29.1393C283.631 28.7004 282.906 28.7979 282.543 29.3344C282.317 29.6758 282.181 30.1147 282.227 30.5049C282.271 30.9439 282.453 31.334 282.77 31.5778C283.631 32.3582 284.899 32.2119 285.578 31.2364C286.438 29.9684 286.257 28.0176 285.08 26.9446Z" fill="#97867C"/>
<path d="M285.261 21.9691L288.975 17.8236C289.066 17.7261 289.066 17.5309 288.975 17.4334L286.801 14.9949C286.711 14.8973 286.62 14.8973 286.53 14.9461C286.439 14.9949 286.393 15.0924 286.393 15.19V17.5797H285.895C285.759 17.5797 285.669 17.6773 285.669 17.8236C285.669 17.9699 285.759 18.0675 285.895 18.0675H286.665C286.801 18.0675 286.892 17.9699 286.892 17.8236V15.824L288.477 17.6285L284.989 21.4814L282.634 18.8478H284.401V19.5305L284.129 19.238C284.038 19.1404 283.903 19.1404 283.766 19.238C283.676 19.3355 283.676 19.5305 283.766 19.6281L284.446 20.4084C284.537 20.506 284.627 20.506 284.718 20.4572C284.808 20.4084 284.854 20.3108 284.854 20.2133V18.6039C284.854 18.4576 284.763 18.36 284.627 18.36H282.045C281.955 18.36 281.864 18.4088 281.819 18.5064C281.819 18.5552 281.819 18.5552 281.819 18.6039C281.819 18.6527 281.864 18.7502 281.91 18.799L284.763 21.9691L281.91 25.1392C281.864 25.1879 281.819 25.2367 281.819 25.3343C281.819 25.383 281.819 25.383 281.819 25.4318C281.864 25.5293 281.955 25.5781 282.045 25.5781H284.627C284.763 25.5781 284.854 25.4806 284.854 25.3343V23.7249C284.854 23.6273 284.808 23.5298 284.718 23.481C284.627 23.4322 284.537 23.481 284.446 23.5298L283.766 24.3101C283.676 24.4076 283.676 24.6027 283.766 24.7002C283.857 24.7978 283.993 24.7978 284.129 24.7002L284.401 24.4076V25.0904H282.634L284.989 22.4568L288.477 26.3097L286.892 28.1142V26.1146C286.892 25.9683 286.801 25.8707 286.665 25.8707H285.895C285.759 25.8707 285.669 25.9683 285.669 26.1146C285.669 26.2609 285.759 26.3584 285.895 26.3584H286.393V28.7482C286.393 28.8458 286.439 28.9433 286.53 28.992C286.62 29.0408 286.711 28.992 286.801 28.9433L288.975 26.5048C289.066 26.4073 289.066 26.2121 288.975 26.1146L285.261 21.9691Z" fill="#97867C"/>
<path d="M293.233 21.7255L290.288 18.4579C290.198 18.3604 290.062 18.3604 289.927 18.4579L287.028 21.6767C286.847 21.8719 286.847 22.1157 287.028 22.3108L289.927 25.5296C290.017 25.6272 290.153 25.6272 290.288 25.5296L293.233 22.262C293.369 22.1157 293.369 21.8719 293.233 21.7255ZM290.107 18.9943L291.964 21.0428L290.244 20.1648C290.198 20.1161 290.107 20.1161 290.062 20.1648L288.296 20.994L290.107 18.9943ZM290.107 24.9444L288.296 22.8961L290.062 23.7251C290.107 23.7739 290.198 23.7739 290.244 23.7251L291.964 22.8472L290.107 24.9444ZM290.107 23.2374L287.526 21.9694L290.107 20.7014L292.644 21.9694L290.107 23.2374Z" fill="#97867C"/>
<path d="M270.859 39.1368C270.224 39.088 269.636 39.6245 269.545 40.3073C269.499 40.8438 269.862 41.3315 270.36 41.3802C270.541 41.3802 270.722 41.3315 270.859 41.1852C270.994 41.0388 271.085 40.8438 271.13 40.6487C271.13 40.5024 271.04 40.356 270.903 40.356C270.768 40.356 270.632 40.4536 270.632 40.5999C270.632 40.6487 270.587 40.7462 270.541 40.7462C270.496 40.795 270.45 40.795 270.36 40.795C270.134 40.7462 269.952 40.5512 269.998 40.3073C269.998 40.1122 270.088 39.9171 270.269 39.7708C270.405 39.6245 270.587 39.5757 270.768 39.5757C271.085 39.6245 271.357 39.7708 271.538 40.0146C271.719 40.2585 271.81 40.5999 271.81 40.9413C271.719 42.0143 270.859 42.7946 269.907 42.6483C268.458 42.502 267.597 41.2827 267.597 39.4782V39.4294L283.359 22.1646C283.54 21.9695 283.54 21.7257 283.359 21.4819L267.597 4.21701V4.16824C267.597 2.31496 268.458 1.14446 269.907 0.99815C270.859 0.900609 271.719 1.68094 271.81 2.70513C271.854 3.04652 271.764 3.38791 271.538 3.63177C271.357 3.87562 271.085 4.0707 270.768 4.0707C270.587 4.0707 270.405 4.02193 270.269 3.87562C270.134 3.7293 270.043 3.53422 269.998 3.33914C269.952 3.09529 270.134 2.85143 270.36 2.85143C270.405 2.85143 270.496 2.85143 270.541 2.9002C270.587 2.94898 270.632 2.99775 270.632 3.04651C270.632 3.19283 270.768 3.29037 270.903 3.29037C271.04 3.29037 271.13 3.14406 271.13 2.99775C271.13 2.80266 271.04 2.60758 270.859 2.46127C270.722 2.31496 270.541 2.26619 270.36 2.26619C269.862 2.31496 269.499 2.80266 269.545 3.33914C269.59 4.0707 270.179 4.60718 270.859 4.50964C271.266 4.46087 271.673 4.21701 271.945 3.87562C272.217 3.48545 272.353 3.04651 272.308 2.55881C272.172 1.19324 271.13 0.21782 269.907 0.364132H91.3201V0.412902C91.2748 0.412902 91.1842 0.412903 91.139 0.364132C89.916 0.21782 88.829 1.242 88.7385 2.55881C88.6932 3.04651 88.829 3.48545 89.1008 3.87562C89.3726 4.26578 89.7802 4.46087 90.1878 4.50964C90.8219 4.55841 91.4107 4.02193 91.5013 3.33914C91.5466 2.80266 91.1842 2.31496 90.686 2.26619C90.5048 2.26619 90.3236 2.31496 90.1878 2.46127C90.0519 2.60758 89.9613 2.80266 89.916 2.99775C89.916 3.14406 90.0066 3.29037 90.1425 3.29037C90.2784 3.29037 90.4142 3.19283 90.4142 3.04651C90.4142 2.99775 90.4596 2.9002 90.5048 2.9002C90.5501 2.85143 90.5954 2.85143 90.686 2.85143C90.9125 2.90021 91.0936 3.09529 91.0483 3.33914C91.0483 3.53422 90.9578 3.7293 90.7766 3.87562C90.6407 4.02193 90.4596 4.0707 90.2784 4.0707C89.9613 4.02193 89.6895 3.87562 89.5084 3.63177C89.3272 3.38791 89.2366 3.04652 89.2366 2.70513C89.3272 1.63217 90.1878 0.851839 91.139 0.99815C92.5883 1.14446 93.4488 2.36373 93.4488 4.16824V4.21701L77.6871 21.4819C77.506 21.6769 77.506 21.9208 77.6871 22.1646L93.4488 39.4294V39.4782C93.4488 41.3315 92.5883 42.502 91.139 42.6483C90.1878 42.7459 89.3272 41.9655 89.2366 40.9413C89.1914 40.5999 89.2819 40.2585 89.5084 40.0146C89.6895 39.7708 89.9613 39.5757 90.2784 39.5757C90.4596 39.5757 90.6407 39.6245 90.7766 39.7708C90.9125 39.9171 91.003 40.1122 91.0483 40.3073C91.0936 40.5512 90.9125 40.795 90.686 40.795C90.6407 40.795 90.5501 40.795 90.5048 40.7462C90.4596 40.6974 90.4142 40.6487 90.4142 40.5999C90.4142 40.4536 90.2784 40.356 90.1425 40.356C90.0066 40.356 89.916 40.5024 89.916 40.6487C89.916 40.8438 90.0066 41.0388 90.1878 41.1852C90.3236 41.3315 90.5048 41.3802 90.686 41.3802C91.1842 41.3315 91.5466 40.8438 91.5013 40.3073C91.4559 39.5757 90.8672 39.0393 90.1878 39.1368C89.7802 39.1856 89.3726 39.4294 89.1008 39.7708C88.829 40.161 88.6932 40.5999 88.7385 41.0876C88.8743 42.4045 89.8707 43.3798 91.0483 43.2823H270.179C271.266 43.2335 272.172 42.3069 272.262 41.0876C272.308 40.5999 272.172 40.161 271.9 39.7708C271.673 39.4294 271.266 39.1856 270.859 39.1368ZM92.5429 1.14446H268.458C267.914 1.53463 267.506 2.11988 267.28 2.85143H93.7206C93.4941 2.11988 93.0865 1.53463 92.5429 1.14446ZM78.0495 21.9695L93.8564 4.70472C93.9017 4.65595 93.947 4.60718 93.947 4.50964V4.36332C93.947 4.02193 93.9017 3.72931 93.8564 3.43669H267.19C267.144 3.72931 267.099 4.0707 267.099 4.36332V4.50964C267.099 4.55841 267.144 4.65595 267.19 4.70472L282.952 21.9695L267.19 39.2343C267.144 39.2832 267.099 39.3319 267.099 39.4294V39.5757C267.099 39.8684 267.099 40.161 267.144 40.4049H93.8564C93.9017 40.161 93.9017 39.8684 93.9017 39.5757V39.4294C93.9017 39.3807 93.8564 39.2832 93.8111 39.2343L78.0495 21.9695ZM93.7206 40.9901H267.28C267.506 41.7704 267.914 42.4045 268.458 42.7946H92.5429C93.1318 42.4045 93.5394 41.7704 93.7206 40.9901Z" fill="#97867C"/>
<path d="M276.882 11.5812C277.833 12.703 277.833 12.703 278.014 12.6054C278.105 12.5567 278.149 12.4103 278.105 12.3128C277.833 11.1911 278.014 9.97181 278.558 9.04512C278.965 8.36236 279.509 7.92342 280.142 7.77711C281.139 7.58203 282.407 8.06973 282.815 9.14273C283.041 9.67917 282.996 10.3132 282.769 10.8009C282.543 11.2886 282.135 11.5812 281.637 11.63C280.958 11.7275 280.641 11.3373 280.505 11.0935C280.279 10.7034 280.279 10.1669 280.505 9.82545C280.686 9.58165 280.912 9.48405 281.275 9.58165C281.502 9.63041 281.683 9.92305 281.637 10.1669C281.592 10.3132 281.502 10.4107 281.365 10.362C281.23 10.3132 281.093 10.4107 281.093 10.557C281.049 10.7034 281.139 10.8497 281.275 10.8984C281.456 10.9472 281.637 10.8984 281.818 10.8009C282 10.7034 282.09 10.5083 282.135 10.3132C282.226 9.77669 281.909 9.19149 281.411 9.09388C280.867 8.9476 280.414 9.14273 280.142 9.58165C279.826 10.0693 279.826 10.8497 280.142 11.4349C280.46 12.0201 281.049 12.3128 281.728 12.2153C282.362 12.1177 282.906 11.7275 283.223 11.0935C283.539 10.4595 283.585 9.63041 283.313 8.9476C282.769 7.58203 281.275 7.04555 280.097 7.2894C279.372 7.43571 278.693 7.97219 278.195 8.75248C277.742 9.58165 277.516 10.557 277.561 11.5325C276.519 10.2644 274.209 7.53326 273.258 6.41153H278.829C278.014 6.85047 277.063 7.6308 276.791 8.80132L275.794 7.72834H276.519C276.655 7.72834 276.745 7.63079 276.745 7.48448C276.745 7.33817 276.655 7.24063 276.519 7.24063H275.206C275.115 7.24063 275.024 7.28941 274.98 7.38694C274.934 7.48449 274.98 7.58203 275.024 7.67957L276.791 9.63041C276.882 9.72793 276.972 9.72793 277.063 9.67917C277.154 9.63041 277.198 9.53289 277.198 9.43529C277.198 7.43571 280.097 6.4603 280.097 6.4603C280.233 6.41153 280.279 6.31399 280.279 6.16768C280.279 6.02136 280.142 5.92383 280.052 5.92383H272.669C272.579 5.92383 272.488 5.9726 272.443 6.07013C272.443 6.1189 272.443 6.11891 272.443 6.16768C272.443 6.21645 272.443 6.31399 272.488 6.36276L276.882 11.5812Z" fill="#97867C"/>
<path d="M280.052 14.8484C280.097 14.8484 281.139 15.0923 281.682 14.507C281.909 14.2144 282.044 13.8243 282.044 13.2877C282.044 12.9463 282 12.7025 282 12.7025C282 12.6049 281.909 12.5074 281.818 12.5074C281.773 12.5074 280.731 12.2635 280.188 12.8488C279.961 13.1415 279.826 13.5316 279.826 14.0681C279.826 14.4095 279.87 14.6534 279.87 14.6534C279.87 14.7509 279.961 14.8484 280.052 14.8484ZM280.55 13.239C280.777 12.9463 281.275 12.9463 281.592 12.9951C281.592 13.0927 281.592 13.1902 281.592 13.2877C281.592 13.5316 281.546 13.9218 281.365 14.1168C281.139 14.4095 280.64 14.4095 280.323 14.3607C280.323 14.2632 280.323 14.1656 280.323 14.0681C280.323 13.7754 280.323 13.4341 280.55 13.239Z" fill="#97867C"/>
<path d="M280.912 21.7253H274.798C274.662 21.7253 274.571 21.8228 274.571 21.9692C274.571 22.1154 274.662 22.213 274.798 22.213H280.912L280.459 22.7007C280.369 22.7982 280.369 22.9934 280.459 23.0909C280.505 23.1396 280.55 23.1884 280.64 23.1884C280.686 23.1884 280.777 23.1396 280.821 23.0909L281.682 22.1154C281.682 22.1154 281.728 22.0667 281.728 22.0179C281.728 21.9692 281.728 21.9692 281.728 21.9204C281.728 21.9204 281.728 21.9204 281.728 21.8716V21.8228C281.728 21.8228 281.728 21.8228 281.728 21.774C281.728 21.7253 281.682 21.7253 281.682 21.6765L280.821 20.7011C280.731 20.6035 280.595 20.6035 280.459 20.7011C280.369 20.7987 280.369 20.9937 280.459 21.0913L280.912 21.7253Z" fill="#97867C"/>
<path d="M271.401 21.9695C271.401 21.8232 271.311 21.7256 271.174 21.7256H266.781V22.2621H271.174C271.265 22.2621 271.401 22.1157 271.401 21.9695Z" fill="#97867C"/>
<path d="M272.172 21.9699C272.172 22.3601 272.444 22.6527 272.761 22.6527C273.078 22.6527 273.349 22.3601 273.349 21.9699C273.349 21.5798 273.078 21.2871 272.761 21.2871C272.444 21.3359 272.172 21.6285 272.172 21.9699Z" fill="#97867C"/>
<path d="M279.644 20.5059C279.689 20.4084 279.644 20.3109 279.598 20.2133L268.91 8.31323C268.819 8.21569 268.728 8.21568 268.638 8.26446C268.547 8.31323 268.502 8.41076 268.502 8.50828V18.4576C268.502 18.6038 268.593 18.7014 268.728 18.7014H275.296C275.387 18.7014 275.478 18.6526 275.522 18.5551C275.568 18.4576 275.522 18.36 275.478 18.2624L270.45 12.6538C270.359 12.5563 270.269 12.5563 270.178 12.605C270.088 12.6538 270.042 12.7514 270.042 12.8489V16.4579C270.042 16.6043 270.133 16.7018 270.269 16.7018H271.718C271.809 16.7018 271.899 16.653 271.944 16.5555C271.99 16.4579 271.944 16.3604 271.899 16.2629L271.129 15.4338C271.039 15.3362 270.902 15.3362 270.767 15.4338C270.676 15.5313 270.676 15.7263 270.767 15.8239L271.129 16.2141H270.495V13.5317L274.707 18.2137H268.955V9.19108L278.829 20.1645H266.781V20.701H279.417C279.508 20.701 279.598 20.6034 279.644 20.5059Z" fill="#97867C"/>
<path d="M268.955 34.7961V25.7735H274.707L270.495 30.4555V27.7731H271.129L270.767 28.1633C270.676 28.2608 270.676 28.4559 270.767 28.5534C270.858 28.651 270.993 28.651 271.129 28.5534L271.899 27.7244C271.99 27.6268 271.99 27.5293 271.944 27.4317C271.899 27.3342 271.809 27.2854 271.718 27.2854H270.269C270.133 27.2854 270.042 27.383 270.042 27.5293V31.1383C270.042 31.2358 270.088 31.3334 270.178 31.3822C270.269 31.4309 270.359 31.3822 270.45 31.3334L275.478 25.7248C275.568 25.6273 275.568 25.5297 275.522 25.4321C275.478 25.3346 275.387 25.2859 275.296 25.2859H268.728C268.593 25.2859 268.502 25.3834 268.502 25.5297V35.4789C268.502 35.5765 268.547 35.674 268.638 35.7227C268.728 35.7715 268.819 35.7227 268.91 35.674L279.598 23.774C279.689 23.6764 279.689 23.5788 279.644 23.4813C279.598 23.3838 279.508 23.335 279.417 23.335H266.781V23.8715H278.829L268.955 34.7961Z" fill="#97867C"/>
<path d="M84.1187 32.4063C83.1676 31.2846 83.1676 31.2846 82.9864 31.3821C82.8958 31.4309 82.8505 31.5772 82.8958 31.6748C83.1676 32.7965 82.9864 34.0158 82.4429 34.9424C82.0353 35.6252 81.4917 36.0641 80.8577 36.2104C79.8613 36.4055 78.593 35.9178 78.1854 34.8448C77.9589 34.3084 78.0042 33.6744 78.2307 33.1867C78.4572 32.6989 78.8648 32.4063 79.363 32.3575C80.0424 32.26 80.3594 32.6501 80.4954 32.894C80.7218 33.2842 80.7218 33.8206 80.4954 34.162C80.3142 34.4059 80.0877 34.5034 79.7253 34.4059C79.4989 34.3572 79.3177 34.0645 79.363 33.8206C79.4083 33.6743 79.4989 33.5768 79.6348 33.6256C79.7706 33.6743 79.9065 33.5768 79.9065 33.4305C79.9518 33.2842 79.8613 33.1378 79.7253 33.0891C79.5442 33.0403 79.363 33.0891 79.1819 33.1867C79.0007 33.2842 78.9101 33.4792 78.8648 33.6743C78.7743 34.2108 79.0913 34.7961 79.5895 34.8936C80.133 35.04 80.5859 34.8448 80.8577 34.4059C81.1747 33.9182 81.1747 33.1378 80.8577 32.5526C80.5406 31.9673 79.9518 31.6748 79.2724 31.7723C78.6383 31.8698 78.0949 32.26 77.7778 32.894C77.4608 33.528 77.4155 34.3572 77.6872 35.04C78.2307 36.4055 79.7253 36.9419 80.903 36.6981C81.6277 36.5518 82.307 36.0153 82.8052 35.235C83.2581 34.4059 83.4846 33.4305 83.4393 32.4551C84.4811 33.7231 86.7909 36.4543 87.7421 37.576H82.2164C83.0317 37.1371 83.9828 36.3567 84.2546 35.1862L85.251 36.2592H84.5263C84.3905 36.2592 84.2998 36.3567 84.2998 36.503C84.2998 36.6494 84.3905 36.7469 84.5263 36.7469H85.8398C85.9304 36.7469 86.021 36.6981 86.0662 36.6006C86.1115 36.503 86.0662 36.4055 86.021 36.308L84.2546 34.3572C84.164 34.2596 84.0734 34.2596 83.9828 34.3084C83.8922 34.3572 83.8469 34.4547 83.8469 34.5522C83.8469 36.5519 80.9483 37.5272 80.9483 37.5272C80.8123 37.576 80.7671 37.6735 80.7671 37.8199C80.7671 37.9661 80.903 38.0637 80.9935 38.0637H88.3762C88.4667 38.0637 88.5573 38.0149 88.6027 37.9174C88.6027 37.8686 88.6027 37.8686 88.6027 37.8199C88.6027 37.7711 88.6027 37.6735 88.5573 37.6247L84.1187 32.4063Z" fill="#97867C"/>
<path d="M80.948 29.1393C80.9026 29.1393 79.8609 28.8954 79.3174 29.4807C79.0909 29.7732 78.9551 30.1634 78.9551 30.6999C78.9551 31.0413 79.0004 31.2851 79.0004 31.2851C79.0004 31.3827 79.0909 31.4802 79.1816 31.4802C79.2268 31.4802 80.2686 31.724 80.812 31.1388C81.0385 30.8462 81.1744 30.456 81.1744 29.9196C81.1744 29.5782 81.1291 29.3343 81.1291 29.3343C81.1291 29.2368 81.0385 29.1393 80.948 29.1393ZM80.495 30.7487C80.2686 31.0413 79.7703 31.0413 79.4533 30.9926C79.4533 30.895 79.4533 30.7974 79.4533 30.6999C79.4533 30.456 79.4985 30.0659 79.6797 29.8708C79.9062 29.5782 80.4044 29.5782 80.7215 29.6269C80.7215 29.7245 80.7215 29.822 80.7215 29.9196C80.7215 30.1634 80.6762 30.5535 80.495 30.7487Z" fill="#97867C"/>
<path d="M75.9203 17.0435C77.5962 18.5554 80.2231 17.6776 81.3554 16.4095L90.4138 6.36274C90.4592 6.31397 90.5045 6.2652 90.5045 6.16765C90.5045 6.11889 90.4592 6.02134 90.4138 5.97257C90.3233 5.87503 90.1874 5.87503 90.0515 5.97257L80.9931 16.0193C79.9967 17.141 77.6415 17.9214 76.1921 16.6046C75.1957 15.7267 75.0598 14.1173 75.8298 13.0443C76.3733 12.3127 77.3244 12.2152 77.9585 12.8005C78.185 12.9955 78.2756 13.2394 78.3208 13.5321C78.3661 13.8246 78.2756 14.1173 78.0944 14.3124C77.8679 14.6049 77.5056 14.6538 77.2338 14.4099C77.098 14.2636 77.0526 14.0197 77.1886 13.8734C77.2338 13.8246 77.2791 13.8246 77.3244 13.8246C77.3697 13.8246 77.415 13.8246 77.4603 13.8734C77.5509 13.971 77.732 13.971 77.7774 13.8246C77.8679 13.7271 77.8227 13.5321 77.732 13.4345C77.5962 13.3369 77.415 13.2394 77.2338 13.2882C77.0526 13.2882 76.9168 13.3857 76.7809 13.5321C76.5092 13.9222 76.5544 14.5074 76.9168 14.8488C77.3697 15.2878 78.0944 15.1902 78.4567 14.6538C78.6832 14.3124 78.8191 13.8734 78.7737 13.4832C78.7285 13.0443 78.5473 12.6541 78.2303 12.4103C77.3697 11.63 76.1015 11.7763 75.4222 12.7517C74.5616 14.0197 74.7428 15.9706 75.9203 17.0435Z" fill="#97867C"/>
<path d="M78.8644 30.5049C78.9096 30.0659 78.7738 29.627 78.5473 29.3344C78.185 28.7979 77.4603 28.7492 77.0074 29.1393C76.6451 29.4807 76.5998 30.0659 76.8715 30.4561C76.9621 30.6025 77.1433 30.7 77.3245 30.7C77.5056 30.7 77.6868 30.6512 77.8226 30.5537C77.9132 30.4561 77.9585 30.3098 77.8679 30.1635C77.7774 30.0659 77.6415 30.0172 77.5509 30.1147C77.5056 30.1635 77.4603 30.1635 77.415 30.1635C77.3697 30.1635 77.3245 30.1147 77.2792 30.1147C77.1433 29.9684 77.1885 29.7245 77.3245 29.5783C77.5962 29.3344 77.9585 29.3832 78.185 29.6758C78.3662 29.9197 78.4115 30.1635 78.4115 30.4561C78.3662 30.7487 78.2755 30.9926 78.0491 31.1877C77.415 31.773 76.4186 31.6754 75.9204 30.9439C75.1051 29.8709 75.2863 28.2615 76.2827 27.3836C77.7321 26.0668 80.0872 26.8471 81.0837 27.9688L90.1421 38.0156C90.2327 38.1131 90.3686 38.1131 90.5045 38.0156C90.5497 37.9668 90.595 37.918 90.595 37.8205C90.595 37.7718 90.5497 37.6742 90.5045 37.6254L81.446 27.5787C80.3137 26.3106 77.6868 25.4327 76.011 26.9446C74.8334 28.0176 74.6522 29.9684 75.6033 31.2853C76.2827 32.2606 77.5509 32.4069 78.4115 31.6266C78.6379 31.334 78.8191 30.9439 78.8644 30.5049Z" fill="#97867C"/>
<path d="M75.3772 26.0658C75.3772 25.9195 75.2866 25.8219 75.1507 25.8219H74.3808C74.2449 25.8219 74.1543 25.9195 74.1543 26.0658V28.0654L72.5691 26.2609L76.0566 22.408L78.4117 25.0416H76.6454V24.3588L76.9171 24.6514C77.0077 24.749 77.1436 24.749 77.2795 24.6514C77.37 24.5539 77.37 24.3589 77.2795 24.2613L76.6001 23.4809C76.5095 23.3834 76.4189 23.3834 76.3283 23.4322C76.2377 23.4809 76.1925 23.5785 76.1925 23.6761V25.2855C76.1925 25.4318 76.283 25.5294 76.4189 25.5294H79.0006C79.0911 25.5294 79.1818 25.4805 79.2271 25.383C79.2271 25.3342 79.2271 25.3342 79.2271 25.2855C79.2271 25.2367 79.1818 25.1392 79.1364 25.0904L76.283 21.9203L79.1364 18.7502C79.1818 18.7015 79.2271 18.6527 79.2271 18.5551C79.2271 18.5063 79.2271 18.5063 79.2271 18.4576C79.1818 18.3601 79.0911 18.3113 79.0006 18.3113H76.4189C76.283 18.3113 76.1925 18.4088 76.1925 18.5551V20.1645C76.1925 20.2621 76.2377 20.3596 76.3283 20.4084C76.4189 20.4572 76.5095 20.4084 76.6001 20.3596L77.2795 19.5793C77.37 19.4818 77.37 19.2867 77.2795 19.1891C77.1889 19.0916 77.053 19.0916 76.9171 19.1891L76.6454 19.5793V18.8965H78.4117L76.0566 21.5301L72.5691 17.6773L74.1543 15.8727V17.9211C74.1543 18.0674 74.2449 18.1649 74.3808 18.1649H75.1507C75.2866 18.1649 75.3772 18.0674 75.3772 17.9211C75.3772 17.7748 75.2866 17.6773 75.1507 17.6773H74.6525V15.2875C74.6525 15.1899 74.6072 15.0924 74.5166 15.0436C74.4261 14.9949 74.3355 15.0436 74.2449 15.0924L72.0709 17.531C71.9803 17.6285 71.9803 17.8235 72.0709 17.9211L75.7848 22.0666L72.0709 26.2121C71.9803 26.3097 71.9803 26.5047 72.0709 26.6022L74.2449 29.0408C74.3355 29.1383 74.4261 29.1383 74.5166 29.0896C74.6072 29.0408 74.6525 28.9433 74.6525 28.8457V26.456H75.1507C75.2866 26.3097 75.3772 26.2121 75.3772 26.0658Z" fill="#97867C"/>
<path d="M73.973 21.6767L71.0743 18.4579C70.9837 18.3604 70.8478 18.3604 70.7119 18.4579L67.7679 21.7255C67.632 21.8719 67.632 22.1157 67.7679 22.3108L70.7119 25.5784C70.8025 25.676 70.9384 25.676 71.0743 25.5784L73.973 22.3595C74.1541 22.1157 74.1541 21.8719 73.973 21.6767ZM70.8931 18.9943L72.7048 21.0428L70.9384 20.2136C70.8931 20.1648 70.8025 20.1648 70.7572 20.2136L69.0361 21.0915L70.8931 18.9943ZM70.8931 24.9444L69.0361 22.8961L70.7572 23.7739C70.8025 23.8227 70.8931 23.8227 70.9384 23.7739L72.7048 22.9448L70.8931 24.9444ZM70.8931 23.2374L68.3567 21.9694L70.8931 20.7014L73.4747 21.9694L70.8931 23.2374Z" fill="#97867C"/>
<path d="M79.3179 12.2153C79.9972 12.3128 80.5861 12.0201 80.903 11.4349C81.2201 10.8497 81.2201 10.0693 80.903 9.58165C80.6313 9.14273 80.1784 8.99636 79.6349 9.09388C79.1367 9.19149 78.8197 9.77669 78.9102 10.3132C78.9555 10.5083 79.0461 10.7034 79.2273 10.8009C79.4084 10.8984 79.5896 10.9472 79.7708 10.8984C79.9067 10.8497 79.9972 10.7034 79.952 10.557C79.9067 10.4107 79.816 10.3132 79.6802 10.362C79.5443 10.4107 79.4084 10.3132 79.4084 10.1669C79.3631 9.92305 79.499 9.63041 79.7708 9.58165C80.0878 9.48405 80.3596 9.58165 80.5407 9.82545C80.7672 10.1669 80.7219 10.7034 80.5407 11.0935C80.4049 11.3373 80.0878 11.7275 79.4084 11.63C78.9102 11.5325 78.5026 11.2398 78.2761 10.8009C78.0044 10.3132 78.0044 9.67917 78.2309 9.14273C78.6385 8.06973 79.9067 7.58203 80.903 7.77711C81.4919 7.87465 82.0807 8.31359 82.4883 9.04512C83.0318 9.97181 83.213 11.1911 82.9412 12.3128C82.8959 12.4103 82.9412 12.5567 83.0318 12.6054C83.213 12.703 83.213 12.703 84.1641 11.5812L88.5574 6.36276C88.6027 6.31399 88.6027 6.26522 88.6027 6.16768C88.6027 6.11891 88.6027 6.1189 88.6027 6.07013C88.5574 5.9726 88.4669 5.92383 88.3763 5.92383H80.9937C80.8578 5.92383 80.7672 6.02136 80.7672 6.16768C80.7672 6.31399 80.8125 6.41153 80.9484 6.4603C80.9937 6.4603 83.8471 7.38694 83.8471 9.43529C83.8471 9.53289 83.8924 9.63041 83.9829 9.67917C84.0735 9.72793 84.1641 9.67917 84.2547 9.63041L86.0211 7.67957C86.1117 7.58203 86.1117 7.48449 86.0664 7.38694C86.0211 7.28941 85.9305 7.24063 85.8399 7.24063H84.5265C84.3906 7.24063 84.3 7.33817 84.3 7.48448C84.3 7.63079 84.3906 7.72834 84.5265 7.72834H85.2511L84.2547 8.80132C83.9829 7.6308 83.0318 6.89924 82.2165 6.41153H87.7875C86.8816 7.48449 84.5718 10.2644 83.4847 11.5325C83.53 10.557 83.3035 9.53289 82.8506 8.75248C82.3525 7.92342 81.6731 7.38694 80.9484 7.2894C79.816 7.09432 78.2761 7.58203 77.7326 8.9476C77.4609 9.63041 77.5062 10.4595 77.8232 11.0935C78.1403 11.6787 78.6838 12.1177 79.3179 12.2153Z" fill="#97867C"/>
<path d="M79.1816 12.5076C79.0909 12.5076 79.0004 12.6051 79.0004 12.7027C79.0004 12.7027 78.9551 12.9465 78.9551 13.2879C78.9551 13.8245 79.0909 14.2146 79.3174 14.5072C79.8609 15.0925 80.9026 14.8973 80.948 14.8486C81.0385 14.8486 81.1291 14.7511 81.1291 14.6535C81.1291 14.6535 81.1744 14.4097 81.1744 14.0683C81.1744 13.5318 81.0385 13.1417 80.812 12.849C80.2686 12.215 79.2268 12.4588 79.1816 12.5076ZM80.7215 14.3609C80.4497 14.4097 79.9515 14.4097 79.6797 14.117C79.4985 13.922 79.4533 13.5318 79.4533 13.2879C79.4533 13.1904 79.4533 13.0929 79.4533 12.9953C79.725 12.9465 80.2233 12.9465 80.495 13.2392C80.6762 13.4343 80.7215 13.8245 80.7215 14.0683C80.7215 14.1659 80.7215 14.2634 80.7215 14.3609Z" fill="#97867C"/>
<path d="M80.0872 22.262H86.2017C86.3375 22.262 86.4281 22.1645 86.4281 22.0181C86.4281 21.8718 86.3375 21.7743 86.2017 21.7743H80.0872L80.5402 21.2865C80.6307 21.189 80.6307 20.994 80.5402 20.8964C80.4495 20.7989 80.3137 20.7989 80.1778 20.8964L79.3173 21.8718C79.3173 21.8718 79.272 21.9206 79.272 21.9694C79.272 21.9694 79.272 21.9694 79.272 22.0181V22.0669C79.272 22.0669 79.272 22.0669 79.272 22.1157C79.272 22.1645 79.272 22.1645 79.272 22.2132C79.272 22.262 79.3173 22.262 79.3173 22.3108L80.1778 23.2862C80.2231 23.335 80.2684 23.3837 80.359 23.3837C80.4495 23.3837 80.4949 23.335 80.5402 23.2862C80.6307 23.1886 80.6307 22.9936 80.5402 22.896L80.0872 22.262Z" fill="#97867C"/>
<path d="M89.644 21.9694C89.644 22.1157 89.7346 22.2133 89.8705 22.2133H94.2638V21.6768H89.8705C89.7346 21.7255 89.644 21.8231 89.644 21.9694Z" fill="#97867C"/>
<path d="M87.6514 21.9699C87.6514 22.3601 87.9231 22.6527 88.2401 22.6527C88.5572 22.6527 88.8289 22.3601 88.8289 21.9699C88.8289 21.5798 88.5572 21.2871 88.2401 21.2871C87.9231 21.2871 87.6514 21.6285 87.6514 21.9699Z" fill="#97867C"/>
<path d="M81.6274 20.6531H94.2639V20.1166H82.1709L92.0899 9.14317V18.1658H86.3378L90.55 13.4838V16.1662H89.9159L90.2782 15.776C90.3688 15.6784 90.3688 15.4834 90.2782 15.3859C90.1877 15.2883 90.0517 15.2883 89.9159 15.3859L89.1459 16.2149C89.0553 16.3125 89.0553 16.41 89.1006 16.5076C89.1459 16.6051 89.2365 16.6539 89.3271 16.6539H90.7764C90.9123 16.6539 91.0029 16.5563 91.0029 16.41V12.801C91.0029 12.7035 90.9576 12.6059 90.867 12.5571C90.7764 12.5084 90.6858 12.5571 90.5953 12.6059L85.6131 18.2633C85.5225 18.3609 85.5225 18.4584 85.5679 18.5559C85.6131 18.6534 85.7037 18.7022 85.7943 18.7022H92.3617C92.4975 18.7022 92.5881 18.6047 92.5881 18.4584V8.50921C92.5881 8.4116 92.5428 8.31409 92.4522 8.26532C92.3617 8.21655 92.2711 8.26532 92.1805 8.31409L81.4915 20.2141C81.401 20.3117 81.401 20.4092 81.4462 20.5067C81.4462 20.6043 81.5368 20.6531 81.6274 20.6531Z" fill="#97867C"/>
<path d="M92.3165 25.2369H85.7491C85.6585 25.2369 85.568 25.2857 85.5227 25.3832C85.4774 25.4807 85.5227 25.5784 85.568 25.6759L90.5954 31.2845C90.686 31.382 90.7766 31.382 90.8672 31.3333C90.9577 31.2845 91.003 31.1869 91.003 31.0894V27.4804C91.003 27.334 90.9124 27.2365 90.7766 27.2365H89.3272C89.2366 27.2365 89.146 27.2853 89.1008 27.3828C89.0555 27.4804 89.1008 27.5779 89.146 27.6754L89.916 28.5045C90.0066 28.6021 90.1425 28.6021 90.2783 28.5045C90.369 28.407 90.369 28.212 90.2783 28.1144L89.916 27.7242H90.5501V30.4066L86.3379 25.7246H92.09V34.7472L82.2163 23.7738H94.2641V23.2861H81.6276C81.5369 23.2861 81.4464 23.3349 81.4011 23.4324C81.3558 23.5299 81.4011 23.6275 81.4464 23.7251L92.1354 35.6251C92.2259 35.7226 92.3165 35.7226 92.4071 35.6738C92.4977 35.6251 92.543 35.5275 92.543 35.43V25.4807C92.543 25.3832 92.4523 25.2369 92.3165 25.2369Z" fill="#97867C"/>
<path fill-rule="evenodd" clip-rule="evenodd" d="M108.758 25.4812C108.667 25.3837 108.531 25.2374 108.259 24.9448C108.033 24.6521 107.852 24.4571 107.761 24.4082C107.58 24.4082 107.489 24.6034 107.489 24.9448C107.58 24.9448 107.761 25.0423 108.124 25.2374C108.486 25.3837 108.667 25.4812 108.758 25.4812ZM147.618 23.823V23.6279C147.618 23.0427 147.392 22.7988 146.939 22.7988C146.713 22.7988 146.622 22.8476 146.622 22.9939C146.622 23.1402 146.757 23.3354 147.029 23.5304C147.256 23.7255 147.482 23.823 147.618 23.823ZM165.781 23.5792H165.6C165.418 23.5792 165.146 23.7255 164.739 23.9693C164.377 24.2132 164.195 24.4082 164.195 24.5546L164.377 24.6034C164.512 24.6521 164.648 24.6521 164.784 24.6521C165.418 24.6521 165.781 24.4082 165.781 23.8718V23.5792ZM165.871 16.9951C165.916 16.5562 165.916 16.2636 165.871 16.1661C165.735 16.2636 165.554 16.4586 165.373 16.7513C165.463 16.8 165.644 16.8489 165.871 16.9951ZM167.139 17.1414C167.049 16.7513 166.777 16.4587 166.414 16.3611C166.324 16.7025 166.279 16.8976 166.369 17.0439C166.46 17.1414 166.732 17.1414 167.139 17.1414ZM179.458 25.2862C179.414 25.2374 179.277 25.091 179.096 24.8472C178.87 24.6034 178.779 24.4571 178.734 24.3595C178.553 24.3595 178.462 24.5546 178.462 24.896C178.507 24.896 178.689 24.9448 178.96 25.091C179.232 25.2374 179.414 25.2862 179.458 25.2862ZM110.433 28.9927C110.298 29.6267 109.935 30.1144 109.346 30.4558C108.305 30.9923 106.855 31.9189 104.998 33.2358C105.18 32.6993 105.497 32.2603 105.904 31.9189C107.127 30.9923 108.622 30.0169 110.433 28.9927ZM109.029 17.4828C109.029 17.8242 108.893 18.1656 108.622 18.6533H108.531C108.622 18.2144 108.531 17.9705 108.259 17.9705C107.942 17.9705 107.806 18.5558 107.761 19.6775V21.7747H107.671C107.671 21.4333 107.535 20.9455 107.218 20.4578C106.901 19.9214 106.584 19.6775 106.267 19.6775C106.267 20.1164 106.04 20.3603 105.542 20.3603C105.044 20.3603 104.817 20.0189 104.817 19.3849C104.817 18.7997 105.134 18.5558 105.723 18.5558C106.629 18.5558 107.263 19.0922 107.58 20.214V18.1169C107.671 17.239 107.942 16.8 108.441 16.8C108.803 16.6537 109.029 16.9464 109.029 17.4828ZM133.668 21.5308C133.578 22.0673 133.306 22.5062 132.944 22.9452H132.717C132.627 22.8963 132.491 22.8963 132.31 22.8963C131.087 22.8963 129.728 23.3354 128.279 24.1644C126.829 24.9935 125.787 25.4324 125.108 25.4324C124.429 25.4324 123.84 25.091 123.296 24.4571C121.032 26.3103 118.178 27.237 114.646 27.237C112.472 27.237 110.886 26.9931 109.845 26.5054C109.754 26.5054 109.663 26.7005 109.482 27.0419C109.301 27.3833 109.165 27.5784 109.075 27.5784C108.939 27.5784 108.622 27.432 108.169 27.1395C107.625 26.8468 107.263 26.7005 107.172 26.7005C106.81 27.6271 106.221 28.31 105.497 28.7489C104.5 29.3341 103.549 29.6755 102.688 29.6755V29.4317C104.908 28.3587 106.221 27.2857 106.674 26.164C106.674 24.1644 107.127 23.189 107.988 23.189C107.942 23.189 108.259 23.3841 108.893 23.823C109.528 24.262 110.252 24.6034 111.022 24.896C112.2 25.2862 113.468 25.4812 114.827 25.4812C116.367 25.4812 117.997 25.2374 119.673 24.7984C121.756 24.2132 123.161 23.4816 124.021 22.555C124.066 22.555 124.112 22.6038 124.202 22.7501C124.157 22.8476 124.112 23.0427 124.112 23.2378C124.429 23.5792 124.882 23.7743 125.335 23.7743C125.969 23.7743 127.146 23.2378 128.867 22.2136C127.69 21.7747 126.92 21.5308 126.512 21.5308C126.376 21.5308 126.286 21.5796 126.24 21.7259L124.655 21.6771V21.5796C124.655 20.4578 125.289 19.8726 126.512 19.8726C126.874 19.8726 127.463 20.0677 128.233 20.4091C129.23 20.848 129.773 21.0919 129.954 21.1407C130.724 21.3845 131.993 21.5308 133.668 21.5308ZM124.61 28.2612L123.432 27.5784C123.115 28.0173 122.889 28.3587 122.753 28.5538C122.3 28.3099 121.892 28.2123 121.439 28.2123C121.168 28.7976 121.032 29.139 121.032 29.2366C121.032 29.6267 121.485 29.9681 122.436 30.2608C122.662 29.7242 122.843 29.4317 122.934 29.3341C123.387 29.578 123.795 29.6755 124.157 29.6755C124.474 29.139 124.61 28.6514 124.61 28.2612ZM117.454 20.9943L117.408 21.1894C117.499 21.7746 117.408 22.0185 117.091 22.0185C116.82 22.0185 116.684 21.8235 116.684 21.4333C116.684 21.3845 116.91 20.6041 117.318 19.0922H117.227C116.91 19.58 116.638 20.0677 116.367 20.5554C116.05 21.1407 115.914 21.7259 115.914 22.2624C115.914 22.9939 116.231 23.3354 116.865 23.3354C117.454 23.3354 117.771 22.8963 117.771 22.0185C117.771 21.5796 117.68 21.2382 117.454 20.9943ZM116.91 12.2156C116.82 13.8738 115.461 15.0443 112.925 15.7759L112.698 15.7271C113.604 15.3857 114.51 14.6542 115.461 13.63C115.461 13.2886 115.144 13.0935 114.464 13.0935C113.83 13.0935 113.242 13.2886 112.653 13.63C113.015 12.6545 113.332 12.0693 113.604 11.8254C113.876 11.5816 114.329 11.484 114.963 11.484C115.778 11.484 116.412 11.7279 116.91 12.2156ZM131.177 27.3345C130.453 27.6759 129.909 27.871 129.547 27.871C129.23 27.871 129.048 27.7247 129.048 27.432C129.048 27.3345 129.275 26.9443 129.773 26.3591C130 26.0665 130.135 25.8714 130.226 25.6763C129.909 25.4812 129.683 25.3837 129.456 25.3837C128.913 25.3837 128.596 25.6276 128.369 26.164C128.596 26.1153 128.822 26.1153 129.048 26.1153C129.23 26.1153 129.411 26.164 129.547 26.3103L129.048 26.7981C128.686 27.1882 128.505 27.5784 128.505 27.871C128.505 28.2612 128.731 28.4562 129.184 28.4562C129.592 28.4562 130 28.31 130.453 28.0173C130.86 27.7734 131.132 27.5296 131.177 27.3345ZM130.453 12.4595C127.644 12.8984 124.293 13.8251 120.398 15.2394C116.321 16.7513 113.287 18.2632 111.339 19.6775C111.158 19.775 110.977 20.2628 110.796 21.0919C115.868 17.8242 121.983 15.3857 129.23 13.7762C129.23 14.2152 128.913 14.9468 128.233 15.8734C128.822 15.532 129.366 14.9956 129.818 14.264C130.226 13.4837 130.453 12.8984 130.453 12.4595ZM155.091 20.848C154.73 21.1407 154.231 21.4333 153.688 21.8235C152.827 21.6283 152.193 21.5308 151.785 21.5308C150.472 21.5308 149.385 21.7747 148.524 22.2624C148.524 24.4571 148.207 25.53 147.527 25.53C146.985 25.53 146.395 25.2862 145.671 24.7496C145.535 25.2862 145.263 25.6763 144.901 25.969C144.539 26.2615 144.131 26.4079 143.632 26.4079C143.632 28.4562 142.546 30.1632 140.417 31.4313C138.786 32.4555 136.567 33.2358 133.849 33.8698C131.358 34.455 129.003 34.6988 126.784 34.6988C119.582 34.6988 114.51 32.553 111.566 28.2123L111.611 27.9685C115.551 31.1874 120.715 32.7969 127.146 32.7969C131.223 32.7969 134.936 32.1628 138.243 30.9436C141.413 29.7731 143.044 28.505 143.044 27.1882C143.044 26.8468 142.908 26.4567 142.681 26.0665C142.455 25.6763 142.319 25.4324 142.319 25.2862C142.319 25.091 142.455 24.6521 142.772 23.9693C143.36 24.5058 143.769 24.7496 143.95 24.7496C144.674 24.7496 145.218 24.3595 145.58 23.5792C146.124 22.5062 146.441 21.921 146.441 21.921C147.301 21.0919 148.66 20.5554 150.472 20.2628C149.294 19.7263 148.479 19.4824 148.071 19.4824C147.98 19.4824 147.89 19.58 147.845 19.7263H146.033V19.4336C146.033 18.2144 146.713 17.6292 148.071 17.6292C148.615 17.6292 149.385 17.9217 150.381 18.5558C151.74 19.4824 153.37 20.214 155.091 20.848ZM136.748 22.1649C136.748 21.6283 136.522 20.3603 136.114 18.3608C135.661 16.3611 135.48 15.337 135.48 15.3857C135.48 15.2881 135.525 15.0443 135.661 14.8004C135.752 14.5078 135.842 14.3128 135.888 14.2152C135.254 13.2886 134.755 12.6057 134.438 12.2156C134.121 12.8496 133.985 13.3373 133.985 13.6787C133.985 13.9226 134.212 14.5566 134.619 15.6295C134.71 15.7759 134.936 16.8 135.344 18.6533C135.797 20.7993 136.069 22.3599 136.205 23.3841C136.023 23.823 135.661 24.0669 135.118 24.0669C134.71 24.0669 134.348 23.9693 133.985 23.7255C133.759 24.5058 133.668 24.9935 133.668 25.1886C133.668 25.1886 133.849 25.3837 134.167 25.7251C134.484 26.0665 134.665 26.4567 134.665 26.7981C134.665 27.432 134.212 28.2124 133.351 29.139C132.491 30.0656 131.675 30.6509 130.951 30.846C130.226 31.0411 129.501 31.1386 128.686 31.1386L128.596 31.3337C129.501 31.6751 130.453 31.8214 131.449 31.8214C132.581 31.8214 133.487 31.1874 134.212 29.9681C134.801 28.8952 135.118 27.7247 135.118 26.4567C135.118 26.3591 135.389 25.9201 135.978 25.0423C136.476 24.1157 136.748 23.189 136.748 22.1649ZM138.922 27.0907L137.79 25.8714L136.793 27.0419L137.88 28.2612L138.922 27.0907ZM133.125 16.9951C133.125 18.0681 132.853 18.5558 132.264 18.5558C131.947 18.5558 131.721 18.4583 131.54 18.3119C131.222 18.7997 130.996 19.0435 130.815 19.0435C130.271 19.0435 130.045 18.7021 130.045 18.0194C130.045 17.7755 130.09 17.5316 130.135 17.2878L130.362 17.1902C130.362 17.6779 130.543 17.9217 130.905 17.9217C131.223 17.9217 131.404 17.5803 131.404 16.8489L131.675 16.5562C131.675 17.0927 131.857 17.3365 132.174 17.3365C132.445 17.3365 132.627 16.9951 132.672 16.2636L132.944 16.0197C133.08 16.2636 133.125 16.605 133.125 16.9951ZM149.747 27.6759C147.89 28.7489 146.395 29.6755 145.263 30.6022C144.855 30.9436 144.539 31.4313 144.357 31.9189C146.214 30.6509 147.664 29.6755 148.705 29.139C149.294 28.8464 149.656 28.3587 149.747 27.6759ZM139.783 23.2378C139.783 22.9452 139.42 21.0919 138.696 17.6779C137.971 14.264 137.563 12.4107 137.473 12.2156C137.156 12.557 137.02 13.191 137.02 14.0689L139.375 25.6276C139.647 24.7009 139.783 23.9206 139.783 23.2378ZM144.583 20.9943C144.583 19.775 144.131 18.6533 143.179 17.5803V19.1411C143.904 19.9214 144.267 21.2382 144.267 23.0915H144.357C144.493 22.555 144.583 21.8235 144.583 20.9943ZM153.733 26.8956C153.008 27.237 152.465 27.432 152.057 27.432C151.74 27.432 151.604 27.2857 151.604 26.9931C151.604 26.8956 151.83 26.5054 152.284 25.9201C152.555 25.5788 152.691 25.3837 152.736 25.2374C152.465 25.0423 152.238 24.9448 152.012 24.9448C151.468 24.9448 151.151 25.1886 150.924 25.7251C151.105 25.6763 151.333 25.6763 151.604 25.6763C151.785 25.6763 151.966 25.7251 152.102 25.8714L151.604 26.3591C151.196 26.7493 150.97 27.1395 150.97 27.432C150.97 27.8222 151.196 28.0173 151.695 28.0173C152.102 28.0173 152.51 27.871 152.963 27.5784C153.416 27.3345 153.688 27.0907 153.733 26.8956ZM141.64 13.3373C141.821 13.6787 141.911 14.0201 141.911 14.3615C141.911 15.1906 141.594 15.6295 141.006 15.6295C140.371 15.6295 140.055 15.2881 140.055 14.5566C140.055 14.0201 140.19 13.4837 140.462 12.9471C140.734 12.4107 141.051 11.8742 141.323 11.3865H141.413C141.006 12.8984 140.779 13.7275 140.779 13.7275C140.779 14.1176 140.915 14.3128 141.187 14.3128C141.504 14.3128 141.64 14.0201 141.504 13.4837L141.64 13.3373ZM160.934 29.6267C161.161 29.9681 161.252 30.3095 161.252 30.6509C161.252 31.5288 160.934 31.9677 160.345 31.9677C159.666 31.9677 159.349 31.5775 159.349 30.7972C159.349 30.2608 159.485 29.7242 159.802 29.2366C160.119 28.7001 160.391 28.1636 160.662 27.6759L160.753 27.7247C160.345 29.2366 160.119 30.0656 160.119 30.0656C160.119 30.4558 160.255 30.6509 160.527 30.6509C160.843 30.6509 160.98 30.3583 160.843 29.7242L160.934 29.6267ZM153.28 11.7767C148.343 12.6057 144.176 14.2152 140.779 16.7025C140.598 16.8489 140.417 17.3365 140.236 18.1169C144.267 15.6295 148.207 13.9226 152.057 13.0935C152.057 13.5324 151.74 14.264 151.105 15.2881C151.649 14.9468 152.193 14.3615 152.646 13.63C153.053 12.8009 153.28 12.2156 153.28 11.7767ZM158.398 22.1649C158.398 21.6283 158.171 20.3603 157.764 18.3608C157.356 16.3611 157.13 15.337 157.13 15.3857C157.13 15.2881 157.175 15.0443 157.265 14.8004C157.356 14.5078 157.401 14.3128 157.401 14.2152C156.813 13.2886 156.314 12.6057 155.997 12.2156C155.681 12.8496 155.544 13.3373 155.544 13.6787C155.544 13.9226 155.771 14.5566 156.224 15.6295C156.314 15.7759 156.541 16.8 156.904 18.6533C157.356 20.7993 157.628 22.3599 157.764 23.3841C157.628 23.823 157.265 24.0669 156.676 24.0669C156.269 24.0669 155.907 23.9693 155.59 23.7255C155.318 24.5058 155.182 24.9935 155.182 25.1886C155.182 25.1886 155.363 25.3837 155.681 25.7251C155.997 26.0665 156.179 26.4567 156.179 26.7981C156.179 27.432 155.725 28.2124 154.865 29.139C154.005 30.0656 153.235 30.6022 152.6 30.7972C151.83 31.0411 151.061 31.1386 150.245 31.1386L150.2 31.3337C151.559 31.8214 152.555 32.0653 153.189 32.0653C154.276 32.0653 155.137 31.3825 155.816 30.0656C156.405 28.9439 156.722 27.7247 156.722 26.4567C156.722 26.3591 156.994 25.9201 157.537 25.0423C158.126 24.1157 158.398 23.189 158.398 22.1649ZM168.181 28.3099C168.09 28.9439 167.728 29.4317 167.094 29.7731C166.098 30.3095 164.648 31.2361 162.746 32.553C162.927 32.0165 163.244 31.5775 163.652 31.2361C164.875 30.3095 166.369 29.3341 168.181 28.3099ZM155.318 16.3611C155.318 16.0197 155.272 15.6783 155.227 15.3857L155.001 15.6295C154.91 16.3611 154.73 16.7025 154.458 16.7025C154.14 16.7025 154.005 16.4099 154.005 15.8734L153.733 16.2148C153.733 16.8976 153.551 17.239 153.189 17.239C152.827 17.239 152.646 16.9951 152.646 16.5562L152.465 16.6537C152.374 16.8489 152.374 17.0927 152.374 17.3853C152.374 18.0194 152.6 18.3608 153.098 18.3608C153.28 18.3608 153.551 18.1169 153.869 17.6292C154.005 17.8242 154.231 17.9217 154.548 17.9217C155.046 18.0194 155.318 17.4828 155.318 16.3611ZM161.433 23.2378C161.433 23.9206 161.342 24.7496 161.115 25.6763L158.715 14.1176C158.715 13.2398 158.896 12.6057 159.213 12.2643C159.304 12.4595 159.711 14.264 160.436 17.7267C161.115 21.0919 161.433 22.9452 161.433 23.2378ZM173.435 24.0181C173.435 25.969 172.891 26.9443 171.759 26.9443C170.899 26.9443 170.31 26.5542 169.948 25.7251C169.676 27.0419 168.997 27.7247 167.864 27.7247C167.275 27.7247 166.777 27.4809 166.46 26.9443C166.143 26.4079 165.962 25.8226 165.962 25.1886C165.328 26.3591 164.693 26.9443 164.059 26.9443C163.289 26.9443 162.927 26.4567 162.927 25.4324C162.927 24.7009 163.426 24.0669 164.377 23.4816C165.328 22.8963 165.826 22.555 165.826 22.5062C165.916 22.1649 165.916 21.8235 165.916 21.5308L166.414 20.7505C166.505 21.0919 166.595 21.4333 166.595 21.921C166.595 22.1649 166.551 22.5062 166.505 22.9939C166.46 23.4816 166.414 23.823 166.414 24.0669C166.414 25.2374 166.958 25.8226 168.045 25.8226C169.087 25.8226 169.63 25.2862 169.63 24.1644C169.63 23.823 169.539 23.2378 169.358 22.4574C169.177 21.6771 169.087 21.0919 169.087 20.7505C169.087 20.3603 169.268 19.775 169.585 19.0435C169.857 20.214 170.129 21.3845 170.355 22.555C170.717 24.1157 171.261 24.896 171.985 24.896C172.438 24.896 172.665 24.7009 172.665 24.3595C172.665 23.7255 172.438 22.7501 171.985 21.5308C171.532 20.2628 171.306 19.58 171.306 19.4824C171.306 19.2386 171.397 18.8972 171.532 18.507C171.669 18.1169 171.759 17.8242 171.759 17.5803C172.891 20.0677 173.435 22.2136 173.435 24.0181ZM167.456 17.0439C167.32 17.8242 166.867 18.1169 166.098 17.873C165.781 18.6046 165.191 19.1898 164.286 19.6775C163.38 20.1652 162.474 20.3603 161.568 20.3603L161.478 20.2628C161.794 20.2628 162.474 19.9702 163.516 19.4336C164.693 18.8484 165.463 18.3119 165.781 17.873C165.328 17.6779 165.101 17.3853 165.101 17.0927C165.101 16.8976 165.146 16.6537 165.237 16.4099C165.328 16.1661 165.373 15.9709 165.328 15.8734C165.237 15.8247 165.237 15.7759 165.237 15.6295C165.237 15.3857 165.463 15.2881 165.962 15.2881C166.279 15.2881 166.595 15.4833 167.049 15.9222C167.365 16.2636 167.547 16.6537 167.456 17.0439ZM180.953 28.5538C180.863 29.1878 180.5 29.6755 179.867 29.9681C178.87 30.5534 177.421 31.48 175.519 32.748C175.745 32.2603 176.061 31.8214 176.424 31.4313C177.647 30.5046 179.142 29.578 180.953 28.5538ZM163.652 12.7521C163.878 13.0935 163.968 13.4349 163.968 13.7762C163.968 14.6542 163.652 15.0931 163.063 15.0931C162.429 15.0931 162.112 14.7029 162.112 13.9226C162.112 13.3861 162.247 12.8496 162.519 12.3132C162.791 11.7767 163.108 11.2402 163.38 10.7525L163.426 10.8013C163.063 12.3132 162.882 13.1423 162.882 13.1423C162.882 13.5324 162.972 13.7275 163.199 13.7275C163.561 13.7275 163.697 13.4349 163.607 12.8009V12.7521H163.652ZM171.442 16.0197C171.442 15.6783 171.397 15.337 171.261 14.9956L171.034 15.2881C170.944 16.0197 170.808 16.3611 170.536 16.3611C170.219 16.3611 170.038 16.0685 170.038 15.532L169.766 15.8734C169.766 16.5562 169.585 16.8976 169.268 16.8976C168.906 16.8976 168.725 16.6537 168.725 16.2148L168.498 16.3123C168.407 16.5075 168.407 16.7513 168.407 17.0439C168.407 17.6779 168.679 18.0194 169.177 18.0194C169.313 18.0194 169.585 17.7755 169.902 17.2878C170.083 17.4828 170.31 17.5803 170.581 17.5803C171.171 17.6292 171.442 17.0927 171.442 16.0197ZM175.881 23.2378C175.881 22.9452 175.519 21.0919 174.839 17.6779C174.159 14.264 173.752 12.4107 173.616 12.2156C173.299 12.557 173.118 13.191 173.118 14.0689L175.519 25.6276C175.79 24.7009 175.881 23.9206 175.881 23.2378ZM170.174 12.9471C170.174 13.8251 170.083 14.5566 169.902 15.0443H169.857C169.857 13.191 169.495 11.8742 168.725 11.0939L168.769 9.5332C169.676 10.6062 170.174 11.7279 170.174 12.9471ZM180.41 16.0685C180.41 16.3611 180.274 16.7025 180.002 17.1414H179.911C180.002 16.7513 179.911 16.5562 179.64 16.5562C179.323 16.5562 179.187 17.0927 179.187 18.2144C179.142 18.946 179.142 19.6288 179.142 20.3116H179.006C179.006 19.9702 178.87 19.58 178.598 19.0435C178.326 18.507 178.009 18.2632 177.602 18.2632C177.602 18.6533 177.375 18.8484 176.877 18.8484C176.424 18.8484 176.198 18.5558 176.198 17.9217C176.198 17.3365 176.514 17.0927 177.103 17.0927C177.964 17.0927 178.553 17.6292 178.915 18.6533V16.605C179.006 15.7271 179.277 15.2881 179.776 15.2881C180.183 15.2881 180.41 15.532 180.41 16.0685ZM255.957 23.9206C255.459 24.2132 254.916 23.6767 254.644 23.3354C254.462 23.6767 254.281 23.9693 254.146 24.3107C253.783 24.8472 253.33 25.091 252.832 25.091C252.424 25.091 252.016 24.9448 251.654 24.6521C251.111 25.2862 250.431 25.6276 249.616 25.6276C248.937 25.6276 248.167 25.2862 247.306 24.6034C243.457 25.9201 238.384 27.0419 232.178 28.0173C225.113 29.0903 217.911 29.578 210.71 29.578C198.164 29.578 188.2 28.6025 180.772 26.6517C180.681 26.6517 180.591 26.7981 180.41 27.0907C180.229 27.3833 180.093 27.5296 180.002 27.5296C179.867 27.5296 179.504 27.3833 179.006 27.0907C178.507 26.7981 178.191 26.6517 178.1 26.6517C177.737 27.5784 177.149 28.2612 176.379 28.7001C175.382 29.2853 174.477 29.6267 173.616 29.6267V29.3829C175.835 28.31 177.149 27.237 177.602 26.1153C177.602 24.1157 178.009 23.1402 178.825 23.1402C179.051 23.1402 179.414 23.3841 179.867 23.823C180.319 24.3107 180.727 24.6034 181.089 24.7009C187.883 26.4567 198.164 27.2857 211.978 27.2857C226.245 27.2857 238.746 25.5788 249.435 22.2136V22.555C249.345 22.6525 249.209 22.8963 248.937 23.2378C249.254 23.5792 249.616 23.7255 250.114 23.7255C250.749 23.7255 251.654 23.1402 252.742 21.921C252.786 22.0673 252.832 22.2136 252.832 22.3599C252.832 22.4087 252.742 22.6038 252.56 23.0427C252.742 23.2378 252.968 23.3354 253.239 23.3354C254.055 23.3354 254.191 22.6038 254.553 21.1407C254.689 21.0919 254.734 21.0431 254.916 21.0431C254.96 21.3845 255.006 21.7747 254.96 22.0185C255.821 21.921 256.773 21.3357 257.316 20.7505C256.773 19.775 255.64 18.6046 254.734 17.4341C253.828 16.2636 254.236 15.4345 254.553 14.1176C255.006 14.2152 257.406 18.1169 258.312 21.0431C258.086 21.7259 257.859 22.4087 257.633 23.0915C257.09 23.5304 256.501 23.7743 255.957 23.9206ZM248.348 26.9931C248.031 27.0906 247.805 27.2857 247.759 27.5784C247.714 27.8222 247.578 27.9685 247.442 27.9685C247.352 27.9685 247.215 27.9198 247.08 27.871C246.944 27.7734 246.854 27.7734 246.808 27.7734C246.264 28.2124 245.948 28.4562 245.902 28.4562C245.812 28.4562 245.631 28.4075 245.494 28.2612C245.313 28.1636 245.178 28.0661 245.087 28.0661C244.453 28.0661 243.411 28.6025 242.007 29.6267C240.331 30.846 238.972 31.5775 238.021 31.8702L238.067 32.0653C239.063 31.8214 240.377 31.2361 241.962 30.2608C243.366 29.3829 244.317 28.9439 244.725 28.9439C244.815 28.9439 244.997 28.9928 245.178 29.139C245.359 29.2853 245.494 29.3341 245.585 29.3341C245.766 29.3341 246.129 29.0903 246.582 28.6514C246.899 28.7976 247.125 28.8952 247.306 28.8952C247.759 28.8464 248.122 28.2124 248.348 26.9931ZM254.689 26.8956C252.832 27.9198 251.337 28.8464 250.205 29.7242C249.798 30.1144 249.48 30.5534 249.299 31.0411C251.156 29.7731 252.605 28.7976 253.647 28.2612C254.236 28.0173 254.553 27.5784 254.689 26.8956ZM257.769 25.9201L256.636 24.7009L255.55 25.8714L256.682 27.0907L257.769 25.9201ZM251.292 15.7271C250.749 15.2394 250.114 14.9956 249.345 14.9956C248.71 14.9956 248.257 15.0931 247.986 15.337C247.714 15.5808 247.397 16.1173 247.035 17.0439C247.578 16.7025 248.167 16.5562 248.756 16.5562C249.48 16.5562 249.842 16.7513 249.842 17.0927C248.891 18.1656 247.986 18.8484 247.08 19.1898L247.261 19.2386C249.842 18.5558 251.202 17.3853 251.292 15.7271Z" fill="#97867C"/>
<path d="M0.666667 22C0.666667 22.7364 1.26362 23.3333 2 23.3333C2.73638 23.3333 3.33333 22.7364 3.33333 22C3.33333 21.2636 2.73638 20.6667 2 20.6667C1.26362 20.6667 0.666667 21.2636 0.666667 22ZM2 22.25H18.1852V21.75H2V22.25Z" fill="#97867C"/>
<path d="M17.3141 22C17.3141 22.7364 17.9111 23.3333 18.6475 23.3333C19.3838 23.3333 19.9808 22.7364 19.9808 22C19.9808 21.2636 19.3838 20.6667 18.6475 20.6667C17.9111 20.6667 17.3141 21.2636 17.3141 22ZM18.6475 22.25H34.8327V21.75H18.6475V22.25Z" fill="#97867C"/>
<path d="M33.9616 22C33.9616 22.7364 34.5585 23.3333 35.2949 23.3333C36.0313 23.3333 36.6283 22.7364 36.6283 22C36.6283 21.2636 36.0313 20.6667 35.2949 20.6667C34.5585 20.6667 33.9616 21.2636 33.9616 22ZM35.2949 22.25H51.4802V21.75H35.2949V22.25Z" fill="#97867C"/>
<path d="M50.61 22C50.61 22.7364 51.207 23.3333 51.9434 23.3333C52.6797 23.3333 53.2767 22.7364 53.2767 22C53.2767 21.2636 52.6797 20.6667 51.9434 20.6667C51.207 20.6667 50.61 21.2636 50.61 22ZM51.9434 22.25H68.1286V21.75H51.9434V22.25Z" fill="#97867C"/>
<path d="M360.333 22C360.333 22.7364 359.736 23.3333 359 23.3333C358.264 23.3333 357.667 22.7364 357.667 22C357.667 21.2636 358.264 20.6667 359 20.6667C359.736 20.6667 360.333 21.2636 360.333 22ZM359 22.25H342.815V21.75H359V22.25Z" fill="#97867C"/>
<path d="M343.686 22C343.686 22.7364 343.089 23.3333 342.353 23.3333C341.616 23.3333 341.019 22.7364 341.019 22C341.019 21.2636 341.616 20.6667 342.353 20.6667C343.089 20.6667 343.686 21.2636 343.686 22ZM342.353 22.25H326.167V21.75H342.353V22.25Z" fill="#97867C"/>
<path d="M327.038 22C327.038 22.7364 326.441 23.3333 325.705 23.3333C324.968 23.3333 324.371 22.7364 324.371 22C324.371 21.2636 324.968 20.6667 325.705 20.6667C326.441 20.6667 327.038 21.2636 327.038 22ZM325.705 22.25H309.519V21.75H325.705V22.25Z" fill="#97867C"/>
<path d="M310.39 22C310.39 22.7364 309.794 23.3333 309.057 23.3333C308.321 23.3333 307.724 22.7364 307.724 22C307.724 21.2636 308.321 20.6667 309.057 20.6667C309.794 20.6667 310.39 21.2636 310.39 22ZM309.057 22.25H292.872V21.75H309.057V22.25Z" fill="#97867C"/>
</svg>
