<svg width="20" height="20" viewBox="0 0 20 20" fill="none" xmlns="http://www.w3.org/2000/svg">
<path d="M18.889 18.8892L19.4446 6.66699H0.555664V17.7781L1.11122 18.8892L2.22233 19.4448L18.889 18.8892Z" fill="#88D8B5"/>
<path d="M17.8571 1.42857H17.1429V0.714286C17.1429 0.32 16.8229 0 16.4286 0C16.0343 0 15.7143 0.32 15.7143 0.714286V1.42857H4.28571V0.714286C4.28571 0.32 3.96571 0 3.57143 0C3.17714 0 2.85714 0.32 2.85714 0.714286V1.42857H2.14286C0.961429 1.42857 0 2.39 0 3.57143V17.8571C0 19.0386 0.961429 20 2.14286 20H17.8571C19.0386 20 20 19.0386 20 17.8571V3.57143C20 2.39 19.0386 1.42857 17.8571 1.42857ZM2.14286 2.85714H2.85714V3.57143C2.85714 3.96571 3.17714 4.28571 3.57143 4.28571C3.96571 4.28571 4.28571 3.96571 4.28571 3.57143V2.85714H15.7143V3.57143C15.7143 3.96571 16.0343 4.28571 16.4286 4.28571C16.8229 4.28571 17.1429 3.96571 17.1429 3.57143V2.85714H17.8571C18.2507 2.85714 18.5714 3.17786 18.5714 3.57143V5.71429H1.42857V3.57143C1.42857 3.17786 1.74929 2.85714 2.14286 2.85714ZM17.8571 18.5714H2.14286C1.74929 18.5714 1.42857 18.2507 1.42857 17.8571V7.14286H18.5714V17.8571C18.5714 18.2507 18.2507 18.5714 17.8571 18.5714Z" fill="#2A6C50"/>
<path fill-rule="evenodd" clip-rule="evenodd" d="M11.241 16.6663C11.2239 16.6663 11.2078 16.6633 11.1898 16.6583L9.54279 16.1156L7.89582 16.6583C7.81343 16.6854 7.72299 16.6432 7.69284 16.5608L7.08088 14.9329L5.62986 13.9763C5.55651 13.928 5.53541 13.8306 5.57962 13.7562L6.47696 12.267L6.3192 10.5407C6.31116 10.4532 6.37346 10.3759 6.45988 10.3648L8.17618 10.1377L9.42824 8.93389C9.49154 8.8736 9.59102 8.8736 9.65433 8.93389L10.9064 10.1377L12.6227 10.3648C12.7091 10.3759 12.7714 10.4542 12.7634 10.5407L12.6056 12.267L13.5029 13.7562C13.5472 13.8316 13.5261 13.928 13.4527 13.9763L12.0017 14.9329L11.3897 16.5608C11.3696 16.6261 11.3073 16.6663 11.241 16.6663ZM9.5438 15.782C9.56088 15.782 9.57796 15.785 9.59505 15.7901L11.1445 16.3005L11.7203 14.7691C11.7324 14.737 11.7535 14.7088 11.7836 14.6907L13.1482 13.7914L12.3031 12.3906C12.2851 12.3615 12.278 12.3263 12.281 12.2921L12.4298 10.6683L10.8149 10.4552C10.7808 10.4512 10.7486 10.4352 10.7235 10.411L9.54581 9.27755L8.3671 10.41C8.34198 10.4341 8.30983 10.4492 8.27566 10.4542L6.66085 10.6673L6.80957 12.2911C6.81259 12.3253 6.80455 12.3605 6.78746 12.3896L5.94238 13.7904L7.30698 14.6897C7.33511 14.7088 7.35823 14.737 7.37028 14.7681L7.94607 16.2995L9.49556 15.7891C9.50863 15.785 9.52671 15.782 9.5438 15.782Z" fill="#2A6C50" stroke="#2A6C50" stroke-width="0.299288"/>
<path fill-rule="evenodd" clip-rule="evenodd" d="M9.67469 15.2536C9.0366 15.2536 8.4367 15.0054 7.98552 14.5542C7.53433 14.103 7.28613 13.5031 7.28613 12.865C7.28613 12.2862 7.49414 11.7285 7.87398 11.2934C8.2508 10.8603 8.77031 10.578 9.33806 10.4986C9.41242 10.4885 9.48376 10.5287 9.5119 10.5991C9.54004 10.6684 9.51692 10.7478 9.45663 10.791C8.91803 11.1839 8.60853 11.7898 8.60853 12.4591C8.60853 13.5966 9.53501 14.5231 10.6725 14.5231C10.777 14.5231 10.8865 14.513 10.982 14.504C11.0554 14.4969 11.1247 14.5391 11.1508 14.6075C11.177 14.6768 11.1538 14.7542 11.0935 14.7964C10.6775 15.0948 10.1872 15.2536 9.67469 15.2536ZM8.77232 11.0061C8.08098 11.3447 7.61171 12.0591 7.61171 12.864C7.61171 14.0015 8.53819 14.928 9.67569 14.928C9.90279 14.928 10.1229 14.8929 10.3339 14.8235C9.82441 14.7512 9.35414 14.517 8.98334 14.1472C8.53216 13.6961 8.28396 13.0962 8.28396 12.4581C8.28396 12.0692 8.37339 11.6974 8.55025 11.3578C8.61154 11.2352 8.68691 11.1166 8.77232 11.0061Z" fill="#2A6C50" stroke="#2A6C50" stroke-width="0.224466"/>
<path fill-rule="evenodd" clip-rule="evenodd" d="M11.2705 13.4132C11.2474 13.4132 11.2222 13.4082 11.2001 13.3981L10.6706 13.1469L10.1511 13.3981C10.0968 13.4233 10.0345 13.4182 9.98526 13.3841C9.93602 13.3499 9.9109 13.2906 9.91894 13.2313L9.99129 12.6545L9.59437 12.2225C9.55518 12.1782 9.54111 12.1179 9.5602 12.0617C9.57829 12.0054 9.62653 11.9642 9.6838 11.9531L10.2495 11.8456L10.5279 11.3432C10.556 11.2909 10.6113 11.2588 10.6706 11.2588C10.7299 11.2588 10.7841 11.2909 10.8133 11.3432L11.0916 11.8456L11.6674 11.9531C11.7257 11.9642 11.7729 12.0064 11.791 12.0617C11.8091 12.1179 11.796 12.1792 11.7568 12.2235L11.3599 12.6555L11.4323 13.2323C11.4393 13.2916 11.4142 13.3489 11.3659 13.3851C11.3368 13.4032 11.3036 13.4132 11.2705 13.4132ZM10.6706 12.8033C10.6937 12.8033 10.7188 12.8083 10.7409 12.8183L11.0725 12.9761L11.0273 12.6194C11.0213 12.5711 11.0363 12.5249 11.0685 12.4897L11.3177 12.2174L10.955 12.1491C10.9067 12.1401 10.8665 12.1109 10.8434 12.0677L10.6706 11.7552L10.4977 12.0677C10.4746 12.1099 10.4334 12.1401 10.3862 12.1491L10.0325 12.2164L10.2827 12.4887C10.3149 12.5239 10.3309 12.5711 10.3239 12.6184L10.2787 12.9721L10.5992 12.8173C10.6213 12.8083 10.6455 12.8033 10.6706 12.8033Z" fill="#2A6C50" stroke="#2A6C50" stroke-width="0.224466"/>
</svg>
