<svg width="18" height="20" viewBox="0 0 18 20" fill="none" xmlns="http://www.w3.org/2000/svg">
<path d="M2.72461 19H7.72461H15.2246V16.5L16.2246 14.5L17.7246 11L17.2246 8L15.7246 7.5V3L14.7246 2.5L13.7246 1.5L12.7246 2L11.2246 2.5V4.5H9.72461L8.72461 6L8.22461 4.5H7.22461L6.72461 3L5.72461 2L4.72461 1.5H4.22461L2.22461 3V7.5H0.724609L0.224609 9.5L0.724609 13L2.72461 16V19Z" fill="#88D8B5"/>
<path d="M2.44648 18.7469C2.44648 18.8875 2.58711 19 2.72773 19C2.86836 19 3.00898 18.8594 2.98086 18.7188C2.92461 17.1437 3.17773 16.3844 2.61523 15.4281C2.08086 14.5281 0.815234 12.3344 0.815234 11.2375V8.36875C0.815234 7.89062 1.23711 7.80625 1.37773 7.77813C1.57461 7.80625 1.79961 7.80625 1.94023 8.11562C1.94023 8.17188 1.96836 8.2 1.99648 8.25625C2.13711 8.90312 1.51836 11.2375 3.34648 11.9406C4.16211 12.25 4.75273 13.1219 4.78086 13.3469C4.80898 13.4875 4.94961 13.6 5.09023 13.5719C5.23086 13.5437 5.34336 13.4031 5.31523 13.2625C5.23086 12.8406 4.55586 11.8281 3.54336 11.4625C2.02461 10.8438 2.72773 8.81875 2.44648 8.00312V3.3625C2.44648 3.08125 2.67148 2.85625 2.95273 2.85625C3.23398 2.85625 3.45898 3.08125 3.45898 3.3625V9.55C3.45898 9.69063 3.57148 9.83125 3.74023 9.83125C3.90898 9.83125 4.02148 9.71875 4.02148 9.55V2.06875C4.02148 1.7875 4.24648 1.53438 4.55586 1.53438C4.86523 1.53438 5.09023 1.75938 5.09023 2.06875V9.46562C5.09023 9.60625 5.20273 9.74687 5.37148 9.74687C5.51211 9.74687 5.65273 9.63438 5.65273 9.46562V3.025C5.65273 2.77187 5.87773 2.54688 6.13086 2.54688C6.38398 2.54688 6.60898 2.77187 6.60898 3.025V9.4375C6.60898 9.57812 6.72148 9.71875 6.89023 9.71875C7.03086 9.71875 7.17148 9.60625 7.17148 9.4375V5.33125C7.17148 5.02187 7.42461 4.76875 7.73398 4.76875C8.01523 4.76875 8.26836 4.99375 8.26836 5.275L8.60586 9.18437C9.02773 13.2344 7.73398 14.6687 7.73398 18.0156V18.7188C7.73398 18.8594 7.84648 19 8.01523 19C8.15586 19 8.29648 18.8875 8.29648 18.7188V17.9875C8.29648 16.075 8.71836 14.8375 8.99961 13.2063C9.28086 14.8094 9.70273 16.075 9.70273 17.9875V18.7188C9.70273 18.8594 9.81523 19 9.98398 19C10.1527 19 10.2652 18.8875 10.2652 18.7188V17.9875C10.2652 14.6406 8.99961 13.2063 9.39336 9.15625L9.73086 5.24688C9.75899 4.96563 9.98398 4.74063 10.2652 4.74063C10.5746 4.74063 10.8277 4.99375 10.8277 5.30312V9.40938C10.8277 9.55 10.9402 9.69063 11.109 9.69063C11.2777 9.69063 11.3902 9.57812 11.3902 9.40938V3.025C11.3902 2.77187 11.6152 2.54688 11.8684 2.54688C12.1215 2.54688 12.3465 2.77187 12.3465 3.025V9.46562C12.3465 9.60625 12.459 9.74687 12.6277 9.74687C12.7965 9.74687 12.909 9.63438 12.909 9.46562V2.06875C12.909 1.7875 13.134 1.53438 13.4434 1.53438C13.7527 1.53438 13.9777 1.75938 13.9777 2.06875V9.55C13.9777 9.69063 14.0902 9.83125 14.259 9.83125C14.4277 9.83125 14.5402 9.71875 14.5402 9.55V3.3625C14.5402 3.08125 14.7652 2.85625 15.0465 2.85625C15.3277 2.85625 15.5527 3.08125 15.5527 3.3625V7.80625C15.5527 7.83438 15.5527 7.89062 15.5809 7.91875C15.5246 8.05938 15.4965 8.2 15.4965 8.36875V9.85938C15.4965 10.5625 15.1027 11.2094 14.5121 11.4344C13.4996 11.8281 12.8246 12.8125 12.7402 13.2344C12.7121 13.375 12.7965 13.5156 12.9652 13.5437C13.1059 13.5719 13.2465 13.4875 13.2746 13.3187C13.3309 13.0938 13.8934 12.2219 14.709 11.9125C15.4965 11.6031 16.0309 10.7594 16.0309 9.83125V8.34063C16.0309 8.17188 16.0871 8.03125 16.1996 7.91875C16.3121 7.80625 16.4527 7.75 16.6215 7.75C16.959 7.75 17.2121 8.00313 17.2121 8.34063V11.2094C17.2121 12.3062 15.9465 14.5 15.4121 15.4C14.9902 16.075 15.0184 16.6656 15.0465 17.4531C15.0465 17.7906 15.0746 18.1844 15.0465 18.6625C15.0465 18.8031 15.159 18.9438 15.2996 18.9438C15.4402 18.9438 15.5527 18.8313 15.5809 18.6906C15.609 18.1844 15.5809 17.7906 15.5809 17.425C15.5527 16.6656 15.5527 16.1875 15.8902 15.6531C16.5934 14.5 17.7746 12.3625 17.7746 11.1813V8.36875C17.7746 7.75 17.2684 7.24375 16.6496 7.24375C16.4527 7.24375 16.284 7.3 16.1152 7.38438V3.3625C16.1152 2.8 15.6371 2.32187 15.0746 2.32187C14.9059 2.32187 14.7371 2.37812 14.5684 2.4625V2.06875C14.5684 1.47813 14.0902 1 13.4996 1C12.909 1 12.4309 1.47813 12.4309 2.06875V2.125C12.2902 2.04062 12.1215 2.0125 11.9527 2.0125C11.3902 2.0125 10.9402 2.4625 10.9402 3.025V4.375C10.7715 4.29063 10.6027 4.23438 10.3777 4.23438C9.81524 4.23438 9.33711 4.65625 9.28086 5.24688L8.91523 7.4125L8.71836 5.21875C8.66211 4.65625 8.21211 4.20625 7.62148 4.20625C7.42461 4.20625 7.22773 4.2625 7.05898 4.34687V3.025C7.05898 2.4625 6.60898 2.0125 6.04648 2.0125C5.87773 2.0125 5.70898 2.06875 5.56836 2.125V2.06875C5.56836 1.47813 5.09023 1 4.49961 1C3.90898 1 3.43086 1.47813 3.43086 2.06875V2.43437C3.29023 2.35 3.12148 2.29375 2.92461 2.29375C2.36211 2.29375 1.88398 2.77188 1.88398 3.33438V7.35625C1.12461 6.9625 0.224609 7.49688 0.224609 8.36875V11.2375C0.224609 12.4469 1.40586 14.5562 2.10898 15.7094C2.61523 16.4969 2.36211 17.1437 2.44648 18.7469Z" fill="#2A6C50" stroke="#2A6C50" stroke-width="0.4"/>
</svg>
