<svg width="22" height="20" viewBox="0 0 22 20" fill="none" xmlns="http://www.w3.org/2000/svg">
<path d="M21.0557 19H2.05566V14.5L1.05566 13.5L0.555664 12.5L1.55566 12L2.55566 11.5V10.5V9L2.05566 8L1.55566 7L2.55566 6.5L3.05566 5V4L4.55566 3.5L5.55566 4L6.05566 5V6.5H7.05566V7.5L6.05566 8.5V11L7.05566 12L7.55566 11.5L9.55566 8.5L12.0557 6L12.5557 4.5V3L13.0557 2L13.5557 3V4.5L14.0557 6L15.0557 7L17.0557 8.5L19.0557 11L19.5557 15L20.5557 16L21.0557 17.5V19Z" fill="#88D8B5"/>
<path d="M6.49084 15.2243C6.48564 15.1723 6.05028 10.0142 10.2233 7.51625C10.8779 7.12555 11.4598 6.6964 11.9554 6.24023L12.2942 6.57171C12.29 6.57691 12.2817 6.58417 12.2776 6.58937C11.759 7.06735 11.1501 7.51728 10.4675 7.9246C6.55526 10.2657 6.95947 15.1318 6.96467 15.1806L6.49084 15.2243Z" fill="#2A6C50" stroke="#2A6C50" stroke-width="0.6"/>
<path d="M19.7819 15.2236L19.3091 15.1789C19.3132 15.1301 19.7185 10.264 15.8063 7.92288C15.1246 7.51555 14.5157 7.06667 13.9962 6.58764C13.991 6.58245 13.9837 6.57518 13.9785 6.56999L14.3297 6.25098L14.3318 6.25306C14.8119 6.69467 15.3948 7.12382 16.0484 7.51452C20.2224 10.0135 19.7871 15.1727 19.7819 15.2236Z" fill="#2A6C50" stroke="#2A6C50" stroke-width="0.6"/>
<path d="M20.4946 16.8633H5.77793C5.64701 16.8633 5.54102 16.7573 5.54102 16.6264V15.6766C5.54102 15.2838 5.86 14.9648 6.25278 14.9648H20.0208C20.4136 14.9648 20.7326 15.2838 20.7326 15.6766V16.6264C20.7326 16.7573 20.6266 16.8633 20.4946 16.8633ZM6.01485 16.3884H20.2577V15.6766C20.2577 15.5457 20.1517 15.4397 20.0208 15.4397H6.25278C6.12185 15.4397 6.01586 15.5457 6.01586 15.6766V16.3884H6.01485Z" fill="#2A6C50" stroke="#2A6C50" stroke-width="0.6"/>
<path d="M21.2073 18.9999H5.06602C4.93509 18.9999 4.8291 18.8939 4.8291 18.7629V17.1014C4.8291 16.7086 5.14811 16.3896 5.54089 16.3896H20.7325C21.1252 16.3896 21.4443 16.7086 21.4443 17.1014V18.7629C21.4443 18.8939 21.3383 18.9999 21.2073 18.9999ZM5.30294 18.525H20.9694V17.1004C20.9694 16.9695 20.8634 16.8635 20.7325 16.8635H5.54089C5.40997 16.8635 5.30398 16.9695 5.30398 17.1004V18.525H5.30294Z" fill="#2A6C50" stroke="#2A6C50" stroke-width="0.6"/>
<path d="M6.01502 6.65701H2.69197C2.56104 6.65701 2.45508 6.55102 2.45508 6.42009V5.23345C2.45508 4.18605 3.30711 3.33398 4.35452 3.33398C5.40193 3.33398 6.25399 4.18605 6.25399 5.23345V6.42009C6.25295 6.55102 6.14699 6.65701 6.01502 6.65701ZM2.92993 6.18215H5.7781V5.23241C5.7781 4.44686 5.13904 3.80781 4.35348 3.80781C3.56793 3.80781 2.92889 4.44686 2.92889 5.23241V6.18215H2.92993Z" fill="#2A6C50" stroke="#2A6C50" stroke-width="0.6"/>
<path d="M6.25348 8.55592H2.45561C2.39222 8.55592 2.33194 8.53098 2.28726 8.4863L1.71472 7.91375C1.58068 7.77971 1.50586 7.59995 1.50586 7.4098V6.89441C1.50586 6.50163 1.82487 6.18262 2.21765 6.18262H6.4904C6.88318 6.18262 7.20219 6.50163 7.20219 6.89441V7.4098C7.20219 7.59995 7.12841 7.77867 6.99333 7.91375L6.42079 8.4863C6.37715 8.53098 6.31687 8.55592 6.25348 8.55592ZM2.55328 8.08105H6.15477L6.65874 7.57709C6.70343 7.53241 6.72836 7.47214 6.72836 7.40876V6.89337C6.72836 6.76244 6.62236 6.65645 6.49144 6.65645H2.21869C2.08776 6.65645 1.98177 6.76244 1.98177 6.89337V7.40876C1.98177 7.4711 2.0067 7.53241 2.05138 7.57709L2.55328 8.08105Z" fill="#2A6C50" stroke="#2A6C50" stroke-width="0.6"/>
<path d="M6.72788 14.4907H1.98026C1.92623 14.4907 1.87428 14.472 1.83168 14.4388L0.822693 13.6314C0.652282 13.4953 0.555664 13.2927 0.555664 13.0755V12.3544C0.555664 11.9616 0.874651 11.6426 1.26743 11.6426H6.9648V12.1175H1.26743C1.1365 12.1175 1.03051 12.2234 1.03051 12.3544V13.0755C1.03051 13.1482 1.06274 13.2158 1.11989 13.2605L2.06339 14.0148H6.72788V14.4907Z" fill="#2A6C50" stroke="#2A6C50" stroke-width="0.6"/>
<path d="M6.25256 12.1159H2.45469C2.32376 12.1159 2.21777 12.0099 2.21777 11.879V8.31797C2.21777 8.18705 2.32376 8.08105 2.45469 8.08105H6.25256C6.38349 8.08105 6.48948 8.18705 6.48948 8.31797V11.879C6.48948 12.0099 6.38349 12.1159 6.25256 12.1159ZM2.69158 11.641H6.01463V8.55489H2.69158V11.641Z" fill="#2A6C50" stroke="#2A6C50" stroke-width="0.6"/>
<path d="M5.06619 19.0001H1.98008C1.84915 19.0001 1.74316 18.8941 1.74316 18.7632V14.2535C1.74316 14.1226 1.84915 14.0166 1.98008 14.0166H6.7277V14.4915H2.21804V18.5273H5.06619V19.0001Z" fill="#2A6C50" stroke="#2A6C50" stroke-width="0.6"/>
<path d="M4.45187 2.62074C4.21912 2.62074 3.98634 2.53241 3.80969 2.35472C3.45536 2.00039 3.45536 1.42369 3.80969 1.06936C3.90217 0.97688 4.05284 0.97688 4.14532 1.06936C4.2378 1.16184 4.2378 1.31251 4.14532 1.40499C3.97595 1.57436 3.97595 1.84972 4.14532 2.01909C4.31469 2.18847 4.59007 2.18847 4.75944 2.01909C4.85192 1.92662 5.00259 1.92662 5.09507 2.01909C5.18755 2.11157 5.18755 2.26224 5.09507 2.35472C4.91738 2.53241 4.68463 2.62074 4.45187 2.62074Z" fill="#2A6C50" stroke="#2A6C50" stroke-width="0.6"/>
<path d="M4.3531 3.68948C4.22218 3.68948 4.11621 3.5835 4.11621 3.45257V2.38438C4.11621 2.25345 4.22218 2.14746 4.3531 2.14746C4.48403 2.14746 4.59002 2.25345 4.59002 2.38438V3.45257C4.59106 3.58246 4.48507 3.68948 4.3531 3.68948Z" fill="#2A6C50" stroke="#2A6C50" stroke-width="0.6"/>
<path d="M13.7299 19H12.3053C12.1744 19 12.0684 18.894 12.0684 18.7631V18.0513C12.0684 17.5276 12.4944 17.1016 13.0181 17.1016C13.5418 17.1016 13.9678 17.5276 13.9678 18.0513V18.7631C13.9668 18.894 13.8608 19 13.7299 19ZM12.5432 18.5251H13.493V18.0503C13.493 17.7884 13.28 17.5754 13.0181 17.5754C12.7563 17.5754 12.5432 17.7884 12.5432 18.0503V18.5251Z" fill="#2A6C50" stroke="#2A6C50" stroke-width="0.6"/>
<path d="M4.82824 12.1156H3.87852C3.74759 12.1156 3.6416 12.0096 3.6416 11.8786V11.1669C3.6416 10.7741 3.96059 10.4551 4.35337 10.4551C4.74615 10.4551 5.06516 10.7741 5.06516 11.1669V11.8786C5.0662 12.0096 4.96021 12.1156 4.82824 12.1156ZM4.11648 11.6407H4.59132V11.1658C4.59132 11.0349 4.48533 10.9289 4.35441 10.9289C4.22348 10.9289 4.11752 11.0349 4.11752 11.1658V11.6407H4.11648Z" fill="#2A6C50" stroke="#2A6C50" stroke-width="0.6"/>
<path d="M14.1609 6.65609H12.1129C12.0329 6.65609 11.958 6.61556 11.9144 6.54802C11.8708 6.48048 11.8635 6.39528 11.8967 6.32254C12.0609 5.95159 12.4932 4.90833 12.5171 4.53321C12.5243 4.42515 12.4724 4.21838 12.4277 4.03653C12.3675 3.79339 12.3114 3.56374 12.3259 3.37878C12.3633 2.90079 12.8621 1.71207 12.9192 1.57803C12.9566 1.49075 13.0429 1.43359 13.1374 1.43359C13.233 1.43359 13.3182 1.49075 13.3556 1.57803C13.4128 1.71207 13.9115 2.89975 13.949 3.37878C13.9635 3.56374 13.9064 3.79339 13.8471 4.03653C13.8024 4.21941 13.7505 4.42515 13.7577 4.53321C13.7816 4.90833 14.2139 5.95263 14.3781 6.32254C14.4103 6.39632 14.4041 6.48048 14.3604 6.54802C14.3168 6.61556 14.242 6.65609 14.1609 6.65609ZM12.4734 6.18123H13.8014C13.6123 5.72714 13.3089 4.94574 13.2839 4.56231C13.2725 4.38255 13.3276 4.15914 13.3858 3.92222C13.4315 3.73519 13.4845 3.52425 13.4751 3.41514C13.4575 3.19589 13.2912 2.7148 13.1364 2.30852C12.9815 2.7148 12.8153 3.19589 12.7976 3.41514C12.7893 3.52425 12.8413 3.73519 12.887 3.92222C12.9452 4.15914 13.0013 4.38255 12.9888 4.56231C12.966 4.94574 12.6626 5.72818 12.4734 6.18123Z" fill="#2A6C50" stroke="#2A6C50" stroke-width="0.6"/>
</svg>
