<svg width="16" height="20" viewBox="0 0 16 20" fill="none" xmlns="http://www.w3.org/2000/svg">
<path d="M0.791016 16.5V4V3.5L8.29102 1L15.291 3.5V16.5L8.29102 19L0.791016 16.5Z" fill="#88D8B5"/>
<path d="M8.09076 6.43626C7.98912 6.43626 7.88664 6.42044 7.78917 6.38794L0.421875 3.99522L0.539343 3.63281L7.9083 6.02554C8.02743 6.06553 8.1574 6.06469 8.27487 6.0247L15.4555 3.63365L15.5755 3.99439L8.3965 6.38544C8.29903 6.4196 8.1949 6.43626 8.09076 6.43626Z" fill="#2A6C50" stroke="#2A6C50" stroke-width="0.6"/>
<path d="M8.09265 19C7.99351 19 7.8952 18.9842 7.79856 18.9533L0.684537 16.6431C0.449597 16.5648 0.292969 16.3473 0.292969 16.1007V3.90052C0.292969 3.65225 0.45126 3.43397 0.687033 3.35732L7.79856 1.04625C7.99101 0.983762 8.20179 0.984595 8.39341 1.04875L15.3175 3.35649C15.5507 3.43397 15.7082 3.65225 15.7082 3.89802V16.0982C15.7082 16.3465 15.5499 16.5648 15.3133 16.6414L8.39257 18.95C8.2951 18.9842 8.19429 19 8.09265 19ZM8.09265 1.38033C8.03267 1.38033 7.97352 1.38949 7.91603 1.40782L0.804506 3.7189C0.726193 3.74472 0.672872 3.81721 0.672872 3.89969V16.0999C0.672872 16.1816 0.725358 16.2549 0.802838 16.2807L7.9152 18.5901C8.03267 18.6284 8.15596 18.6276 8.2726 18.5884L15.1942 16.279C15.2742 16.2532 15.3275 16.1799 15.3275 16.0974V3.89885C15.3275 3.81721 15.275 3.74389 15.1975 3.71807L8.2726 1.41032C8.21511 1.39033 8.15347 1.38033 8.09265 1.38033Z" fill="#2A6C50" stroke="#2A6C50" stroke-width="0.6"/>
<path d="M10.5709 18.2142C10.4692 18.2159 10.3784 18.1259 10.3809 18.0243V13.9211C10.3809 13.6745 10.5375 13.4571 10.7716 13.3796L12.9253 12.6631C13.1619 12.5773 13.4335 12.7723 13.426 13.0239V17.1353C13.426 17.217 13.3735 17.2903 13.296 17.3161L10.6317 18.2051C10.6117 18.2109 10.5917 18.2142 10.5709 18.2142ZM13.0452 13.023L10.8916 13.7404C10.8141 13.7662 10.7616 13.8387 10.7616 13.9211V17.7602L13.0452 16.9987V13.023Z" fill="#2A6C50"/>
<path d="M13.236 17.1353H13.2377M10.5709 18.2142C10.4692 18.2159 10.3784 18.1259 10.3809 18.0243V13.9211C10.3809 13.6745 10.5375 13.4571 10.7716 13.3796L12.9253 12.6631C13.1619 12.5773 13.4335 12.7723 13.426 13.0239V17.1353C13.426 17.217 13.3735 17.2903 13.296 17.3161L10.6317 18.2051C10.6117 18.2109 10.5917 18.2142 10.5709 18.2142ZM13.0452 13.023L10.8916 13.7404C10.8141 13.7662 10.7616 13.8387 10.7616 13.9211V17.7602L13.0452 16.9987V13.023Z" stroke="#2A6C50" stroke-width="0.6"/>
<path d="M8.09173 8.33959C7.99009 8.33959 7.88762 8.32376 7.79014 8.29126L0.422852 5.89854L0.540319 5.53613L7.90927 7.92886C8.02841 7.96885 8.15838 7.96801 8.27585 7.92802L15.4565 5.53697L15.5765 5.89771L8.39748 8.28876C8.30001 8.32292 8.19587 8.33959 8.09173 8.33959Z" fill="#2A6C50" stroke="#2A6C50" stroke-width="0.6"/>
<path d="M8.09173 10.6238C7.99009 10.6238 7.88762 10.6079 7.79014 10.5754L0.422852 8.18272L0.540319 7.82031L7.90927 10.213C8.02841 10.253 8.15838 10.2522 8.27585 10.2122L15.4565 7.82115L15.5765 8.18189L8.39748 10.5729C8.30001 10.6071 8.19587 10.6238 8.09173 10.6238Z" fill="#2A6C50" stroke="#2A6C50" stroke-width="0.6"/>
<path d="M8.09159 9.86303C7.84832 9.87636 7.50924 9.73806 7.27513 9.66558C7.19682 9.63975 7.14433 9.56727 7.14433 9.48479V8.68333C7.14433 8.62251 7.17349 8.56503 7.22264 8.5292C7.2718 8.49338 7.33595 8.48338 7.39344 8.50254L8.02911 8.70999C8.07326 8.72499 8.11408 8.72415 8.15573 8.70999L8.79724 8.49671C8.91555 8.45339 9.05135 8.5517 9.04801 8.6775V9.48063C9.04801 9.56311 8.99552 9.63559 8.91721 9.66141C8.6731 9.73556 8.35069 9.87469 8.09159 9.86303ZM7.52423 9.34566C7.79416 9.44647 8.12991 9.54061 8.39651 9.43147L8.66561 9.34233V8.94077C8.4515 9.00325 8.13241 9.16821 7.90747 9.0699L7.5234 8.94493V9.34566H7.52423ZM5.4306 9.05574C5.4106 9.05574 5.39145 9.0524 5.37145 9.04657L4.03929 8.61418C3.96098 8.58836 3.90766 8.51587 3.90766 8.4334V7.6336C3.90432 7.50863 4.03846 7.41032 4.15676 7.45281L5.48892 7.8852C5.56723 7.91103 5.62055 7.98351 5.62055 8.06599V8.86578C5.62389 8.96742 5.53307 9.05823 5.4306 9.05574ZM4.28923 8.2951L5.24065 8.60335V8.20429L4.28923 7.89603V8.2951ZM10.7601 9.03491C10.6584 9.03741 10.5676 8.9466 10.5701 8.84496V8.04349C10.5701 7.96185 10.6226 7.88853 10.7001 7.86271L12.0322 7.41949C12.1506 7.37616 12.2864 7.47447 12.283 7.60027V8.40174C12.283 8.48338 12.2305 8.5567 12.1531 8.58252L10.8209 9.02574C10.8009 9.03157 10.7801 9.03491 10.7601 9.03491ZM10.95 8.18013V8.58002L11.9015 8.26344V7.86354L10.95 8.18013ZM2.00481 7.94435C1.98481 7.94435 1.96482 7.94102 1.94566 7.93519L0.422711 7.44031C0.344398 7.41449 0.291076 7.34201 0.291076 7.25953V6.45973C0.287744 6.33393 0.421881 6.23729 0.540184 6.27894L2.06313 6.77382C2.14144 6.79964 2.19476 6.87213 2.19476 6.95461V7.7544C2.19809 7.85604 2.10728 7.94685 2.00481 7.94435ZM0.672647 7.12123L1.81486 7.49197V7.0929L0.672647 6.72133V7.12123ZM14.1859 7.8927C14.0842 7.8952 13.9934 7.80439 13.9959 7.70275V6.90295C13.9959 6.82131 14.0484 6.74799 14.1259 6.72216L15.458 6.27894C15.5763 6.23562 15.7121 6.33393 15.7088 6.45973V7.26119C15.7088 7.34284 15.6563 7.41615 15.578 7.44198L14.2459 7.88354C14.2259 7.8902 14.2059 7.8927 14.1859 7.8927ZM14.3758 7.04042V7.43865L15.3272 7.1229V6.723L14.3758 7.04042Z" fill="#2A6C50" stroke="#2A6C50" stroke-width="0.6"/>
</svg>
