<svg width="24" height="22" viewBox="0 0 24 22" fill="none" xmlns="http://www.w3.org/2000/svg">
<path d="M4.21484 12.5V1L12.2148 2.5L19.7148 1V12.5L12.2148 14L4.21484 12.5Z" fill="#88D8B5"/>
<path fill-rule="evenodd" clip-rule="evenodd" d="M3.35764 2.35712H1.00054C0.566837 2.35712 0.214844 2.70912 0.214844 3.14282V14.9283C0.214844 15.2787 0.44741 15.5875 0.784475 15.6841L6.93964 17.4425L4.3154 20.7228C4.04434 21.0615 4.09934 21.5564 4.43797 21.8275C4.77661 22.0986 5.2716 22.0436 5.54266 21.7049L8.57782 17.9108L11.7843 18.8269C11.9257 18.867 12.075 18.867 12.2164 18.8269L15.4228 17.9108L18.458 21.7049C18.729 22.0436 19.224 22.0986 19.5627 21.8275C19.9013 21.5564 19.9563 21.0615 19.6852 20.7228L17.061 17.4425L23.2162 15.6841C23.5532 15.5875 23.7858 15.2787 23.7858 14.9283V3.14282C23.7858 2.70912 23.4338 2.35712 23.0001 2.35712H20.643V0.785727C20.643 0.550017 20.5377 0.327665 20.3554 0.178382C20.1732 0.0290992 19.9343 -0.0306138 19.7033 0.0149567L12.0003 1.55571L4.29733 0.0149567C4.06634 -0.0306138 3.82748 0.0290992 3.6452 0.178382C3.46292 0.327665 3.35764 0.550017 3.35764 0.785727V2.35712ZM20.643 3.92852V12.5712C20.643 12.946 20.379 13.2681 20.0113 13.342L12.1669 14.9102C12.0647 14.933 11.9555 14.9346 11.8463 14.9134L3.98934 13.342C3.62163 13.2681 3.35764 12.946 3.35764 12.5712V3.92852H1.78624V14.3359L12.0003 17.254L22.2144 14.3359V3.92852H20.643ZM11.2146 3.0014L4.92903 1.74428V11.9269L11.2146 13.184V3.0014ZM12.786 3.0014L19.0716 1.74428V11.9269L12.786 13.184V3.0014Z" fill="#2A6C50"/>
</svg>
