<svg width="20" height="20" viewBox="0 0 20 20" fill="none" xmlns="http://www.w3.org/2000/svg">
<path d="M16.9023 18.5H15.9023L16.4023 17.5L15.9023 17V16.5L15.4023 15V14V12.5L16.4023 11.5L16.9023 10.5V9L16.4023 7.5L15.4023 6L14.4023 5L13.9023 4.5L12.9023 4L11.9023 3.5H10.9023L9.90234 3H8.40234L7.40234 3.5L5.90234 4L4.90234 5L4.40234 6L3.40234 7L2.90234 9L3.40234 10.5L3.90234 12L4.90234 13L6.40234 13.5H7.40234H8.90234L11.4023 13H13.4023H14.9023V14V14.5L14.4023 15L13.4023 14.5L12.9023 15H11.4023H9.90234H8.90234L7.90234 15.5L6.90234 15L6.40234 15.5L5.40234 15L4.40234 14.5L3.40234 14L2.40234 13L1.90234 12L1.40234 11.5V10.5V9V7.5L1.90234 6.5L2.40234 5.5L3.40234 4L4.40234 3L5.40234 2.5L5.90234 2H6.90234L7.40234 1.5H8.40234L9.40234 1L10.4023 1.5H11.4023L11.9023 2H12.9023L13.4023 2.5H14.4023L14.9023 3.5H15.9023L16.4023 4.5L17.4023 5V6L18.4023 7.5L18.9023 8.5L18.4023 9.5L18.9023 10L18.4023 11V12L17.4023 13L16.9023 14L15.9023 14.5L16.4023 15V16.5V17L16.9023 18.5Z" fill="#88D8B5"/>
<path d="M16.3387 18.9998C16.1722 18.9998 16.0156 18.9622 15.8966 18.8942C15.7319 18.7993 15.6406 18.6499 15.6406 18.4736C15.6406 18.214 16.004 17.5446 16.0648 17.4506C16.1794 17.2725 16.3056 17.2501 16.3897 17.2626C16.5132 17.2805 16.592 17.379 16.6278 17.4748C16.7701 17.7128 17.0717 18.2444 17.0717 18.4736C17.0726 18.7787 16.7638 18.9998 16.3387 18.9998ZM16.0496 18.4753C16.0496 18.4879 16.0514 18.512 16.1007 18.5398C16.157 18.5729 16.2438 18.5908 16.3387 18.5908C16.5365 18.5908 16.6636 18.5138 16.6636 18.4736C16.6573 18.3867 16.5025 18.0744 16.3405 17.7916C16.2215 18.0117 16.0568 18.3769 16.0496 18.4753Z" fill="#2A6C50" stroke="#2A6C50" stroke-width="0.3"/>
<path d="M15.8743 14.7887L15.476 14.8889C15.3919 14.6276 15.3122 14.394 15.2451 14.2016L15.6523 14.1201C15.7195 14.3099 15.7946 14.5354 15.8743 14.7887Z" fill="#2A6C50" stroke="#2A6C50" stroke-width="0.3"/>
<path d="M16.543 17.5573L16.1385 17.6164C16.1143 17.4446 16.083 17.2709 16.0508 17.0973L16.4473 16.9971C16.484 17.1832 16.5171 17.3712 16.543 17.5573Z" fill="#2A6C50" stroke="#2A6C50" stroke-width="0.3"/>
<path d="M16.2023 17.3259C16.1281 17.3259 16.0538 17.3143 15.9813 17.2901C15.8032 17.231 15.6582 17.1066 15.5732 16.9384C15.4872 16.7674 15.4756 16.5696 15.5409 16.388L15.5391 16.3566C15.5204 16.0953 15.5177 16.0577 15.3047 15.7454C15.251 15.6917 15.2071 15.6317 15.1749 15.5673C15.0908 15.3999 15.0764 15.2093 15.1355 15.0303C15.1946 14.8522 15.319 14.7072 15.4872 14.6222C15.6546 14.538 15.8461 14.5237 16.0233 14.5828C16.2014 14.6418 16.3464 14.7662 16.4314 14.9345C16.5129 15.0965 16.5272 15.2844 16.4735 15.459L16.4789 15.5323C16.4977 15.7883 16.5022 15.8483 16.6668 16.0962C16.7357 16.1562 16.7912 16.2278 16.8306 16.3074C16.9147 16.4748 16.9291 16.6654 16.87 16.8435C16.8109 17.0216 16.6865 17.1666 16.5183 17.2516C16.4189 17.3 16.3115 17.3259 16.2023 17.3259ZM15.8023 14.956C15.7566 14.956 15.7119 14.9667 15.6707 14.9873C15.6 15.0231 15.5481 15.0831 15.5239 15.1582C15.4998 15.2325 15.5051 15.3131 15.54 15.3829C15.5544 15.4115 15.5749 15.4375 15.6018 15.4634L15.6313 15.4974C15.9061 15.9002 15.9231 16.0022 15.9473 16.3271L15.9571 16.456L15.9356 16.5034C15.8989 16.5857 15.9007 16.6779 15.9392 16.7558C15.9741 16.8256 16.035 16.8784 16.1093 16.9026C16.1835 16.9276 16.2632 16.9214 16.3339 16.8856C16.4046 16.8498 16.4565 16.7898 16.4807 16.7146C16.5048 16.6404 16.4995 16.5598 16.4637 16.49C16.4449 16.4533 16.418 16.4211 16.384 16.3933L16.3419 16.3477C16.1119 16.0067 16.0931 15.8796 16.0699 15.5619L16.0573 15.4017L16.0743 15.3578C16.1057 15.2782 16.1021 15.1931 16.0645 15.1189C16.0296 15.0491 15.9687 14.9962 15.8945 14.9721C15.8649 14.9613 15.8336 14.956 15.8023 14.956Z" fill="#2A6C50" stroke="#2A6C50" stroke-width="0.3"/>
<path d="M14.1922 12.6543C13.767 12.6543 13.3911 12.8709 13.1719 13.2002L13.5111 13.4276C13.6588 13.2065 13.9076 13.0633 14.1922 13.0633C14.6441 13.0633 15.0102 13.4294 15.0102 13.8813C15.0102 14.3333 14.6441 14.6993 14.1922 14.6993C13.9201 14.6993 13.6793 14.5669 13.5317 14.3619L13.2945 14.7154C13.5173 14.9571 13.8386 15.1083 14.1922 15.1083C14.8688 15.1083 15.4192 14.5588 15.4192 13.8813C15.4192 13.2038 14.8688 12.6543 14.1922 12.6543Z" fill="#2A6C50" stroke="#2A6C50" stroke-width="0.3"/>
<path d="M12.5575 12.6543C12.0707 12.6543 11.65 12.9389 11.4531 13.3497L11.7986 13.5806C11.9167 13.2763 12.2112 13.0633 12.5575 13.0633C13.0095 13.0633 13.3756 13.4294 13.3756 13.8813C13.3756 14.3333 13.0095 14.6993 12.5575 14.6993C12.2855 14.6993 12.0447 14.5669 11.897 14.3619L11.6599 14.7154C11.8827 14.9571 12.204 15.1083 12.5575 15.1083C13.2341 15.1083 13.7846 14.5588 13.7846 13.8813C13.7846 13.2038 13.2341 12.6543 12.5575 12.6543Z" fill="#2A6C50" stroke="#2A6C50" stroke-width="0.3"/>
<path d="M10.9207 12.8594C10.4956 12.8594 10.1197 13.076 9.90039 13.4053L10.2396 13.6326C10.3873 13.4116 10.6361 13.2684 10.9207 13.2684C11.3726 13.2684 11.7387 13.6344 11.7387 14.0864C11.7387 14.5384 11.3726 14.9044 10.9207 14.9044C10.696 14.9044 10.4911 14.8122 10.3425 14.6655L10.0543 14.9536C10.2754 15.1765 10.5815 15.3134 10.9216 15.3134C11.5982 15.3134 12.1486 14.763 12.1486 14.0864C12.1477 13.4089 11.5973 12.8594 10.9207 12.8594Z" fill="#2A6C50" stroke="#2A6C50" stroke-width="0.3"/>
<path d="M9.28605 13.0635C8.79918 13.0635 8.37854 13.3481 8.18164 13.7589L8.5271 13.9898C8.64614 13.6855 8.93969 13.4725 9.28605 13.4725C9.73802 13.4725 10.1041 13.8385 10.1041 14.2905C10.1041 14.7425 9.73802 15.1085 9.28605 15.1085C9.06141 15.1085 8.85645 15.0163 8.70788 14.8696L8.4197 15.1578C8.64076 15.3806 8.94685 15.5175 9.28695 15.5175C9.96356 15.5175 10.514 14.9671 10.514 14.2905C10.514 13.6139 9.96266 13.0635 9.28605 13.0635Z" fill="#2A6C50" stroke="#2A6C50" stroke-width="0.3"/>
<path d="M7.64967 13.2676C7.29615 13.2676 6.97485 13.4188 6.752 13.6605L6.98917 14.014C7.13595 13.8099 7.37759 13.6766 7.64967 13.6766C8.10164 13.6766 8.46769 14.0426 8.46769 14.4946C8.46769 14.9466 8.10164 15.3126 7.64967 15.3126C7.31853 15.3126 7.03213 15.1139 6.90505 14.8302L6.60254 15.1327C6.81734 15.4863 7.20576 15.7216 7.64967 15.7216C8.32628 15.7216 8.8767 15.1712 8.8767 14.4946C8.8767 13.818 8.32628 13.2676 7.64967 13.2676Z" fill="#2A6C50" stroke="#2A6C50" stroke-width="0.3"/>
<path d="M6.01439 13.0635C5.81033 13.0635 5.61791 13.1127 5.44786 13.2022L5.57853 13.5987C5.70561 13.519 5.85418 13.4716 6.01439 13.4716C6.46635 13.4716 6.83241 13.8376 6.83241 14.2896C6.83241 14.7416 6.46635 15.1076 6.01439 15.1076C5.59553 15.1076 5.25186 14.7926 5.20264 14.3881L4.82227 14.5778C4.95114 15.1157 5.43801 15.5166 6.01439 15.5166C6.691 15.5166 7.24142 14.9662 7.24142 14.2896C7.24142 13.613 6.69189 13.0635 6.01439 13.0635Z" fill="#2A6C50" stroke="#2A6C50" stroke-width="0.3"/>
<path d="M4.58249 12.4502C4.51269 12.4502 4.44377 12.4565 4.37843 12.469V12.8861C4.44377 12.8673 4.51179 12.8592 4.58249 12.8592C5.03446 12.8592 5.40052 13.2253 5.40052 13.6772C5.40052 14.1292 5.03446 14.4952 4.58249 14.4952C4.13053 14.4952 3.76447 14.1292 3.76447 13.6772C3.76447 13.6244 3.77074 13.5707 3.78059 13.5197L3.35726 13.6262C3.35547 13.6423 3.35547 13.6593 3.35547 13.6772C3.35547 14.3538 3.90588 14.9042 4.58249 14.9042C5.25911 14.9042 5.80953 14.3538 5.80953 13.6772C5.80953 12.9997 5.26 12.4502 4.58249 12.4502Z" fill="#2A6C50" stroke="#2A6C50" stroke-width="0.3"/>
<path d="M3.55373 11.4443L3.42307 11.8408C3.84461 11.8739 4.17307 12.2248 4.17307 12.6544C4.17307 13.1063 3.80702 13.4724 3.35505 13.4724C2.90308 13.4724 2.53703 13.1063 2.53703 12.6544C2.53703 12.4951 2.58446 12.3456 2.66412 12.2185L2.26763 12.0878C2.17724 12.2579 2.12891 12.4494 2.12891 12.6544C2.12891 13.331 2.67933 13.8814 3.35594 13.8814C4.03255 13.8814 4.58297 13.331 4.58297 12.6544C4.58207 12.0449 4.13637 11.5383 3.55373 11.4443Z" fill="#2A6C50" stroke="#2A6C50" stroke-width="0.3"/>
<path d="M3.07017 10.1191L2.83926 10.4646C3.14356 10.5827 3.35657 10.8772 3.35657 11.2236C3.35657 11.6755 2.99052 12.0416 2.53855 12.0416C2.08658 12.0416 1.72053 11.6755 1.72053 11.2236C1.72053 10.9622 1.84314 10.7286 2.03557 10.5792L1.59971 10.4342C1.41981 10.6472 1.31152 10.9228 1.31152 11.2236C1.31152 11.9002 1.86194 12.4506 2.53855 12.4506C3.21516 12.4506 3.76557 11.9002 3.76557 11.2236C3.76557 10.7367 3.48097 10.316 3.07017 10.1191Z" fill="#2A6C50" stroke="#2A6C50" stroke-width="0.3"/>
<path d="M2.9635 8.69048L2.60999 8.92765C2.81405 9.07443 2.94739 9.31608 2.94739 9.58815C2.94739 10.0401 2.58134 10.4062 2.12937 10.4062C1.6774 10.4062 1.31136 10.0401 1.31136 9.58815C1.31136 9.25701 1.51004 8.97061 1.79375 8.84352L1.49125 8.54102C1.13773 8.75581 0.902344 9.14424 0.902344 9.58815C0.902344 10.2648 1.45276 10.8152 2.12937 10.8152C2.80598 10.8152 3.35641 10.2648 3.35641 9.58815C3.35641 9.23374 3.20515 8.91333 2.9635 8.69048Z" fill="#2A6C50" stroke="#2A6C50" stroke-width="0.3"/>
<path d="M3.4173 7.3757L3.00024 7.47952C3.09601 7.61466 3.15149 7.77576 3.15149 7.95207C3.15149 8.40404 2.78544 8.77009 2.33347 8.77009C1.8815 8.77009 1.51545 8.40404 1.51545 7.95207C1.51545 7.60661 1.72846 7.31215 2.03276 7.19312L1.80185 6.84766C1.39105 7.04366 1.10645 7.4652 1.10645 7.95207C1.10645 8.62869 1.65686 9.1791 2.33347 9.1791C3.01008 9.1791 3.56051 8.62869 3.56051 7.95207C3.56051 7.74354 3.50948 7.54754 3.4173 7.3757Z" fill="#2A6C50" stroke="#2A6C50" stroke-width="0.3"/>
<path d="M3.89711 6.11197H3.44961C3.51942 6.23279 3.55971 6.37151 3.55971 6.52098C3.55971 6.97295 3.19365 7.33899 2.74168 7.33899C2.28972 7.33899 1.92366 6.97295 1.92366 6.52098C1.92366 6.06901 2.28972 5.70296 2.74168 5.70296C2.79449 5.70296 2.84819 5.70922 2.8992 5.71906L2.79269 5.29574C2.77658 5.29395 2.75958 5.29395 2.74168 5.29395C2.06507 5.29395 1.51465 5.84437 1.51465 6.52098C1.51465 7.19759 2.06507 7.748 2.74168 7.748C3.4183 7.748 3.96871 7.19759 3.96871 6.52098C3.96871 6.37778 3.94454 6.24084 3.89711 6.11197Z" fill="#2A6C50" stroke="#2A6C50" stroke-width="0.3"/>
<path d="M4.97335 4.88528H4.55629C4.57508 4.95061 4.58313 5.01774 4.58313 5.08934C4.58313 5.5413 4.21708 5.90735 3.76511 5.90735C3.31314 5.90735 2.94709 5.5413 2.94709 5.08934C2.94709 4.63737 3.31314 4.27132 3.76511 4.27132V3.8623C3.0885 3.8623 2.53809 4.41272 2.53809 5.08934C2.53809 5.76595 3.0885 6.31636 3.76511 6.31636C4.44172 6.31636 4.99215 5.76595 4.99215 5.08934C4.99125 5.02042 4.98498 4.95061 4.97335 4.88528Z" fill="#2A6C50" stroke="#2A6C50" stroke-width="0.3"/>
<path d="M5.60291 3.91379C5.57606 4.3407 5.22254 4.68079 4.78757 4.68079C4.3356 4.68079 3.96955 4.31474 3.96955 3.86277C3.96955 3.4108 4.3356 3.04475 4.78757 3.04475C4.94509 3.04475 5.09186 3.0895 5.21716 3.16737L5.31919 2.75836C5.15988 2.6787 4.97731 2.63574 4.78757 2.63574C4.11096 2.63574 3.56055 3.18527 3.56055 3.86277C3.56055 4.54028 4.11096 5.0898 4.78757 5.0898C5.41317 5.0898 5.93047 4.61993 6.00386 4.01403L5.60291 3.91379Z" fill="#2A6C50" stroke="#2A6C50" stroke-width="0.3"/>
<path d="M16.4409 4.47656C15.7643 4.47656 15.2139 5.02698 15.2139 5.70359C15.2139 6.32919 15.6837 6.84649 16.2896 6.91988L16.3899 6.51893C15.963 6.49208 15.6229 6.13856 15.6229 5.70359C15.6229 5.25162 15.9889 4.88557 16.4409 4.88557C16.8929 4.88557 17.2589 5.25162 17.2589 5.70359C17.2589 5.83426 17.2285 5.95956 17.1712 6.06964L17.539 6.25133C17.6205 6.08754 17.6679 5.90139 17.6679 5.70359C17.6679 5.02698 17.1175 4.47656 16.4409 4.47656Z" fill="#2A6C50" stroke="#2A6C50" stroke-width="0.3"/>
<path d="M18.4737 6.95892C18.3833 6.34764 17.8607 5.9082 17.2592 5.9082C17.2019 5.9082 17.1429 5.91268 17.0838 5.92073C16.4135 6.01918 15.949 6.64209 16.0447 7.31065C16.1163 7.8011 16.4681 8.17969 16.9138 8.31035L17.014 7.91388C16.724 7.82169 16.4967 7.57199 16.4493 7.25158C16.3839 6.80588 16.6945 6.39061 17.1402 6.32527C17.5877 6.25994 18.003 6.5705 18.0683 7.01799C18.1014 7.24532 18.0379 7.46369 17.9072 7.63106L18.3368 7.71698C18.4594 7.49233 18.5122 7.2301 18.4737 6.95892Z" fill="#2A6C50" stroke="#2A6C50" stroke-width="0.3"/>
<path d="M18.9482 8.55568C18.9115 8.2308 18.7477 7.93992 18.49 7.73766C18.2716 7.56582 18.0058 7.47363 17.731 7.47363C17.6836 7.47363 17.6352 7.47543 17.586 7.48169C17.2611 7.52017 16.9685 7.68396 16.7662 7.94172C16.5639 8.19947 16.4736 8.51988 16.5129 8.84565C16.5604 9.23587 16.785 9.56164 17.0974 9.74959L17.3999 9.44708C17.1439 9.33431 16.9542 9.09357 16.9175 8.79732C16.8933 8.58074 16.9524 8.36773 17.0875 8.19589C17.2244 8.02405 17.4169 7.91576 17.6335 7.88891C17.6684 7.88443 17.7006 7.88264 17.7337 7.88264C17.9154 7.88264 18.0917 7.9444 18.2367 8.05806C18.4085 8.19321 18.5168 8.38742 18.5437 8.604C18.5705 8.82059 18.5087 9.03539 18.3736 9.20723C18.3101 9.28867 18.2322 9.35401 18.1463 9.40592L18.6063 9.55895C18.6367 9.52853 18.6654 9.49362 18.694 9.45872C18.8972 9.20185 18.9867 8.88056 18.9482 8.55568Z" fill="#2A6C50" stroke="#2A6C50" stroke-width="0.3"/>
<path d="M18.1194 9.27068C17.4571 9.13375 16.8065 9.56066 16.6695 10.2238C16.5961 10.5836 16.6883 10.9398 16.8942 11.2092L17.313 11.0678C17.1125 10.8799 17.0105 10.5935 17.0696 10.3053C17.1492 9.92133 17.4911 9.65284 17.8706 9.65284C17.9261 9.65284 17.9807 9.6591 18.0362 9.67163C18.4774 9.76203 18.762 10.1952 18.6716 10.6364C18.6081 10.947 18.3736 11.1806 18.0872 11.2602L18.2161 11.6487C18.6376 11.526 18.9768 11.1788 19.0726 10.7206C19.2086 10.0583 18.7817 9.40761 18.1194 9.27068Z" fill="#2A6C50" stroke="#2A6C50" stroke-width="0.3"/>
<path d="M18.005 11.0681C17.4689 10.6573 16.6965 10.7575 16.2857 11.2954C16.0709 11.5755 15.9957 11.921 16.0503 12.2459H16.4674C16.4057 12.0105 16.4513 11.751 16.6106 11.5424C16.7699 11.3339 17.0133 11.2238 17.2586 11.2238C17.4322 11.2238 17.6085 11.2793 17.7571 11.3939C18.1124 11.6677 18.1822 12.1806 17.9065 12.5412C17.7025 12.807 17.3624 12.9136 17.0536 12.8339V13.251C17.1207 13.2635 17.1888 13.2698 17.2559 13.2698C17.6255 13.2698 17.9898 13.1042 18.2314 12.7892C18.4015 12.5663 18.4847 12.305 18.4847 12.0427C18.4847 11.674 18.3191 11.3097 18.005 11.0681Z" fill="#2A6C50" stroke="#2A6C50" stroke-width="0.3"/>
<path d="M16.143 14.5216C15.7072 14.5216 15.2856 14.2898 15.0628 13.8808C14.7397 13.2866 14.9607 12.5401 15.555 12.2171C16.1493 11.894 16.8957 12.115 17.2188 12.7093C17.5419 13.3036 17.3208 14.05 16.7265 14.3731C16.5404 14.4733 16.3399 14.5216 16.143 14.5216ZM16.1394 12.4766C16.0079 12.4766 15.8745 12.5088 15.7501 12.5759C15.3536 12.7907 15.2069 13.2892 15.4216 13.6848C15.5255 13.8764 15.6991 14.0169 15.9085 14.0786C16.118 14.1404 16.339 14.1171 16.5305 14.0133C16.927 13.7985 17.0738 13.3009 16.859 12.9044C16.7113 12.6314 16.4294 12.4766 16.1394 12.4766Z" fill="#2A6C50" stroke="#2A6C50" stroke-width="0.3"/>
<path d="M7.02641 3.14303C6.97719 3.54756 6.6362 3.86349 6.21824 3.86349C5.76716 3.86349 5.40022 3.49655 5.40022 3.04547C5.40022 2.5944 5.76716 2.22745 6.21824 2.22745C6.37844 2.22745 6.52701 2.27578 6.6523 2.35543L6.78476 1.95895C6.61471 1.87035 6.42229 1.81934 6.21824 1.81934C5.54163 1.81934 4.99121 2.36976 4.99121 3.04637C4.99121 3.72298 5.54163 4.27339 6.21824 4.27339C6.79461 4.27339 7.27879 3.87244 7.40946 3.33545L7.02641 3.14303Z" fill="#2A6C50" stroke="#2A6C50" stroke-width="0.3"/>
<path d="M8.39264 2.76675C8.26466 3.05046 7.98005 3.24915 7.6489 3.24915C7.19783 3.24915 6.83088 2.88221 6.83088 2.43113C6.83088 1.98006 7.19783 1.61311 7.6489 1.61311C7.92098 1.61311 8.15994 1.74736 8.30851 1.95231L8.54568 1.597C8.32193 1.35625 8.00332 1.2041 7.6489 1.2041C6.97229 1.2041 6.42188 1.75452 6.42188 2.43113C6.42188 3.10774 6.97229 3.65816 7.6489 3.65816C8.09192 3.65816 8.47946 3.42188 8.69515 3.06836L8.39264 2.76675Z" fill="#2A6C50" stroke="#2A6C50" stroke-width="0.3"/>
<path d="M9.94532 2.70585C9.79675 2.90991 9.55689 3.04505 9.28571 3.04505C8.83464 3.04505 8.46769 2.6781 8.46769 2.22703C8.46769 1.77595 8.83464 1.409 9.28571 1.409C9.63028 1.409 9.92384 1.6238 10.0447 1.92541L10.3901 1.6954C10.1914 1.2846 9.77169 1 9.28661 1C8.61 1 8.05957 1.55041 8.05957 2.22703C8.05957 2.90364 8.61 3.45406 9.28661 3.45406C9.64102 3.45406 9.95964 3.30191 10.1834 3.06116L9.94532 2.70585Z" fill="#2A6C50" stroke="#2A6C50" stroke-width="0.3"/>
<path d="M11.5586 2.93777C11.4082 3.12662 11.18 3.25012 10.9214 3.25012C10.4703 3.25012 10.1034 2.88318 10.1034 2.43211C10.1034 1.98104 10.4703 1.61409 10.9214 1.61409C11.3098 1.61409 11.6338 1.88616 11.717 2.24953L12.0383 1.92823C11.8459 1.50311 11.4181 1.20508 10.9214 1.20508C10.2448 1.20508 9.69434 1.7555 9.69434 2.43211C9.69434 3.10872 10.2448 3.65913 10.9214 3.65913C11.2051 3.65913 11.4664 3.56158 11.674 3.3987L11.5586 2.93777Z" fill="#2A6C50" stroke="#2A6C50" stroke-width="0.3"/>
<path d="M12.9911 3.53132C12.8649 3.61098 12.7163 3.6593 12.5561 3.6593C12.1051 3.6593 11.7381 3.29236 11.7381 2.84128C11.7381 2.39021 12.1051 2.02327 12.5561 2.02327C12.9902 2.02327 13.3428 2.36425 13.3688 2.79116L13.7724 2.69003C13.6981 2.08502 13.1808 1.61426 12.5561 1.61426C11.8795 1.61426 11.3291 2.16467 11.3291 2.84128C11.3291 3.51789 11.8795 4.06831 12.5561 4.06831C12.7611 4.06831 12.9535 4.0173 13.1227 3.9287L12.9911 3.53132Z" fill="#2A6C50" stroke="#2A6C50" stroke-width="0.3"/>
<path d="M14.4604 4.32267C14.3271 4.41843 14.1642 4.47571 13.9878 4.47571C13.5368 4.47571 13.1698 4.10876 13.1698 3.65769C13.1698 3.20662 13.5368 2.83967 13.9878 2.83967C14.4389 2.83967 14.8059 3.20662 14.8059 3.65769L15.1979 3.46169C15.1039 2.87815 14.5982 2.43066 13.9887 2.43066C13.3121 2.43066 12.7617 2.98108 12.7617 3.65769C12.7617 4.3343 13.3121 4.88472 13.9887 4.88472C14.1973 4.88472 14.3942 4.83192 14.566 4.73973L14.4604 4.32267Z" fill="#2A6C50" stroke="#2A6C50" stroke-width="0.3"/>
<path d="M15.4195 5.29408C14.9684 5.29408 14.6015 4.92713 14.6015 4.47605C14.6015 4.02498 14.9684 3.65803 15.4195 3.65803C15.8706 3.65803 16.2375 4.02498 16.2375 4.47605C16.2375 4.54676 16.2259 4.61478 16.2089 4.68011H16.6286C16.6403 4.61389 16.6474 4.54586 16.6474 4.47605C16.6474 3.79944 16.097 3.24902 15.4204 3.24902C14.7438 3.24902 14.1934 3.79944 14.1934 4.47605C14.1934 5.15267 14.7438 5.70309 15.4204 5.70309L15.5618 5.27975C15.5144 5.28781 15.4678 5.29408 15.4195 5.29408Z" fill="#2A6C50" stroke="#2A6C50" stroke-width="0.3"/>
</svg>
